<?xml version="1.0" encoding="utf-8"?>
<!-- Generator: Adobe Illustrator 16.0.4, SVG Export Plug-In . SVG Version: 6.00 Build 0)  -->
<!DOCTYPE svg PUBLIC "-//W3C//DTD SVG 1.1//EN" "http://www.w3.org/Graphics/SVG/1.1/DTD/svg11.dtd">
<svg version="1.1" id="Layer_1" xmlns="http://www.w3.org/2000/svg" xmlns:xlink="http://www.w3.org/1999/xlink" x="0px" y="0px"
	 width="189.833px" height="79.333px" viewBox="0 0 189.833 79.333" enable-background="new 0 0 189.833 79.333"
	 xml:space="preserve">
<g>
	<path fill="#FFFFFF" d="M76.326,4.125H22.569L3.157,75.206h58.437c10.153,0,22.896-5.078,28.272-19.713
		c4.977-13.238,7.566-22.199,7.566-31.159C97.431,7.909,87.178,4.125,76.326,4.125z M62.885,44.745
		c-1.494,6.174-5.674,11.549-12.643,11.549H38.893l7.864-28.671h9.955c6.073,0,8.164,1.992,8.164,6.77
		C64.875,36.083,64.378,38.772,62.885,44.745z"/>
	<path fill="#FFFFFF" d="M174.035,53.4c-7.566,1.295-15.033,3.088-22.698,3.088c-10.751,0-15.53-2.091-15.53-9.157
		c0-6.072,2.588-10.953,5.177-13.443c5.275-4.974,13.339-5.672,22.199-5.672c5.774,0,11.05,0.5,17.222,1.395l6.272-23.49
		c-12.045-2.492-24.191-4.083-36.435-4.083c-11.25,0-24.092,1.493-32.254,10.057c-9.159,9.853-14.734,34.243-14.734,44.597
		c0,16.423,9.757,20.604,31.159,20.604c6.67,0,20.807-0.596,34.245-3.584L174.035,53.4L174.035,53.4z"/>
</g>
</svg>
