<?xml version="1.0" encoding="utf-8"?>
<!-- Generator: Adobe Illustrator 16.0.4, SVG Export Plug-In . SVG Version: 6.00 Build 0)  -->
<!DOCTYPE svg PUBLIC "-//W3C//DTD SVG 1.1//EN" "http://www.w3.org/Graphics/SVG/1.1/DTD/svg11.dtd">
<svg version="1.1" id="Layer_1" xmlns="http://www.w3.org/2000/svg" xmlns:xlink="http://www.w3.org/1999/xlink" x="0px" y="0px"
	 width="178px" height="644.333px" viewBox="0 -38.667 178 644.333" enable-background="new 0 -38.667 178 644.333"
	 xml:space="preserve">
<g>
	<g>
		<path fill="#FFFFFF" d="M10.321,46.07c-0.56-3.268-1.334-6.493-1.334-9.804c0-4.645,0.903-6.708,3.956-6.708
			c2.623,0,4.73,1.118,5.807,2.236c2.148,2.278,2.45,5.762,2.45,9.589c0,2.494-0.216,4.772-0.603,7.439l10.146,2.709
			c1.076-5.204,1.765-10.45,1.765-15.738c0-4.859-0.646-10.406-4.345-13.933c-4.255-3.956-14.79-6.364-19.263-6.364
			c-7.094,0-8.9,4.215-8.9,13.459c0,2.882,0.258,8.987,1.549,14.792L10.321,46.07L10.321,46.07z M10.321,46.07
			c-0.56-3.268-1.334-6.493-1.334-9.804c0-4.645,0.903-6.708,3.956-6.708c2.623,0,4.73,1.118,5.807,2.236
			c2.148,2.278,2.45,5.762,2.45,9.589c0,2.494-0.216,4.772-0.603,7.439l10.146,2.709c1.076-5.204,1.765-10.45,1.765-15.738
			c0-4.859-0.646-10.406-4.345-13.933c-4.255-3.956-14.79-6.364-19.263-6.364c-7.094,0-8.9,4.215-8.9,13.459
			c0,2.882,0.258,8.987,1.549,14.792L10.321,46.07L10.321,46.07z M22.36,71.375c0,2.967-1.376,4.172-3.61,4.172
			c-3.484,0-6.796-1.635-7.654-2.107c-2.364-1.289-2.924-2.58-2.924-5.719c0-1.764,0.729-3.914,3.912-3.914
			c1.549,0,5.03,0.99,7.225,2.15C22.232,67.505,22.36,69.266,22.36,71.375L22.36,71.375z M9.891,50.133
			C0.301,50.133,0,57.27,0,66.817c0,6.148,0.387,14.232,5.719,17.588c5.203,3.354,12.471,5.203,16.897,5.203
			c9.591,0,9.892-8.902,9.892-16.686c0-7.826-0.773-14.232-6.664-17.93C20.942,51.94,14.319,50.133,9.891,50.133L9.891,50.133z
			 M0.903,89.169v12.641l16.771,4.559v0.086l-16.771,1.204v7.652l16.254,10.148v0.086l-16.254-4.342v12.855l30.702,8.344v-17.977
			l-16.512-9.072v-0.086h16.512V97.08L0.903,89.169L0.903,89.169z M0.903,139.903v12.643l16.771,4.557v0.088l-16.771,1.203v7.654
			l16.254,10.148v0.086l-16.254-4.344v12.857l30.702,8.342v-17.975l-16.512-9.072v-0.086h16.512v-18.189L0.903,139.903
			L0.903,139.903z M0.903,189.924v12.943l30.702,8.342v-13.158L0.903,189.924L0.903,189.924z M0.903,214.133v13.373l20.556,5.332
			v8.645l10.146,2.752v-30.703l-10.146-2.752v8.686L0.903,214.133L0.903,214.133z M0.903,245.922v13.373l20.556,5.332v8.646
			l10.146,2.752v-30.704l-10.146-2.752v8.686L0.903,245.922L0.903,245.922z M0.903,270.135v31.647l8.171,2.105V285.57l2.751,0.731
			v18.314l6.623,1.723v-18.317l3.438,0.858v18.316l9.719,2.537v-31.689L0.903,270.135L0.903,270.135z M0.903,306.834v31.645
			l8.171,2.105v-18.316l2.751,0.73v18.318l6.623,1.719v-18.316l3.438,0.859v18.313l9.719,2.537v-31.688L0.903,306.834L0.903,306.834
			z"/>
		<path fill="#FFFFFF" d="M40.903,14.594v25.241c0,4.386,2.192,9.89,8.516,12.212c5.719,2.15,9.589,3.268,13.459,3.268
			c7.095,0,8.729-4.429,8.729-9.116v-23.22L40.903,14.594L40.903,14.594z M61.458,33.427v4.3c0,2.623-0.86,3.526-2.926,3.526
			c-0.729,0-1.893-0.216-4.471-0.86c-2.666-0.646-4.988-2.451-4.988-5.461V30.03L61.458,33.427L61.458,33.427z M40.903,54.876
			v31.648l8.17,2.105V70.312l2.752,0.732v18.318l6.623,1.719V72.762l3.438,0.861v18.318l9.72,2.535V62.789L40.903,54.876
			L40.903,54.876z M40.903,91.671v12.641l16.771,4.558v0.086l-16.771,1.205v7.654l16.254,10.146v0.086l-16.254-4.342v12.855
			l30.703,8.344V126.93l-16.514-9.072v-0.088h16.513V99.582L40.903,91.671L40.903,91.671z M40.903,147.594v15.738l30.703,22.318
			v-15.223l-13.545-7.869v-0.129l13.545-1.678V146.39l-23.693,6.406L40.903,147.594L40.903,147.594z M41.42,178.223
			c-1.032,5.721-1.419,11.568-1.419,18.447c0,8.471,0.816,12.771,5.115,15.438c1.463,0.902,4.815,2.021,7.226,2.021
			c6.449,0,6.664-4.301,6.664-9.203c0-6.75,0.345-7.609,1.592-7.609c1.462,0,2.193,1.203,2.193,6.32
			c0,4.213-0.431,8.342-0.947,12.514l9.504,2.709c0.945-6.279,1.16-13.201,1.16-17.502c0-3.182-0.086-7.354-0.901-10.234
			c-1.463-5.16-6.838-8.6-13.459-8.6c-4.815,0-6.148,4.344-6.148,8.299c0,7.697-0.303,8.471-1.807,8.471
			c-2.021,0-2.021-3.01-2.021-4.428c0-4.945,0.39-9.805,0.987-14.707L41.42,178.223L41.42,178.223z M40.903,221.672v13.373
			l20.556,5.332v8.643l10.147,2.752v-30.701l-10.147-2.752v8.686L40.903,221.672L40.903,221.672z M40.903,246.012v12.943
			l30.703,8.342v-13.158L40.903,246.012L40.903,246.012z M40.903,264.732v13.113l8.041,2.105v17.759l8.985,2.406V282.4l3.527,0.9
			v17.762l10.146,2.751v-31.177L40.903,264.732L40.903,264.732z M40.903,301.202v12.938l30.703,8.347v-13.158L40.903,301.202
			L40.903,301.202z M50.321,352.172c-0.562-3.268-1.334-6.492-1.334-9.803c0-4.646,0.901-6.709,3.957-6.709
			c2.623,0,4.729,1.119,5.806,2.229c2.149,2.279,2.45,5.769,2.45,9.597c0,2.487-0.215,4.77-0.604,7.438l10.148,2.709
			c1.073-5.201,1.764-10.447,1.764-15.735c0-4.859-0.646-10.406-4.344-13.935c-4.259-3.955-14.791-6.363-19.265-6.363
			c-7.097,0-8.899,4.216-8.899,13.459c0,2.882,0.257,8.986,1.547,14.793L50.321,352.172L50.321,352.172z M40.903,351.073v14.705
			l4.473,2.664v10.838h-4.473v13.237h30.702v-23.004L40.903,351.073L40.903,351.073z M52.773,379.28v-6.881l11.051,6.795v0.086
			H52.773L52.773,379.28z M40.903,399.309v13.373l20.555,5.332v8.646l10.148,2.754v-30.701l-10.148-2.752v8.686L40.903,399.309
			L40.903,399.309z M40.903,423.653v12.938l30.703,8.342V431.78L40.903,423.653L40.903,423.653z M62.36,465.387
			c0,2.967-1.377,4.17-3.612,4.17c-3.483,0-6.794-1.635-7.654-2.104c-2.364-1.289-2.924-2.58-2.924-5.723
			c0-1.765,0.731-3.91,3.913-3.91c1.548,0,5.031,0.983,7.224,2.146C62.232,461.516,62.36,463.282,62.36,465.387L62.36,465.387z
			 M49.89,444.145c-9.589,0-9.89,7.14-9.89,16.688c0,6.145,0.387,14.229,5.719,17.586c5.203,3.355,12.472,5.203,16.899,5.203
			c9.589,0,9.89-8.9,9.89-16.688c0-7.823-0.772-14.229-6.665-17.932C60.943,445.954,54.319,444.145,49.89,444.145L49.89,444.145z
			 M40.903,483.09v13.244l15.996,4.258v0.086l-15.996,3.611v14.617l30.703,8.26v-13.244l-17.805-4.646v-0.087l17.805-2.752v-15.092
			L40.903,483.09L40.903,483.09z"/>
	</g>
	<g>
		<path fill="#FFFFFF" d="M29.343-33.227H7.784L0-4.723h23.435c4.071,0,9.182-2.036,11.338-7.905
			c1.996-5.309,3.034-8.902,3.034-12.495C37.807-31.709,33.694-33.227,29.343-33.227z M23.952-16.938
			c-0.599,2.476-2.275,4.631-5.07,4.631h-4.551l3.154-11.498h3.992c2.436,0,3.274,0.799,3.274,2.715
			C24.751-20.411,24.551-19.333,23.952-16.938z"/>
		<path fill="#FFFFFF" d="M68.526-13.467c-3.035,0.52-6.028,1.238-9.104,1.238c-4.312,0-6.229-0.839-6.229-3.672
			c0-2.435,1.039-4.392,2.076-5.391c2.115-1.995,5.351-2.274,8.903-2.274c2.315,0,4.431,0.201,6.905,0.559l2.516-9.419
			c-4.831-1-9.701-1.638-14.611-1.638c-4.512,0-9.66,0.599-12.935,4.033c-3.674,3.952-5.909,13.732-5.909,17.884
			c0,6.586,3.913,8.263,12.495,8.263c2.675,0,8.345-0.239,13.734-1.438L68.526-13.467L68.526-13.467z"/>
	</g>
</g>
<g>
	<g>
		<path fill="#000000" d="M101.067,46.07c-0.562-3.268-1.334-6.493-1.334-9.804c0-4.645,0.901-6.708,3.955-6.708
			c2.623,0,4.729,1.118,5.808,2.236c2.147,2.278,2.45,5.762,2.45,9.589c0,2.494-0.217,4.772-0.604,7.439l10.146,2.709
			c1.076-5.204,1.766-10.45,1.766-15.738c0-4.859-0.646-10.406-4.345-13.933c-4.257-3.956-14.79-6.364-19.265-6.364
			c-7.094,0-8.898,4.215-8.898,13.459c0,2.882,0.258,8.987,1.549,14.792L101.067,46.07L101.067,46.07z M101.067,46.07
			c-0.562-3.268-1.334-6.493-1.334-9.804c0-4.645,0.901-6.708,3.955-6.708c2.623,0,4.729,1.118,5.808,2.236
			c2.147,2.278,2.45,5.762,2.45,9.589c0,2.494-0.217,4.772-0.604,7.439l10.146,2.709c1.076-5.204,1.766-10.45,1.766-15.738
			c0-4.859-0.646-10.406-4.345-13.933c-4.257-3.956-14.79-6.364-19.265-6.364c-7.094,0-8.898,4.215-8.898,13.459
			c0,2.882,0.258,8.987,1.549,14.792L101.067,46.07L101.067,46.07z M113.106,71.375c0,2.967-1.377,4.172-3.61,4.172
			c-3.483,0-6.796-1.635-7.654-2.107c-2.364-1.289-2.924-2.58-2.924-5.719c0-1.764,0.729-3.914,3.912-3.914
			c1.549,0,5.03,0.99,7.226,2.15C112.978,67.505,113.106,69.266,113.106,71.375L113.106,71.375z M100.638,50.133
			c-9.591,0-9.892,7.137-9.892,16.684c0,6.148,0.387,14.232,5.719,17.588c5.203,3.354,12.472,5.203,16.897,5.203
			c9.591,0,9.892-8.902,9.892-16.686c0-7.826-0.772-14.232-6.664-17.93C111.688,51.94,105.065,50.133,100.638,50.133L100.638,50.133
			z M91.649,89.169v12.641l16.771,4.559v0.086l-16.771,1.204v7.652l16.254,10.148v0.086l-16.254-4.342v12.855l30.701,8.344v-17.977
			l-16.513-9.072v-0.086h16.513V97.08L91.649,89.169L91.649,89.169z M91.649,139.903v12.643l16.771,4.557v0.088l-16.771,1.203v7.654
			l16.254,10.148v0.086l-16.254-4.344v12.857l30.701,8.342v-17.975l-16.513-9.072v-0.086h16.513v-18.189L91.649,139.903
			L91.649,139.903z M91.649,189.924v12.943l30.701,8.342v-13.158L91.649,189.924L91.649,189.924z M91.649,214.133v13.373
			l20.556,5.332v8.645l10.146,2.752v-30.703l-10.146-2.752v8.686L91.649,214.133L91.649,214.133z M91.649,245.922v13.373
			l20.556,5.332v8.646l10.146,2.752v-30.704l-10.146-2.752v8.686L91.649,245.922L91.649,245.922z M91.649,270.135v31.647l8.17,2.105
			V285.57l2.752,0.731v18.314l6.623,1.723v-18.317l3.438,0.858v18.316l9.719,2.537v-31.689L91.649,270.135L91.649,270.135z
			 M91.649,306.834v31.645l8.17,2.105v-18.316l2.752,0.73v18.318l6.623,1.719v-18.316l3.438,0.859v18.313l9.719,2.537v-31.688
			L91.649,306.834L91.649,306.834z"/>
		<path fill="#000000" d="M131.649,14.594v25.241c0,4.386,2.191,9.89,8.516,12.212c5.719,2.15,9.589,3.268,13.459,3.268
			c7.095,0,8.729-4.429,8.729-9.116v-23.22L131.649,14.594L131.649,14.594z M152.204,33.427v4.3c0,2.623-0.86,3.526-2.926,3.526
			c-0.729,0-1.894-0.216-4.471-0.86c-2.666-0.646-4.988-2.451-4.988-5.461V30.03L152.204,33.427L152.204,33.427z M131.649,54.876
			v31.648l8.17,2.105V70.312l2.752,0.732v18.318l6.623,1.719V72.762l3.438,0.861v18.318l9.721,2.535V62.789L131.649,54.876
			L131.649,54.876z M131.649,91.671v12.641l16.771,4.558v0.086l-16.771,1.205v7.654l16.254,10.146v0.086l-16.254-4.342v12.855
			l30.703,8.344V126.93l-16.515-9.072v-0.088h16.513V99.582L131.649,91.671L131.649,91.671z M131.649,147.594v15.738l30.703,22.318
			v-15.223l-13.545-7.869v-0.129l13.545-1.678V146.39l-23.693,6.406L131.649,147.594L131.649,147.594z M132.166,178.223
			c-1.032,5.721-1.419,11.568-1.419,18.447c0,8.471,0.816,12.771,5.115,15.438c1.463,0.902,4.814,2.021,7.226,2.021
			c6.449,0,6.664-4.301,6.664-9.203c0-6.75,0.345-7.609,1.592-7.609c1.462,0,2.193,1.203,2.193,6.32
			c0,4.213-0.431,8.342-0.947,12.514l9.504,2.709c0.945-6.279,1.16-13.201,1.16-17.502c0-3.182-0.086-7.354-0.901-10.234
			c-1.463-5.16-6.838-8.6-13.459-8.6c-4.814,0-6.147,4.344-6.147,8.299c0,7.697-0.304,8.471-1.808,8.471
			c-2.021,0-2.021-3.01-2.021-4.428c0-4.945,0.39-9.805,0.987-14.707L132.166,178.223L132.166,178.223z M131.649,221.672v13.373
			l20.556,5.332v8.643l10.147,2.752v-30.701l-10.147-2.752v8.686L131.649,221.672L131.649,221.672z M131.649,246.012v12.943
			l30.703,8.342v-13.158L131.649,246.012L131.649,246.012z M131.649,264.732v13.113l8.041,2.105v17.759l8.984,2.406V282.4l3.527,0.9
			v17.762l10.146,2.751v-31.177L131.649,264.732L131.649,264.732z M131.649,301.202v12.938l30.703,8.347v-13.158L131.649,301.202
			L131.649,301.202z M141.067,352.172c-0.562-3.268-1.334-6.492-1.334-9.803c0-4.646,0.9-6.709,3.957-6.709
			c2.623,0,4.729,1.119,5.806,2.229c2.149,2.279,2.45,5.769,2.45,9.597c0,2.487-0.215,4.77-0.604,7.438l10.147,2.709
			c1.074-5.201,1.765-10.447,1.765-15.735c0-4.859-0.646-10.406-4.344-13.935c-4.259-3.955-14.791-6.363-19.265-6.363
			c-7.098,0-8.899,4.216-8.899,13.459c0,2.882,0.257,8.986,1.547,14.793L141.067,352.172L141.067,352.172z M131.649,351.073v14.705
			l4.473,2.664v10.838h-4.473v13.237h30.701v-23.004L131.649,351.073L131.649,351.073z M143.519,379.28v-6.881l11.051,6.795v0.086
			H143.519L143.519,379.28z M131.649,399.309v13.373l20.555,5.332v8.646l10.148,2.754v-30.701l-10.148-2.752v8.686L131.649,399.309
			L131.649,399.309z M131.649,423.653v12.938l30.703,8.342V431.78L131.649,423.653L131.649,423.653z M153.106,465.387
			c0,2.967-1.377,4.17-3.612,4.17c-3.483,0-6.794-1.635-7.654-2.104c-2.364-1.289-2.924-2.58-2.924-5.723
			c0-1.765,0.731-3.91,3.913-3.91c1.548,0,5.031,0.983,7.224,2.146C152.978,461.516,153.106,463.282,153.106,465.387
			L153.106,465.387z M140.636,444.145c-9.589,0-9.89,7.14-9.89,16.688c0,6.145,0.387,14.229,5.719,17.586
			c5.203,3.355,12.472,5.203,16.899,5.203c9.589,0,9.89-8.9,9.89-16.688c0-7.823-0.772-14.229-6.665-17.932
			C151.688,445.954,145.065,444.145,140.636,444.145L140.636,444.145z M131.649,483.09v13.244l15.996,4.258v0.086l-15.996,3.611
			v14.617l30.703,8.26v-13.244l-17.806-4.646v-0.087l17.806-2.752v-15.092L131.649,483.09L131.649,483.09z"/>
	</g>
	<g>
		<path fill="#000000" d="M120.089-33.227H98.53L90.746-4.723h23.435c4.071,0,9.182-2.036,11.338-7.905
			c1.996-5.309,3.034-8.902,3.034-12.495C128.553-31.709,124.44-33.227,120.089-33.227z M114.698-16.938
			c-0.6,2.476-2.275,4.631-5.07,4.631h-4.551l3.154-11.498h3.992c2.436,0,3.272,0.799,3.272,2.715
			C115.497-20.411,115.297-19.333,114.698-16.938z"/>
		<path fill="#000000" d="M159.272-13.467c-3.035,0.52-6.028,1.238-9.104,1.238c-4.312,0-6.229-0.839-6.229-3.672
			c0-2.435,1.039-4.392,2.076-5.391c2.115-1.995,5.352-2.274,8.903-2.274c2.315,0,4.431,0.201,6.905,0.559l2.516-9.419
			c-4.831-1-9.701-1.638-14.611-1.638c-4.512,0-9.66,0.599-12.935,4.033c-3.674,3.952-5.909,13.732-5.909,17.884
			c0,6.586,3.913,8.263,12.495,8.263c2.675,0,8.345-0.239,13.733-1.438L159.272-13.467L159.272-13.467z"/>
	</g>
</g>
</svg>
