<?xml version="1.0" encoding="utf-8"?>
<!-- Generator: Adobe Illustrator 16.0.4, SVG Export Plug-In . SVG Version: 6.00 Build 0)  -->
<!DOCTYPE svg PUBLIC "-//W3C//DTD SVG 1.1//EN" "http://www.w3.org/Graphics/SVG/1.1/DTD/svg11.dtd">
<svg version="1.1" id="Layer_1" xmlns="http://www.w3.org/2000/svg" xmlns:xlink="http://www.w3.org/1999/xlink" x="0px" y="0px"
	 width="640px" height="200px" viewBox="-0.469 444.333 640 200" enable-background="new -0.469 444.333 640 200"
	 xml:space="preserve">
<g>
	<path d="M133.476,508.52c-3.268,0.562-6.492,1.334-9.804,1.334c-4.645,0-6.708-0.901-6.708-3.955c0-2.623,1.118-4.729,2.236-5.809
		c2.277-2.146,5.762-2.449,9.589-2.449c2.494,0,4.771,0.217,7.438,0.604l2.71-10.146c-5.204-1.076-10.45-1.766-15.738-1.766
		c-4.859,0-10.406,0.646-13.934,4.346c-3.956,4.256-6.363,14.789-6.363,19.264c0,7.095,4.215,8.898,13.459,8.898
		c2.882,0,8.986-0.258,14.792-1.549L133.476,508.52L133.476,508.52z M133.476,508.52c-3.268,0.562-6.492,1.334-9.804,1.334
		c-4.645,0-6.708-0.901-6.708-3.955c0-2.623,1.118-4.729,2.236-5.809c2.277-2.146,5.762-2.449,9.589-2.449
		c2.494,0,4.771,0.217,7.438,0.604l2.71-10.146c-5.204-1.076-10.45-1.766-15.738-1.766c-4.859,0-10.406,0.646-13.934,4.346
		c-3.956,4.256-6.363,14.789-6.363,19.264c0,7.095,4.215,8.898,13.459,8.898c2.882,0,8.986-0.258,14.792-1.549L133.476,508.52
		L133.476,508.52z M158.781,496.481c2.967,0,4.172,1.377,4.172,3.609c0,3.482-1.635,6.796-2.107,7.654
		c-1.289,2.363-2.58,2.924-5.719,2.924c-1.764,0-3.914-0.729-3.914-3.912c0-1.549,0.99-5.029,2.15-7.227
		C154.911,496.608,156.672,496.481,158.781,496.481L158.781,496.481z M137.539,508.948c0,9.592,7.137,9.893,16.684,9.893
		c6.148,0,14.232-0.387,17.588-5.719c3.354-5.203,5.203-12.473,5.203-16.896c0-9.592-8.901-9.893-16.686-9.893
		c-7.826,0-14.232,0.771-17.93,6.664C139.346,497.899,137.539,504.522,137.539,508.948L137.539,508.948z M176.575,517.938h12.641
		l4.56-16.771h0.086l1.204,16.771h7.651l10.148-16.254h0.086l-4.342,16.254h12.854l8.344-30.701h-17.977l-9.072,16.513h-0.086
		v-16.513h-18.187L176.575,517.938L176.575,517.938z M227.309,517.938h12.644l4.557-16.771h0.088l1.203,16.771h7.654l10.147-16.254
		h0.087l-4.345,16.254h12.857l8.342-30.701h-17.975l-9.072,16.513h-0.086v-16.513h-18.189L227.309,517.938L227.309,517.938z
		 M277.33,517.938h12.943l8.342-30.701h-13.158L277.33,517.938L277.33,517.938z M301.539,517.938h13.373l5.332-20.557h8.645
		l2.752-10.146h-30.702l-2.753,10.146h8.687L301.539,517.938L301.539,517.938z M333.328,517.938h13.373l5.332-20.557h8.646
		l2.752-10.146h-30.704l-2.752,10.146h8.687L333.328,517.938L333.328,517.938z M357.541,517.938h31.647l2.105-8.17h-18.317
		l0.73-2.752h18.314l1.723-6.623h-18.317l0.858-3.438h18.316l2.537-9.72h-31.689L357.541,517.938L357.541,517.938z M394.24,517.938
		h31.646l2.105-8.17h-18.317l0.731-2.752h18.318l1.719-6.623h-18.316l0.859-3.438h18.312l2.537-9.72h-31.688L394.24,517.938
		L394.24,517.938z"/>
	<path d="M102,477.938h25.241c4.386,0,9.89-2.191,12.212-8.516c2.149-5.719,3.268-9.59,3.268-13.459c0-7.096-4.429-8.73-9.115-8.73
		h-23.221L102,477.938L102,477.938z M120.833,457.383h4.3c2.623,0,3.526,0.859,3.526,2.926c0,0.729-0.216,1.895-0.86,4.471
		c-0.646,2.666-2.451,4.988-5.461,4.988h-4.902L120.833,457.383L120.833,457.383z M142.282,477.938h31.647l2.105-8.17h-18.317
		l0.732-2.752h18.317l1.72-6.623h-18.319l0.861-3.438h18.317l2.535-9.723h-31.687L142.282,477.938L142.282,477.938z
		 M179.077,477.938h12.641l4.559-16.771h0.086l1.205,16.771h7.653l10.146-16.254h0.086l-4.342,16.254h12.854l8.344-30.703h-17.974
		l-9.072,16.516h-0.088v-16.514h-18.188L179.077,477.938L179.077,477.938z M235,477.938h15.738l22.317-30.703h-15.223l-7.869,13.545
		h-0.129l-1.678-13.545h-14.361l6.406,23.693L235,477.938L235,477.938z M265.629,477.42c5.721,1.033,11.568,1.42,18.447,1.42
		c8.471,0,12.771-0.816,15.438-5.115c0.902-1.463,2.021-4.814,2.021-7.227c0-6.449-4.301-6.664-9.203-6.664
		c-6.75,0-7.609-0.346-7.609-1.592c0-1.463,1.203-2.193,6.32-2.193c4.213,0,8.342,0.432,12.514,0.947l2.709-9.504
		c-6.278-0.945-13.2-1.16-17.502-1.16c-3.182,0-7.354,0.086-10.233,0.9c-5.16,1.463-8.601,6.838-8.601,13.459
		c0,4.814,4.345,6.148,8.3,6.148c7.696,0,8.471,0.303,8.471,1.807c0,2.021-3.01,2.021-4.428,2.021
		c-4.945,0-9.806-0.391-14.707-0.986L265.629,477.42L265.629,477.42z M309.078,477.938h13.373l5.332-20.557h8.643l2.752-10.146
		h-30.701l-2.752,10.146h8.687L309.078,477.938L309.078,477.938z M333.418,477.938h12.943l8.342-30.703h-13.158L333.418,477.938
		L333.418,477.938z M352.138,477.938h13.113l2.105-8.041h17.759l2.406-8.984h-17.716l0.9-3.527h17.761l2.752-10.146h-31.177
		L352.138,477.938L352.138,477.938z M388.608,477.938h12.938l8.347-30.703h-13.158L388.608,477.938L388.608,477.938z
		 M439.579,468.52c-3.268,0.562-6.492,1.334-9.803,1.334c-4.646,0-6.709-0.9-6.709-3.957c0-2.623,1.119-4.729,2.229-5.807
		c2.279-2.148,5.77-2.449,9.598-2.449c2.486,0,4.77,0.215,7.438,0.604l2.709-10.146c-5.201-1.074-10.447-1.766-15.734-1.766
		c-4.859,0-10.406,0.646-13.936,4.344c-3.956,4.26-6.364,14.791-6.364,19.266c0,7.098,4.218,8.898,13.46,8.898
		c2.883,0,8.986-0.257,14.793-1.547L439.579,468.52L439.579,468.52z M438.479,477.938h14.705l2.664-4.474h10.838v4.474h13.236
		v-30.701h-23.004L438.479,477.938L438.479,477.938z M466.687,466.067h-6.881l6.795-11.051h0.086V466.067L466.687,466.067z
		 M486.716,477.938h13.373l5.332-20.556h8.646l2.754-10.147H486.12l-2.752,10.147h8.686L486.716,477.938L486.716,477.938z
		 M511.06,477.938h12.938l8.342-30.703h-13.152L511.06,477.938L511.06,477.938z M552.794,456.481c2.967,0,4.17,1.377,4.17,3.611
		c0,3.482-1.635,6.794-2.104,7.654c-1.289,2.363-2.58,2.924-5.723,2.924c-1.766,0-3.91-0.73-3.91-3.913
		c0-1.548,0.982-5.03,2.145-7.224C548.923,456.608,550.688,456.481,552.794,456.481L552.794,456.481z M531.552,468.95
		c0,9.59,7.141,9.891,16.688,9.891c6.145,0,14.229-0.387,17.586-5.719c3.355-5.203,5.203-12.473,5.203-16.898
		c0-9.59-8.9-9.891-16.688-9.891c-7.822,0-14.229,0.771-17.932,6.665C533.36,457.899,531.552,464.522,531.552,468.95L531.552,468.95
		z M570.497,477.938h13.244l4.258-15.996h0.086l3.611,15.996h14.617l8.26-30.703h-13.244l-4.646,17.806h-0.088l-2.752-17.806
		h-15.092L570.497,477.938L570.497,477.938z"/>
</g>
<g>
	<path fill="#FFFFFF" d="M133.476,588.52c-3.268,0.562-6.492,1.334-9.804,1.334c-4.645,0-6.708-0.901-6.708-3.955
		c0-2.623,1.118-4.729,2.236-5.809c2.277-2.146,5.762-2.449,9.589-2.449c2.494,0,4.771,0.217,7.438,0.604l2.71-10.146
		c-5.204-1.076-10.45-1.766-15.738-1.766c-4.859,0-10.406,0.646-13.934,4.346c-3.956,4.256-6.363,14.789-6.363,19.264
		c0,7.095,4.215,8.898,13.459,8.898c2.882,0,8.986-0.258,14.792-1.549L133.476,588.52L133.476,588.52z M133.476,588.52
		c-3.268,0.562-6.492,1.334-9.804,1.334c-4.645,0-6.708-0.901-6.708-3.955c0-2.623,1.118-4.729,2.236-5.809
		c2.277-2.146,5.762-2.449,9.589-2.449c2.494,0,4.771,0.217,7.438,0.604l2.71-10.146c-5.204-1.076-10.45-1.766-15.738-1.766
		c-4.859,0-10.406,0.646-13.934,4.346c-3.956,4.256-6.363,14.789-6.363,19.264c0,7.095,4.215,8.898,13.459,8.898
		c2.882,0,8.986-0.258,14.792-1.549L133.476,588.52L133.476,588.52z M158.781,576.481c2.967,0,4.172,1.377,4.172,3.609
		c0,3.482-1.635,6.796-2.107,7.654c-1.289,2.363-2.58,2.924-5.719,2.924c-1.764,0-3.914-0.729-3.914-3.912
		c0-1.549,0.99-5.029,2.15-7.227C154.911,576.608,156.672,576.481,158.781,576.481L158.781,576.481z M137.539,588.948
		c0,9.592,7.137,9.893,16.684,9.893c6.148,0,14.232-0.387,17.588-5.719c3.354-5.203,5.203-12.473,5.203-16.896
		c0-9.592-8.901-9.893-16.686-9.893c-7.826,0-14.232,0.771-17.93,6.664C139.346,577.899,137.539,584.522,137.539,588.948
		L137.539,588.948z M176.575,597.938h12.641l4.56-16.771h0.086l1.204,16.771h7.651l10.148-16.254h0.086l-4.342,16.254h12.854
		l8.344-30.701h-17.977l-9.072,16.513h-0.086v-16.513h-18.187L176.575,597.938L176.575,597.938z M227.309,597.938h12.644
		l4.557-16.771h0.088l1.203,16.771h7.654l10.147-16.254h0.087l-4.345,16.254h12.857l8.342-30.701h-17.975l-9.072,16.513h-0.086
		v-16.513h-18.189L227.309,597.938L227.309,597.938z M277.33,597.938h12.943l8.342-30.701h-13.158L277.33,597.938L277.33,597.938z
		 M301.539,597.938h13.373l5.332-20.557h8.645l2.752-10.146h-30.702l-2.753,10.146h8.687L301.539,597.938L301.539,597.938z
		 M333.328,597.938h13.373l5.332-20.557h8.646l2.752-10.146h-30.704l-2.752,10.146h8.687L333.328,597.938L333.328,597.938z
		 M357.541,597.938h31.647l2.105-8.17h-18.317l0.73-2.752h18.314l1.723-6.623h-18.317l0.858-3.438h18.316l2.537-9.72h-31.689
		L357.541,597.938L357.541,597.938z M394.24,597.938h31.646l2.105-8.17h-18.317l0.731-2.752h18.318l1.719-6.623h-18.316l0.859-3.438
		h18.312l2.537-9.72h-31.688L394.24,597.938L394.24,597.938z"/>
	<path fill="#FFFFFF" d="M102,557.938h25.241c4.386,0,9.89-2.191,12.212-8.516c2.149-5.719,3.268-9.59,3.268-13.459
		c0-7.096-4.429-8.73-9.115-8.73h-23.221L102,557.938L102,557.938z M120.833,537.383h4.3c2.623,0,3.526,0.859,3.526,2.926
		c0,0.729-0.216,1.895-0.86,4.471c-0.646,2.666-2.451,4.988-5.461,4.988h-4.902L120.833,537.383L120.833,537.383z M142.282,557.938
		h31.647l2.105-8.17h-18.317l0.732-2.752h18.317l1.72-6.623h-18.319l0.861-3.438h18.317l2.535-9.723h-31.687L142.282,557.938
		L142.282,557.938z M179.077,557.938h12.641l4.559-16.771h0.086l1.205,16.771h7.653l10.146-16.254h0.086l-4.342,16.254h12.854
		l8.344-30.703h-17.974l-9.072,16.516h-0.088v-16.514h-18.188L179.077,557.938L179.077,557.938z M235,557.938h15.738l22.317-30.703
		h-15.223l-7.869,13.545h-0.129l-1.678-13.545h-14.361l6.406,23.693L235,557.938L235,557.938z M265.629,557.42
		c5.721,1.033,11.568,1.42,18.447,1.42c8.471,0,12.771-0.816,15.438-5.115c0.902-1.463,2.021-4.814,2.021-7.227
		c0-6.449-4.301-6.664-9.203-6.664c-6.75,0-7.609-0.346-7.609-1.592c0-1.463,1.203-2.193,6.32-2.193
		c4.213,0,8.342,0.432,12.514,0.947l2.709-9.504c-6.278-0.945-13.2-1.16-17.502-1.16c-3.182,0-7.354,0.086-10.233,0.9
		c-5.16,1.463-8.601,6.838-8.601,13.459c0,4.814,4.345,6.148,8.3,6.148c7.696,0,8.471,0.303,8.471,1.807
		c0,2.021-3.01,2.021-4.428,2.021c-4.945,0-9.806-0.391-14.707-0.986L265.629,557.42L265.629,557.42z M309.078,557.938h13.373
		l5.332-20.557h8.643l2.752-10.146h-30.701l-2.752,10.146h8.687L309.078,557.938L309.078,557.938z M333.418,557.938h12.943
		l8.342-30.703h-13.158L333.418,557.938L333.418,557.938z M352.138,557.938h13.113l2.105-8.041h17.759l2.406-8.984h-17.716
		l0.9-3.527h17.761l2.752-10.146h-31.177L352.138,557.938L352.138,557.938z M388.608,557.938h12.938l8.347-30.703h-13.158
		L388.608,557.938L388.608,557.938z M439.579,548.52c-3.268,0.562-6.492,1.334-9.803,1.334c-4.646,0-6.709-0.9-6.709-3.957
		c0-2.623,1.119-4.729,2.229-5.807c2.279-2.148,5.77-2.449,9.598-2.449c2.486,0,4.77,0.215,7.438,0.604l2.709-10.146
		c-5.201-1.074-10.447-1.766-15.734-1.766c-4.859,0-10.406,0.646-13.936,4.344c-3.956,4.26-6.364,14.791-6.364,19.266
		c0,7.098,4.218,8.898,13.46,8.898c2.883,0,8.986-0.257,14.793-1.547L439.579,548.52L439.579,548.52z M438.479,557.938h14.705
		l2.664-4.474h10.838v4.474h13.236v-30.701h-23.004L438.479,557.938L438.479,557.938z M466.687,546.067h-6.881l6.795-11.051h0.086
		V546.067L466.687,546.067z M486.716,557.938h13.373l5.332-20.556h8.646l2.754-10.147H486.12l-2.752,10.147h8.686L486.716,557.938
		L486.716,557.938z M511.06,557.938h12.938l8.342-30.703h-13.152L511.06,557.938L511.06,557.938z M552.794,536.481
		c2.967,0,4.17,1.377,4.17,3.611c0,3.482-1.635,6.794-2.104,7.654c-1.289,2.363-2.58,2.924-5.723,2.924
		c-1.766,0-3.91-0.73-3.91-3.913c0-1.548,0.982-5.03,2.145-7.224C548.923,536.608,550.688,536.481,552.794,536.481L552.794,536.481z
		 M531.552,548.95c0,9.59,7.141,9.891,16.688,9.891c6.145,0,14.229-0.387,17.586-5.719c3.355-5.203,5.203-12.473,5.203-16.898
		c0-9.59-8.9-9.891-16.688-9.891c-7.822,0-14.229,0.771-17.932,6.665C533.36,537.899,531.552,544.522,531.552,548.95L531.552,548.95
		z M570.497,557.938h13.244l4.258-15.996h0.086l3.611,15.996h14.617l8.26-30.703h-13.244l-4.646,17.806h-0.088l-2.752-17.806
		h-15.092L570.497,557.938L570.497,557.938z"/>
</g>
<g>
	<path d="M32.846,447.226H9.822l-8.312,30.44h25.027c4.348,0,9.806-2.174,12.108-8.442c2.132-5.669,3.239-9.506,3.239-13.343
		C41.885,448.848,37.493,447.226,32.846,447.226z M27.089,464.622c-0.641,2.645-2.43,4.946-5.414,4.946h-4.86l3.367-12.279h4.264
		c2.603,0,3.495,0.854,3.495,2.9C27.943,460.913,27.729,462.064,27.089,464.622z"/>
	<path d="M74.691,468.33c-3.241,0.555-6.437,1.321-9.722,1.321c-4.605,0-6.651-0.896-6.651-3.921c0-2.601,1.109-4.69,2.217-5.758
		c2.258-2.13,5.716-2.429,9.508-2.429c2.472,0,4.732,0.215,7.374,0.597l2.687-10.058c-5.159-1.068-10.359-1.75-15.603-1.75
		c-4.819,0-10.317,0.641-13.814,4.308c-3.924,4.219-6.312,14.665-6.312,19.099c0,7.033,4.18,8.824,13.345,8.824
		c2.857,0,8.912-0.255,14.665-1.535L74.691,468.33L74.691,468.33z"/>
</g>
<g>
	<path fill="#FFFFFF" d="M32.846,527.034H9.822l-8.312,30.44h25.027c4.348,0,9.806-2.174,12.108-8.442
		c2.132-5.669,3.239-9.506,3.239-13.343C41.885,528.656,37.493,527.034,32.846,527.034z M27.089,544.429
		c-0.641,2.645-2.43,4.946-5.414,4.946h-4.86l3.367-12.279h4.264c2.603,0,3.495,0.854,3.495,2.9
		C27.943,540.72,27.729,541.872,27.089,544.429z"/>
	<path fill="#FFFFFF" d="M74.691,548.137c-3.241,0.555-6.437,1.321-9.722,1.321c-4.605,0-6.651-0.896-6.651-3.921
		c0-2.601,1.109-4.69,2.217-5.758c2.258-2.13,5.716-2.429,9.508-2.429c2.472,0,4.732,0.215,7.374,0.597l2.687-10.058
		c-5.159-1.068-10.359-1.75-15.603-1.75c-4.819,0-10.317,0.641-13.814,4.308c-3.924,4.219-6.312,14.665-6.312,19.099
		c0,7.033,4.18,8.824,13.345,8.824c2.857,0,8.912-0.255,14.665-1.535L74.691,548.137L74.691,548.137z"/>
</g>
</svg>
