<svg version="1.1"xmlns="http://www.w3.org/2000/svg" xmlns:xlink="http://www.w3.org/1999/xlink" x="0px" y="0px" viewBox="0 0 72.5 516.3" style="enable-background:new 0 0 72.5 516.3;" xml:space="preserve">
	<path d="M10.3,31.5C9.8,28.2,9,25,9,21.7c0-4.6,0.9-6.7,4-6.7c2.6,0,4.7,1.1,5.8,2.2c2.1,2.3,2.4,5.8,2.4,9.6
		c0,2.5-0.2,4.8-0.6,7.4l10.1,2.7c1.1-5.2,1.8-10.4,1.8-15.7c0-4.9-0.6-10.4-4.3-13.9c-4.3-4-14.8-6.4-19.3-6.4
		C1.8,0.9,0,5.1,0,14.4c0,2.9,0.3,9,1.5,14.8L10.3,31.5L10.3,31.5z M10.3,31.5C9.8,28.2,9,25,9,21.7c0-4.6,0.9-6.7,4-6.7
		c2.6,0,4.7,1.1,5.8,2.2c2.1,2.3,2.4,5.8,2.4,9.6c0,2.5-0.2,4.8-0.6,7.4l10.1,2.7c1.1-5.2,1.8-10.4,1.8-15.7
		c0-4.9-0.6-10.4-4.3-13.9c-4.3-4-14.8-6.4-19.3-6.4C1.8,0.9,0,5.1,0,14.4c0,2.9,0.3,9,1.5,14.8L10.3,31.5L10.3,31.5z M22.4,56.8
		c0,3-1.4,4.2-3.6,4.2c-3.5,0-6.8-1.6-7.7-2.1c-2.4-1.3-2.9-2.6-2.9-5.7c0-1.8,0.7-3.9,3.9-3.9c1.5,0,5,1,7.2,2.2
		C22.2,52.9,22.4,54.7,22.4,56.8L22.4,56.8z M9.9,35.5C0.3,35.5,0,42.7,0,52.2c0,6.1,0.4,14.2,5.7,17.6c5.2,3.4,12.5,5.2,16.9,5.2
		c9.6,0,9.9-8.9,9.9-16.7c0-7.8-0.8-14.2-6.7-17.9C20.9,37.3,14.3,35.5,9.9,35.5L9.9,35.5z M0.9,74.6v12.6l16.8,4.6v0.1L0.9,93.1
		v7.7l16.3,10.1v0.1l-16.3-4.3v12.9l30.7,8.3v-18l-16.5-9.1v-0.1h16.5V82.5L0.9,74.6L0.9,74.6z M0.9,125.3V138l16.8,4.6v0.1
		l-16.8,1.2v7.7l16.3,10.1v0.1l-16.3-4.3v12.9l30.7,8.3v-18l-16.5-9.1v-0.1h16.5v-18.2L0.9,125.3L0.9,125.3z M0.9,175.3v12.9
		l30.7,8.3v-13.2L0.9,175.3L0.9,175.3z M0.9,199.5v13.4l20.6,5.3v8.6l10.1,2.8v-30.7l-10.1-2.8v8.7L0.9,199.5L0.9,199.5z M0.9,231.3
		v13.4l20.6,5.3v8.6l10.1,2.8v-30.7L21.5,228v8.7L0.9,231.3L0.9,231.3z M0.9,255.5v31.6l8.2,2.1V271l2.8,0.7V290l6.6,1.7v-18.3
		l3.4,0.9v18.3l9.7,2.5v-31.7L0.9,255.5L0.9,255.5z M0.9,292.2v31.6l8.2,2.1v-18.3l2.8,0.7v18.3l6.6,1.7v-18.3l3.4,0.9v18.3l9.7,2.5
		v-31.7L0.9,292.2L0.9,292.2z"/>
	<path d="M40.9,0v25.2c0,4.4,2.2,9.9,8.5,12.2c5.7,2.2,9.6,3.3,13.5,3.3c7.1,0,8.7-4.4,8.7-9.1V8.4L40.9,0L40.9,0z M61.5,18.8v4.3
		c0,2.6-0.9,3.5-2.9,3.5c-0.7,0-1.9-0.2-4.5-0.9c-2.7-0.6-5-2.5-5-5.5v-4.9L61.5,18.8L61.5,18.8z M40.9,40.3v31.6l8.2,2.1V55.7
		l2.8,0.7v18.3l6.6,1.7V58.2l3.4,0.9v18.3l9.7,2.5V48.2L40.9,40.3L40.9,40.3z M40.9,77.1v12.6l16.8,4.6v0.1l-16.8,1.2v7.7l16.3,10.1
		v0.1l-16.3-4.3V122l30.7,8.3v-18l-16.5-9.1v-0.1h16.5V85L40.9,77.1L40.9,77.1z M40.9,133v15.7l30.7,22.3v-15.2L58.1,148v-0.1
		l13.5-1.7v-14.4l-23.7,6.4L40.9,133L40.9,133z M41.4,163.6c-1,5.7-1.4,11.6-1.4,18.4c0,8.5,0.8,12.8,5.1,15.4c1.5,0.9,4.8,2,7.2,2
		c6.4,0,6.7-4.3,6.7-9.2c0-6.8,0.3-7.6,1.6-7.6c1.5,0,2.2,1.2,2.2,6.3c0,4.2-0.4,8.3-0.9,12.5l9.5,2.7c0.9-6.3,1.2-13.2,1.2-17.5
		c0-3.2-0.1-7.4-0.9-10.2c-1.5-5.2-6.8-8.6-13.5-8.6c-4.8,0-6.1,4.3-6.1,8.3c0,7.7-0.3,8.5-1.8,8.5c-2,0-2-3-2-4.4
		c0-4.9,0.4-9.8,1-14.7L41.4,163.6L41.4,163.6z M40.9,207.1v13.4l20.6,5.3v8.6l10.1,2.8v-30.7l-10.1-2.8v8.7L40.9,207.1L40.9,207.1z
		 M40.9,231.4v12.9l30.7,8.3v-13.2L40.9,231.4L40.9,231.4z M40.9,250.1v13.1l8,2.1v17.8l9,2.4v-17.7l3.5,0.9v17.8l10.1,2.8V258
		L40.9,250.1L40.9,250.1z M40.9,286.6v12.9l30.7,8.3v-13.2L40.9,286.6L40.9,286.6z M50.3,337.6c-0.6-3.3-1.3-6.5-1.3-9.8
		c0-4.6,0.9-6.7,4-6.7c2.6,0,4.7,1.1,5.8,2.2c2.1,2.3,2.4,5.8,2.4,9.6c0,2.5-0.2,4.8-0.6,7.4l10.1,2.7c1.1-5.2,1.8-10.4,1.8-15.7
		c0-4.9-0.6-10.4-4.3-13.9c-4.3-4-14.8-6.4-19.3-6.4c-7.1,0-8.9,4.2-8.9,13.5c0,2.9,0.3,9,1.5,14.8L50.3,337.6L50.3,337.6z
		 M40.9,336.5v14.7l4.5,2.7v10.8h-4.5v13.2h30.7v-23L40.9,336.5L40.9,336.5z M52.8,364.7v-6.9l11.1,6.8v0.1H52.8L52.8,364.7z
		 M40.9,384.7v13.4l20.6,5.3v8.6l10.1,2.8v-30.7l-10.1-2.8v8.7L40.9,384.7L40.9,384.7z M40.9,409.1V422l30.7,8.3v-13.2L40.9,409.1
		L40.9,409.1z M62.4,450.8c0,3-1.4,4.2-3.6,4.2c-3.5,0-6.8-1.6-7.7-2.1c-2.4-1.3-2.9-2.6-2.9-5.7c0-1.8,0.7-3.9,3.9-3.9
		c1.5,0,5,1,7.2,2.1C62.2,446.9,62.4,448.7,62.4,450.8L62.4,450.8z M49.9,429.6c-9.6,0-9.9,7.1-9.9,16.7c0,6.1,0.4,14.2,5.7,17.6
		c5.2,3.4,12.5,5.2,16.9,5.2c9.6,0,9.9-8.9,9.9-16.7c0-7.8-0.8-14.2-6.7-17.9C60.9,431.4,54.3,429.6,49.9,429.6L49.9,429.6z
		 M40.9,468.5v13.2l16,4.3v0.1l-16,3.6v14.6l30.7,8.3v-13.2l-17.8-4.6v-0.1l17.8-2.8v-15.1L40.9,468.5L40.9,468.5z"/>
</svg>
