<?xml version="1.0" encoding="utf-8"?>
<!-- Generator: Adobe Illustrator 16.0.4, SVG Export Plug-In . SVG Version: 6.00 Build 0)  -->
<!DOCTYPE svg PUBLIC "-//W3C//DTD SVG 1.1//EN" "http://www.w3.org/Graphics/SVG/1.1/DTD/svg11.dtd">
<svg version="1.1" id="Layer_1" xmlns="http://www.w3.org/2000/svg" xmlns:xlink="http://www.w3.org/1999/xlink" x="0px" y="0px"
	 width="76px" height="516px" viewBox="0 0 76 516" enable-background="new 0 0 76 516" xml:space="preserve">
<g>
	<path fill="#FFFFFF" d="M12.066,33.19c-0.56-3.268-1.334-6.493-1.334-9.804c0-4.645,0.903-6.708,3.956-6.708
		c2.623,0,4.73,1.118,5.807,2.236c2.148,2.278,2.45,5.762,2.45,9.589c0,2.494-0.216,4.772-0.603,7.439l10.146,2.709
		c1.076-5.204,1.765-10.45,1.765-15.738c0-4.859-0.646-10.406-4.345-13.933c-4.255-3.956-14.79-6.364-19.263-6.364
		c-7.094,0-8.9,4.215-8.9,13.459c0,2.882,0.258,8.987,1.549,14.792L12.066,33.19L12.066,33.19z M12.066,33.19
		c-0.56-3.268-1.334-6.493-1.334-9.804c0-4.645,0.903-6.708,3.956-6.708c2.623,0,4.73,1.118,5.807,2.236
		c2.148,2.278,2.45,5.762,2.45,9.589c0,2.494-0.216,4.772-0.603,7.439l10.146,2.709c1.076-5.204,1.765-10.45,1.765-15.738
		c0-4.859-0.646-10.406-4.345-13.933c-4.255-3.956-14.79-6.364-19.263-6.364c-7.094,0-8.9,4.215-8.9,13.459
		c0,2.882,0.258,8.987,1.549,14.792L12.066,33.19L12.066,33.19z M24.105,58.494c0,2.967-1.376,4.172-3.61,4.172
		c-3.484,0-6.796-1.635-7.654-2.107c-2.364-1.289-2.924-2.58-2.924-5.719c0-1.764,0.729-3.914,3.912-3.914
		c1.549,0,5.03,0.99,7.225,2.15C23.977,54.625,24.105,56.386,24.105,58.494L24.105,58.494z M11.636,37.253
		c-9.59,0-9.891,7.137-9.891,16.684c0,6.148,0.387,14.232,5.719,17.588c5.203,3.354,12.471,5.203,16.897,5.203
		c9.591,0,9.892-8.902,9.892-16.686c0-7.826-0.773-14.232-6.664-17.93C22.687,39.06,16.064,37.253,11.636,37.253L11.636,37.253z
		 M2.648,76.289v12.641l16.771,4.559v0.086L2.648,94.779v7.652l16.254,10.148v0.086l-16.254-4.342v12.855l30.702,8.344v-17.977
		l-16.512-9.072v-0.086h16.512V84.199L2.648,76.289L2.648,76.289z M2.648,127.023v12.643l16.771,4.557v0.088l-16.771,1.203v7.654
		l16.254,10.148v0.086l-16.254-4.344v12.857l30.702,8.342v-17.975l-16.512-9.072v-0.086h16.512v-18.189L2.648,127.023L2.648,127.023
		z M2.648,177.044v12.943l30.702,8.342v-13.158L2.648,177.044L2.648,177.044z M2.648,201.253v13.373l20.556,5.332v8.645
		l10.146,2.752v-30.703L23.204,197.9v8.686L2.648,201.253L2.648,201.253z M2.648,233.042v13.373l20.556,5.332v8.645l10.146,2.752
		v-30.703l-10.146-2.752v8.686L2.648,233.042L2.648,233.042z M2.648,257.255v31.646l8.171,2.107v-18.318l2.751,0.732v18.314
		l6.623,1.723v-18.318l3.438,0.859v18.316l9.719,2.537v-31.688L2.648,257.255L2.648,257.255z M2.648,293.953v31.646l8.171,2.105
		v-18.316l2.751,0.73v18.318l6.623,1.719v-18.316l3.438,0.859v18.316l9.719,2.537v-31.689L2.648,293.953L2.648,293.953z"/>
	<path fill="#FFFFFF" d="M42.649,1.714v25.241c0,4.386,2.193,9.89,8.515,12.212c5.719,2.15,9.589,3.268,13.459,3.268
		c7.095,0,8.729-4.429,8.729-9.116v-23.22L42.649,1.714L42.649,1.714z M63.203,20.547v4.3c0,2.623-0.86,3.526-2.925,3.526
		c-0.73,0-1.892-0.216-4.472-0.86c-2.666-0.646-4.988-2.451-4.988-5.461V17.15L63.203,20.547L63.203,20.547z M42.649,41.996v31.648
		l8.17,2.105V57.431l2.752,0.732v18.318l6.622,1.719V59.882l3.44,0.861v18.318l9.718,2.535V49.908L42.649,41.996L42.649,41.996z
		 M42.649,78.791v12.641L59.42,95.99v0.086l-16.771,1.205v7.654l16.254,10.146v0.086l-16.254-4.342v12.855l30.702,8.344V114.05
		l-16.512-9.072v-0.088h16.511V86.701L42.649,78.791L42.649,78.791z M42.649,134.714v15.738l30.702,22.318v-15.223l-13.545-7.869
		v-0.129l13.545-1.678v-14.361l-23.693,6.406L42.649,134.714L42.649,134.714z M43.165,165.343
		c-1.032,5.721-1.419,11.568-1.419,18.447c0,8.471,0.816,12.771,5.116,15.438c1.462,0.902,4.816,2.021,7.225,2.021
		c6.449,0,6.664-4.301,6.664-9.203c0-6.75,0.344-7.609,1.592-7.609c1.461,0,2.193,1.203,2.193,6.32
		c0,4.213-0.431,8.342-0.947,12.514l9.504,2.709c0.945-6.279,1.16-13.201,1.16-17.502c0-3.182-0.086-7.354-0.902-10.234
		c-1.462-5.16-6.837-8.6-13.459-8.6c-4.816,0-6.149,4.344-6.149,8.299c0,7.697-0.301,8.471-1.806,8.471
		c-2.021,0-2.021-3.01-2.021-4.428c0-4.945,0.388-9.805,0.989-14.707L43.165,165.343L43.165,165.343z M42.649,208.792v13.373
		l20.555,5.332v8.643l10.147,2.752v-30.701l-10.147-2.752v8.686L42.649,208.792L42.649,208.792z M42.649,233.132v12.943
		l30.702,8.342v-13.158L42.649,233.132L42.649,233.132z M42.649,251.851v13.115l8.041,2.105v17.76l8.986,2.406v-17.715l3.527,0.9
		v17.762l10.147,2.752v-31.178L42.649,251.851L42.649,251.851z M42.649,288.32v12.941l30.702,8.344v-13.158L42.649,288.32
		L42.649,288.32z M52.066,339.291c-0.56-3.268-1.333-6.492-1.333-9.803c0-4.646,0.902-6.709,3.956-6.709
		c2.623,0,4.729,1.119,5.806,2.234c2.149,2.279,2.45,5.764,2.45,9.592c0,2.492-0.215,4.77-0.603,7.438l10.148,2.709
		c1.075-5.201,1.764-10.447,1.764-15.736c0-4.859-0.646-10.406-4.344-13.934c-4.257-3.955-14.791-6.363-19.264-6.363
		c-7.096,0-8.9,4.215-8.9,13.459c0,2.881,0.257,8.986,1.547,14.793L52.066,339.291L52.066,339.291z M42.649,338.191v14.705
		l4.472,2.666v10.836h-4.472v13.242h30.701v-23.004L42.649,338.191L42.649,338.191z M54.517,366.398v-6.879l11.051,6.793v0.086
		H54.517L54.517,366.398z M42.649,386.429v13.373l20.554,5.332v8.643l10.148,2.754V385.83l-10.148-2.752v8.686L42.649,386.429
		L42.649,386.429z M42.649,410.771v12.943l30.702,8.342v-13.158L42.649,410.771L42.649,410.771z M64.105,452.507
		c0,2.967-1.376,4.17-3.612,4.17c-3.483,0-6.794-1.635-7.654-2.105c-2.364-1.289-2.924-2.58-2.924-5.721
		c0-1.762,0.731-3.912,3.913-3.912c1.548,0,5.031,0.988,7.224,2.15C63.977,448.636,64.105,450.4,64.105,452.507L64.105,452.507z
		 M51.635,431.265c-9.589,0-9.89,7.137-9.89,16.686c0,6.146,0.387,14.23,5.719,17.586c5.203,3.354,12.471,5.203,16.899,5.203
		c9.589,0,9.89-8.9,9.89-16.686c0-7.826-0.773-14.23-6.665-17.932C62.687,433.072,56.065,431.265,51.635,431.265L51.635,431.265z
		 M42.649,470.21v13.244l15.996,4.258v0.086l-15.996,3.611v14.617l30.702,8.26v-13.244l-17.803-4.646v-0.086l17.803-2.752v-15.092
		L42.649,470.21L42.649,470.21z"/>
</g>
</svg>
