<?xml version="1.0" encoding="utf-8"?>
<!-- Generator: Adobe Illustrator 16.0.4, SVG Export Plug-In . SVG Version: 6.00 Build 0)  -->
<!DOCTYPE svg PUBLIC "-//W3C//DTD SVG 1.1//EN" "http://www.w3.org/Graphics/SVG/1.1/DTD/svg11.dtd">
<svg version="1.1" id="Layer_1" xmlns="http://www.w3.org/2000/svg" xmlns:xlink="http://www.w3.org/1999/xlink" x="0px" y="0px"
	 width="76px" height="566.333px" viewBox="0 -36.833 76 566.333" enable-background="new 0 -36.833 76 566.333"
	 xml:space="preserve">
<g>
	<path fill="#FFFFFF" d="M12.066,46.07c-0.56-3.268-1.334-6.493-1.334-9.804c0-4.645,0.903-6.708,3.956-6.708
		c2.623,0,4.73,1.118,5.807,2.236c2.148,2.278,2.45,5.762,2.45,9.589c0,2.494-0.216,4.772-0.603,7.439l10.146,2.709
		c1.076-5.204,1.765-10.45,1.765-15.738c0-4.859-0.646-10.406-4.345-13.933c-4.255-3.956-14.79-6.364-19.263-6.364
		c-7.094,0-8.9,4.215-8.9,13.459c0,2.882,0.258,8.987,1.549,14.792L12.066,46.07L12.066,46.07z M12.066,46.07
		c-0.56-3.268-1.334-6.493-1.334-9.804c0-4.645,0.903-6.708,3.956-6.708c2.623,0,4.73,1.118,5.807,2.236
		c2.148,2.278,2.45,5.762,2.45,9.589c0,2.494-0.216,4.772-0.603,7.439l10.146,2.709c1.076-5.204,1.765-10.45,1.765-15.738
		c0-4.859-0.646-10.406-4.345-13.933c-4.255-3.956-14.79-6.364-19.263-6.364c-7.094,0-8.9,4.215-8.9,13.459
		c0,2.882,0.258,8.987,1.549,14.792L12.066,46.07L12.066,46.07z M24.105,71.375c0,2.967-1.376,4.172-3.61,4.172
		c-3.484,0-6.796-1.635-7.654-2.107c-2.364-1.289-2.924-2.58-2.924-5.719c0-1.764,0.729-3.914,3.912-3.914
		c1.549,0,5.03,0.99,7.225,2.15C23.977,67.505,24.105,69.266,24.105,71.375L24.105,71.375z M11.636,50.133
		c-9.59,0-9.891,7.137-9.891,16.684c0,6.148,0.387,14.232,5.719,17.588c5.203,3.354,12.471,5.203,16.897,5.203
		c9.591,0,9.892-8.902,9.892-16.686c0-7.826-0.773-14.232-6.664-17.93C22.687,51.94,16.064,50.133,11.636,50.133L11.636,50.133z
		 M2.648,89.169v12.641l16.771,4.559v0.086l-16.771,1.204v7.652l16.254,10.148v0.086l-16.254-4.342v12.855l30.702,8.344v-17.977
		l-16.512-9.072v-0.086H33.35V97.08L2.648,89.169L2.648,89.169z M2.648,139.903v12.643l16.771,4.557v0.088l-16.771,1.203v7.654
		l16.254,10.148v0.086l-16.254-4.344v12.857l30.702,8.342v-17.975l-16.512-9.072v-0.086H33.35v-18.189L2.648,139.903L2.648,139.903z
		 M2.648,189.924v12.943l30.702,8.342v-13.158L2.648,189.924L2.648,189.924z M2.648,214.133v13.373l20.556,5.332v8.645l10.146,2.752
		v-30.703l-10.146-2.752v8.686L2.648,214.133L2.648,214.133z M2.648,245.922v13.373l20.556,5.332v8.646l10.146,2.752v-30.704
		l-10.146-2.752v8.686L2.648,245.922L2.648,245.922z M2.648,270.135v31.646l8.171,2.107V285.57l2.751,0.732v18.314l6.623,1.723
		v-18.318l3.438,0.859v18.316l9.719,2.537v-31.689L2.648,270.135L2.648,270.135z M2.648,306.834v31.645l8.171,2.105v-18.316
		l2.751,0.73v18.318l6.623,1.719v-18.316l3.438,0.859v18.316l9.719,2.537v-31.689L2.648,306.834L2.648,306.834z"/>
	<path fill="#FFFFFF" d="M42.648,14.594v25.241c0,4.386,2.193,9.89,8.516,12.212c5.719,2.15,9.589,3.268,13.459,3.268
		c7.095,0,8.729-4.429,8.729-9.116v-23.22L42.648,14.594L42.648,14.594z M63.203,33.427v4.3c0,2.623-0.86,3.526-2.926,3.526
		c-0.729,0-1.892-0.216-4.471-0.86c-2.666-0.646-4.988-2.451-4.988-5.461V30.03L63.203,33.427L63.203,33.427z M42.648,54.876v31.648
		l8.17,2.105V70.312l2.752,0.732v18.318l6.623,1.719V72.762l3.439,0.861v18.318l9.719,2.535V62.789L42.648,54.876L42.648,54.876z
		 M42.648,91.671v12.641l16.771,4.558v0.086l-16.771,1.205v7.654l16.254,10.146v0.086l-16.254-4.342v12.855l30.703,8.344V126.93
		l-16.513-9.072v-0.088H73.35V99.582L42.648,91.671L42.648,91.671z M42.648,147.594v15.738l30.703,22.318v-15.223l-13.545-7.869
		v-0.129l13.545-1.678v-14.361l-23.693,6.406L42.648,147.594L42.648,147.594z M43.165,178.223
		c-1.032,5.721-1.419,11.568-1.419,18.447c0,8.471,0.816,12.771,5.115,15.438c1.463,0.902,4.816,2.021,7.226,2.021
		c6.449,0,6.664-4.301,6.664-9.203c0-6.75,0.345-7.609,1.592-7.609c1.462,0,2.193,1.203,2.193,6.32
		c0,4.213-0.431,8.342-0.947,12.514l9.504,2.709c0.945-6.279,1.16-13.201,1.16-17.502c0-3.182-0.086-7.354-0.901-10.234
		c-1.463-5.16-6.838-8.6-13.459-8.6c-4.816,0-6.149,4.344-6.149,8.299c0,7.697-0.302,8.471-1.806,8.471
		c-2.021,0-2.021-3.01-2.021-4.428c0-4.945,0.389-9.805,0.988-14.707L43.165,178.223L43.165,178.223z M42.648,221.672v13.373
		l20.556,5.332v8.643l10.147,2.752v-30.701l-10.147-2.752v8.686L42.648,221.672L42.648,221.672z M42.648,246.012v12.943
		l30.703,8.342v-13.158L42.648,246.012L42.648,246.012z M42.648,264.732v13.113l8.041,2.105v17.76l8.986,2.406v-17.715l3.527,0.9
		v17.762l10.146,2.752v-31.178L42.648,264.732L42.648,264.732z M42.648,301.201v12.941l30.703,8.344v-13.158L42.648,301.201
		L42.648,301.201z M52.066,352.172c-0.561-3.268-1.334-6.492-1.334-9.803c0-4.646,0.902-6.709,3.957-6.709
		c2.623,0,4.729,1.119,5.806,2.232c2.149,2.279,2.45,5.766,2.45,9.594c0,2.49-0.215,4.77-0.604,7.438l10.148,2.709
		c1.074-5.201,1.764-10.447,1.764-15.736c0-4.859-0.646-10.406-4.344-13.934c-4.258-3.955-14.791-6.363-19.264-6.363
		c-7.097,0-8.9,4.215-8.9,13.459c0,2.881,0.257,8.986,1.547,14.793L52.066,352.172L52.066,352.172z M42.648,351.072v14.705
		l4.473,2.664v10.838h-4.473v13.24H73.35v-23.004L42.648,351.072L42.648,351.072z M54.518,379.279v-6.881l11.051,6.795v0.086H54.518
		L54.518,379.279z M42.648,399.309v13.373l20.555,5.332v8.645l10.148,2.754v-30.701l-10.148-2.752v8.686L42.648,399.309
		L42.648,399.309z M42.648,423.652v12.941l30.703,8.342v-13.156L42.648,423.652L42.648,423.652z M64.105,465.387
		c0,2.967-1.377,4.17-3.612,4.17c-3.483,0-6.794-1.635-7.654-2.104c-2.364-1.289-2.924-2.58-2.924-5.723
		c0-1.762,0.731-3.91,3.913-3.91c1.548,0,5.031,0.986,7.224,2.148C63.977,461.516,64.105,463.281,64.105,465.387L64.105,465.387z
		 M51.635,444.145c-9.589,0-9.89,7.139-9.89,16.688c0,6.145,0.387,14.229,5.719,17.586c5.203,3.354,12.472,5.203,16.899,5.203
		c9.589,0,9.89-8.9,9.89-16.688c0-7.824-0.772-14.229-6.665-17.932C62.688,445.953,56.064,444.145,51.635,444.145L51.635,444.145z
		 M42.648,483.09v13.244l15.996,4.258v0.086l-15.996,3.611v14.617l30.703,8.26v-13.244l-17.804-4.646v-0.086l17.804-2.752v-15.092
		L42.648,483.09L42.648,483.09z"/>
</g>
<g>
	<path fill="#FFFFFF" d="M31.088-33.227H9.529L1.745-4.723H25.18c4.071,0,9.182-2.036,11.338-7.905
		c1.996-5.309,3.034-8.902,3.034-12.495C39.552-31.709,35.439-33.227,31.088-33.227z M25.697-16.938
		c-0.599,2.476-2.275,4.631-5.07,4.631h-4.551l3.154-11.498h3.992c2.436,0,3.274,0.799,3.274,2.715
		C26.496-20.411,26.296-19.333,25.697-16.938z"/>
	<path fill="#FFFFFF" d="M70.271-13.467c-3.034,0.52-6.028,1.238-9.103,1.238c-4.312,0-6.229-0.839-6.229-3.672
		c0-2.435,1.039-4.392,2.077-5.391c2.115-1.995,5.35-2.274,8.903-2.274c2.315,0,4.431,0.201,6.905,0.559l2.516-9.419
		c-4.831-1-9.701-1.638-14.611-1.638c-4.512,0-9.661,0.599-12.935,4.033c-3.674,3.952-5.909,13.732-5.909,17.884
		c0,6.586,3.913,8.263,12.495,8.263c2.675,0,8.345-0.239,13.734-1.438L70.271-13.467L70.271-13.467z"/>
</g>
</svg>
