<svg version="1.1" id="Layer_1" xmlns="http://www.w3.org/2000/svg" xmlns:xlink="http://www.w3.org/1999/xlink" x="0px" y="0px" viewBox="0 0 72.5 516.3" style="enable-background:new 0 0 72.5 516.3;" xml:space="preserve">
	<path d="M29.3,5.4H7.8L0,33.9h23.4c4.1,0,9.2-2,11.3-7.9c2-5.3,3-8.9,3-12.5C37.8,7,33.7,5.4,29.3,5.4z M24,21.7
		c-0.6,2.5-2.3,4.6-5.1,4.6h-4.6l3.2-11.5h4c2.4,0,3.3,0.8,3.3,2.7C24.8,18.3,24.6,19.3,24,21.7z"/>
	<path d="M68.5,25.2c-3,0.5-6,1.2-9.1,1.2c-4.3,0-6.2-0.8-6.2-3.7c0-2.4,1-4.4,2.1-5.4c2.1-2,5.4-2.3,8.9-2.3c2.3,0,4.4,0.2,6.9,0.6
		l2.5-9.4c-4.8-1-9.7-1.6-14.6-1.6c-4.5,0-9.7,0.6-12.9,4c-3.7,4-5.9,13.7-5.9,17.9c0,6.6,3.9,8.3,12.5,8.3c2.7,0,8.3-0.2,13.7-1.4
		L68.5,25.2L68.5,25.2z"/>
</svg>
