<?xml version="1.0" standalone="no"?>
<!DOCTYPE svg PUBLIC "-//W3C//DTD SVG 1.1//EN" "http://www.w3.org/Graphics/SVG/1.1/DTD/svg11.dtd" >
<svg xmlns="http://www.w3.org/2000/svg" xmlns:xlink="http://www.w3.org/1999/xlink" version="1.1">
<metadata></metadata>
<defs>
<font id="webfontregular" horiz-adv-x="1040" >
<font-face units-per-em="2048" ascent="1616" descent="-432" />
<missing-glyph horiz-adv-x="390" />
<glyph unicode="&#xd;" horiz-adv-x="390" />
<glyph unicode=" "  horiz-adv-x="390" />
<glyph unicode="&#x09;" horiz-adv-x="390" />
<glyph unicode="&#xa0;" horiz-adv-x="390" />
<glyph unicode="!" horiz-adv-x="552" d="M228 698v418h96v-418l-34 -384h-28zM204 146h144v-146h-144v146z" />
<glyph unicode="&#x22;" horiz-adv-x="722" d="M168 1196h122l-46 -406h-30zM432 1196h122l-46 -406h-30z" />
<glyph unicode="#" horiz-adv-x="1038" d="M384 406h210l64 328h-210zM198 806h174l60 310h90l-60 -310h210l60 310h90l-60 -310h176l-14 -72h-176l-64 -328h176l-14 -72h-176l-64 -334h-90l64 334h-210l-64 -334h-90l64 334h-174l14 72h174l64 328h-174z" />
<glyph unicode="$" horiz-adv-x="1078" d="M234 320q4 -63 27 -107.5t59 -74t81 -45.5t95 -21v456l-90 26q-122 35 -186 107t-64 181q0 73 27.5 127t74 90t108.5 55t130 22v196h76v-198q148 -12 232.5 -98t95.5 -234h-100q-5 62 -26 105.5t-52 71.5t-70 43t-80 20v-434l128 -36q52 -15 96.5 -38.5t76 -58 t49.5 -81.5t18 -108q0 -81 -30.5 -138t-81.5 -93.5t-117.5 -54.5t-138.5 -20v-196h-76v198q-77 7 -142 31t-113 66t-77 102t-34 139h104zM572 510v-440q67 1 117 17.5t83.5 45t50.5 67.5t17 86q0 81 -46 127t-124 69zM256 840q0 -77 44.5 -123t135.5 -73l60 -18v420 q-119 -5 -179.5 -60t-60.5 -146z" />
<glyph unicode="%" horiz-adv-x="1452" d="M368 576q90 0 133 65.5t43 178.5q0 56 -10.5 101.5t-32.5 77t-55 48.5t-78 17q-46 0 -79 -17t-54.5 -48.5t-32 -77t-10.5 -101.5t10.5 -101.5t32 -77t54.5 -48.5t79 -17zM368 504q-48 0 -94.5 15.5t-82.5 52t-58.5 97t-22.5 151.5t22.5 151.5t58.5 97t82.5 52t94.5 15.5 q47 0 93.5 -15.5t83 -52t59 -97t22.5 -151.5t-22.5 -151.5t-59 -97t-83 -52t-93.5 -15.5zM1020 1116h94l-682 -1116h-94zM1084 52q90 0 133 65.5t43 178.5q0 56 -10.5 101.5t-32.5 77t-55 48.5t-78 17q-46 0 -79 -17t-54.5 -48.5t-32 -77t-10.5 -101.5t10.5 -101.5t32 -77 t54.5 -48.5t79 -17zM1084 -20q-48 0 -94.5 15.5t-82.5 52t-58.5 97t-22.5 151.5t22.5 151.5t58.5 97t82.5 52t94.5 15.5q47 0 93.5 -15.5t83 -52t59 -97t22.5 -151.5t-22.5 -151.5t-59 -97t-83 -52t-93.5 -15.5z" />
<glyph unicode="&#x26;" horiz-adv-x="1054" d="M792 130q-29 -32 -64.5 -59.5t-79 -47.5t-94 -31.5t-108.5 -11.5q-71 0 -134.5 17.5t-111 52t-75 86.5t-27.5 120q0 60 21.5 107.5t60.5 89.5t92 80.5t116 80.5q-29 33 -55 66.5t-46.5 69.5t-32.5 74.5t-12 81.5q0 50 18 92.5t51.5 73t81.5 47.5t107 17q51 0 98 -13.5 t83 -41t57.5 -69.5t21.5 -98q0 -49 -17.5 -89.5t-50 -77.5t-78.5 -72.5t-104 -74.5l276 -326q29 56 45.5 127t16.5 165h92q0 -39 -5 -84t-16 -92.5t-29 -95.5t-44 -92l170 -202h-114zM442 64q94 0 167.5 33t126.5 101l-296 354q-50 -33 -95 -64.5t-78.5 -66t-53 -73.5 t-19.5 -88q0 -42 15 -78t46 -62t77.5 -41t109.5 -15zM336 900q0 -34 9 -63.5t25.5 -58t39.5 -57.5t50 -61q57 39 96 69.5t63 58.5t34.5 55.5t10.5 60.5q0 74 -43.5 112t-118.5 38t-120.5 -39.5t-45.5 -114.5z" />
<glyph unicode="'" horiz-adv-x="458" d="M168 1196h122l-46 -406h-30z" />
<glyph unicode="(" horiz-adv-x="558" d="M476 -356q-74 74 -126.5 150.5t-87.5 151t-56 146t-31.5 137t-13.5 122.5t-3 103t3 103t13.5 122.5t31.5 137t56 146t87.5 150.5t126.5 151h114q-119 -115 -186.5 -229t-102 -219.5t-43 -198t-8.5 -163.5t8.5 -163.5t43 -198t102 -219.5t186.5 -229h-114z" />
<glyph unicode=")" horiz-adv-x="558" d="M-32 -356q79 76 135 153t93.5 151t60 144.5t34 135t14.5 121.5t3 105q0 47 -3 104.5t-14.5 122t-34 135t-60 144.5t-93.5 150.5t-135 153.5h114q74 -74 126.5 -150.5t87.5 -151t56 -146t31.5 -137t13.5 -122.5t3 -103t-3 -103t-13.5 -122.5t-31.5 -137t-56 -146 t-87.5 -151t-126.5 -150.5h-114z" />
<glyph unicode="*" horiz-adv-x="636" d="M352 968l210 82l28 -82l-214 -58l138 -174l-70 -52l-126 194l-126 -194l-70 52l138 174l-214 58l28 82l210 -82l-14 228h96z" />
<glyph unicode="+" d="M130 506h342v344h96v-344h342v-88h-342v-344h-96v344h-342v88z" />
<glyph unicode="," horiz-adv-x="522" d="M262 0h-74v146h146v-146l-98 -318h-66z" />
<glyph unicode="-" horiz-adv-x="724" d="M134 510h456v-90h-456v90z" />
<glyph unicode="." horiz-adv-x="522" d="M188 146h146v-146h-146v146z" />
<glyph unicode="/" horiz-adv-x="600" d="M512 1264h92l-516 -1392h-92z" />
<glyph unicode="0" horiz-adv-x="1084" d="M542 1048q-89 0 -148.5 -36t-95.5 -101t-51 -155t-15 -198t15 -198t51 -155t95.5 -101t148.5 -36t148.5 36t95.5 101t51 155t15 198t-15 198t-51 155t-95.5 101t-148.5 36zM542 1136q204 0 308 -149.5t104 -428.5t-104 -428.5t-308 -149.5t-308 149.5t-104 428.5 t104 428.5t308 149.5z" />
<glyph unicode="1" horiz-adv-x="658" d="M464 1116v-1116h-102v944q-15 -20 -44 -41.5t-68.5 -39.5t-89 -29.5t-104.5 -11.5v88q64 1 117 20t94 48.5t69 66t42 71.5h86z" />
<glyph unicode="2" horiz-adv-x="886" d="M440 1136q97 0 165 -24.5t110.5 -66.5t61.5 -98t19 -119q0 -70 -19.5 -124t-52 -96.5t-74.5 -76.5t-86 -63l-182 -126q-74 -51 -115.5 -113t-44.5 -139h594v-90h-708v36q0 129 59.5 225t170.5 173l174 114q36 24 69 51.5t58 61t40 75t15 94.5q0 46 -14.5 85.5t-46 69 t-80 46.5t-115.5 17q-131 0 -195.5 -68t-66.5 -196h-106q0 89 28.5 155.5t78 110t117 65t146.5 21.5z" />
<glyph unicode="3" horiz-adv-x="994" d="M488 1136q98 0 166.5 -24.5t111 -66t61.5 -96t19 -115.5q0 -97 -50 -162t-136 -100q41 -11 79.5 -32.5t68.5 -55.5t48 -80t18 -104q0 -65 -21 -123t-66 -101.5t-116 -69.5t-171 -26q-101 0 -173.5 27t-120 76t-70 118t-22.5 153h104q2 -143 74 -214.5t208 -71.5 q66 0 116.5 17t85 47.5t52.5 73t18 92.5q0 46 -18.5 87t-54.5 72t-90.5 49t-126.5 18h-74v88h78q65 0 113.5 16.5t80.5 46t48 69t16 86.5q0 46 -14.5 85.5t-46 69t-80 46.5t-115.5 17q-131 0 -195.5 -68t-66.5 -196h-106q0 89 28 155.5t77.5 110t117 65t145.5 21.5z" />
<glyph unicode="4" horiz-adv-x="908" d="M690 1116v-766h162v-86h-162v-264h-100v264h-564v72l572 780h92zM590 350v606l-446 -606h446z" />
<glyph unicode="5" horiz-adv-x="962" d="M808 1116v-90h-520l-26 -396q50 42 115.5 63t136.5 21q100 0 170 -29.5t114.5 -79t65 -115t20.5 -138.5q0 -72 -20.5 -139t-65.5 -119t-116.5 -83t-173.5 -31q-99 0 -172 27t-121 76t-71.5 118t-23.5 153h104q2 -143 75.5 -214.5t204.5 -71.5q68 0 120 20.5t87 57.5 t53 88.5t18 113.5t-18 113.5t-53 88t-87 56.5t-120 20q-94 0 -164.5 -34t-117.5 -88l-60 8l36 604h610z" />
<glyph unicode="6" horiz-adv-x="1014" d="M554 1136q75 0 139.5 -23.5t112 -68.5t74.5 -110.5t26 -149.5h-106q0 72 -20.5 122t-55 81.5t-79 46t-91.5 14.5q-80 0 -140.5 -27.5t-101 -87.5t-61.5 -153.5t-21 -225.5q26 28 61.5 50.5t76 38.5t84.5 24.5t88 8.5q74 0 139.5 -22t114 -65.5t76.5 -109t28 -153.5 q0 -89 -28.5 -154t-78 -107.5t-115 -63.5t-138.5 -21q-102 0 -178.5 39t-127.5 113t-76.5 181.5t-25.5 244.5q0 153 30.5 262.5t86 179.5t134 103t173.5 33zM524 586q-32 0 -70 -6.5t-77 -21.5t-76.5 -38t-68.5 -56q7 -112 33.5 -187.5t68 -122t94.5 -66.5t112 -20 q55 0 103 16t82.5 48.5t54.5 81.5t20 114t-20.5 113.5t-57 80.5t-87 48t-111.5 16z" />
<glyph unicode="7" horiz-adv-x="752" d="M730 1116v-80q-189 -186 -276.5 -428t-87.5 -546v-62h-102v92q0 154 29.5 294t78.5 260t113 216t133 164h-594v90h706z" />
<glyph unicode="8" horiz-adv-x="1020" d="M512 1136q99 0 169 -26.5t114 -69t64.5 -97t20.5 -109.5q0 -95 -48.5 -165t-137.5 -103q40 -12 77.5 -34.5t66.5 -56.5t46.5 -79t17.5 -102q0 -61 -20.5 -117.5t-66.5 -100t-120.5 -70t-182.5 -26.5t-182.5 26.5t-120.5 70t-66.5 100t-20.5 117.5q0 57 17.5 102t46 79 t65.5 56.5t77 34.5q-88 33 -136 103t-48 165q0 55 20.5 109.5t64.5 97t114 69t169 26.5zM512 524q-74 0 -128.5 -17.5t-90.5 -48t-53.5 -72t-17.5 -88.5q0 -50 17.5 -92t53.5 -72t90.5 -47t128.5 -17q73 0 127.5 17t90.5 47t54 72t18 92q0 47 -18 88.5t-54 72t-90.5 48 t-127.5 17.5zM512 1046q-71 0 -121.5 -17t-83 -46.5t-48 -69t-15.5 -85.5q0 -47 15.5 -86.5t48 -69t83 -46t121.5 -16.5q70 0 121 16.5t83.5 46t48 69t15.5 86.5q0 46 -15.5 85.5t-48 69t-83.5 46.5t-121 17z" />
<glyph unicode="9" horiz-adv-x="1016" d="M478 1136q102 0 178.5 -39t127.5 -113t76.5 -181.5t25.5 -244.5q0 -153 -30.5 -262.5t-86 -179.5t-134 -103t-173.5 -33q-75 0 -139.5 23.5t-112 68.5t-74.5 110.5t-26 149.5h106q0 -72 20.5 -122.5t55 -82t79 -45.5t91.5 -14q79 0 139 27.5t101 87.5t62 153.5t22 225.5 q-27 -29 -62.5 -51.5t-75 -38t-81 -24t-81.5 -8.5q-78 0 -145.5 22t-117 65.5t-77.5 109t-28 153.5t28.5 153t78 108t114.5 64t139 21zM492 530q31 0 69 6.5t77 20.5t76.5 37t69.5 56q-7 112 -33.5 188.5t-68 123t-94.5 66.5t-112 20q-56 0 -103.5 -16.5t-82 -49 t-54.5 -81.5t-20 -113q0 -65 20.5 -113.5t57 -80.5t87 -48t111.5 -16z" />
<glyph unicode=":" horiz-adv-x="554" d="M204 146h146v-146h-146v146zM204 860h146v-146h-146v146z" />
<glyph unicode=";" horiz-adv-x="554" d="M278 0h-74v146h146v-146l-98 -318h-66zM204 860h146v-146h-146v146z" />
<glyph unicode="&#x3c;" d="M130 502l780 412v-96l-674 -350l674 -352v-100l-780 412v74z" />
<glyph unicode="=" d="M150 682h740v-88h-740v88zM150 330h740v-88h-740v88z" />
<glyph unicode="&#x3e;" d="M910 428l-780 -412v96l674 350l-674 352v100l780 -412v-74z" />
<glyph unicode="?" horiz-adv-x="814" d="M318 146h144v-146h-144v146zM348 322q0 70 13 117.5t35.5 81.5t52 59.5t61.5 53.5q21 18 41 36.5t35 41.5t24.5 53t9.5 71q0 43 -12 82.5t-38.5 69t-68.5 47t-103 17.5q-67 0 -112 -21t-72 -56.5t-38.5 -82t-11.5 -96.5h-96q0 83 24.5 146.5t68.5 106.5t105.5 65 t135.5 22q82 0 142 -25t98.5 -66.5t57 -95t18.5 -111.5q0 -52 -13 -91.5t-35 -72t-50 -59.5t-58 -53q-28 -25 -51.5 -48t-41 -50t-27.5 -61.5t-10 -80.5v-8h-84v8z" />
<glyph unicode="@" horiz-adv-x="1744" d="M1090 410l-188 -18q-86 -8 -138 -25t-84 -49q-40 -40 -40 -104q0 -66 42 -108t134 -42q90 0 155 29t119 79v238zM1104 110q-17 -23 -44.5 -46.5t-64 -42t-81 -30t-96.5 -11.5q-69 0 -120.5 17t-85.5 48.5t-51 74.5t-17 96q0 48 15.5 84.5t44.5 65.5q45 45 113 67.5 t153 30.5l220 18v54q0 61 -8.5 109t-31 81.5t-62 51.5t-102.5 18t-105 -17t-67 -46t-35.5 -67.5t-10.5 -81.5h-94q0 65 19.5 119.5t59 93.5t98.5 61t139 22q82 0 138.5 -22t91.5 -64.5t50.5 -105t15.5 -142.5v-400q0 -53 21 -71.5t57 -18.5q60 0 109 37.5t84 102.5t54 153 t19 189q0 148 -41.5 259.5t-120 186t-192 111.5t-256.5 37q-158 0 -287.5 -44.5t-221 -131.5t-141.5 -215.5t-50 -296.5q0 -170 50.5 -301t140.5 -220.5t215 -136t274 -46.5q58 0 112 6.5t99 15.5t79 20t54 20v-82q-20 -10 -54.5 -20.5t-79.5 -19.5t-99.5 -14.5t-112.5 -5.5 q-185 0 -329.5 60.5t-243.5 165.5t-151 248t-52 308q0 163 51 304t151.5 245.5t249 164.5t342.5 60q166 0 297.5 -45.5t222 -132t138.5 -211.5t48 -285q0 -114 -24.5 -216t-70.5 -179t-112 -122t-149 -45q-78 0 -118.5 37t-43.5 93z" />
<glyph unicode="A" horiz-adv-x="1098" d="M496 1116h106l424 -1116h-112l-106 292h-524l-106 -292h-106zM778 378l-230 624l-232 -624h462z" />
<glyph unicode="B" horiz-adv-x="1122" d="M196 1116h366q88 0 159 -18.5t120.5 -55t76 -92t26.5 -128.5q0 -99 -47 -158t-129 -86q52 -14 93 -36.5t69.5 -56t44 -78t15.5 -101.5q0 -77 -27.5 -134.5t-78.5 -95.5t-125 -57t-167 -19h-396v1116zM590 88q81 0 137.5 14t91.5 41t51 68t16 95q0 55 -16 96.5t-51 69.5 t-91.5 42t-137.5 14h-292v-440h292zM560 614q76 0 129 13.5t86.5 39.5t49 65t15.5 90q0 50 -15 88.5t-48 64.5t-86.5 39.5t-130.5 13.5h-262v-414h262z" />
<glyph unicode="C" horiz-adv-x="1144" d="M1018 324q-6 -82 -40 -146t-90 -108t-130.5 -67t-161.5 -23q-128 0 -217 44t-145.5 121.5t-82 183t-25.5 229.5t25.5 229.5t82 183t145.5 121.5t217 44q87 0 161.5 -23t130.5 -67t90 -108t40 -146h-100q-5 50 -26.5 96t-61 80.5t-98 55t-136.5 20.5q-111 0 -182 -42 t-112 -110.5t-56.5 -155.5t-15.5 -178t15.5 -178t56.5 -155.5t112 -110.5t182 -42q78 0 136.5 20.5t98 55t61 80.5t26.5 96h100z" />
<glyph unicode="D" horiz-adv-x="1166" d="M196 1116h324q135 0 233 -40t162 -113.5t94.5 -176.5t30.5 -228t-30.5 -228t-94.5 -176.5t-162 -113.5t-233 -40h-324v1116zM528 90q121 0 200 40.5t125.5 106.5t64.5 150t18 171t-18 171t-64.5 150t-125.5 106.5t-200 40.5h-230v-936h230z" />
<glyph unicode="E" horiz-adv-x="1042" d="M196 1116h714v-90h-612v-410h514v-90h-514v-436h612v-90h-714v1116z" />
<glyph unicode="F" horiz-adv-x="968" d="M196 1116h672v-90h-570v-410h496v-90h-496v-526h-102v1116z" />
<glyph unicode="G" horiz-adv-x="1206" d="M610 -20q-137 0 -229.5 46t-149 124t-81 182.5t-24.5 221.5q0 124 26 230.5t83 184.5t146.5 122.5t216.5 44.5q89 0 165.5 -23.5t133.5 -68.5t92 -110.5t41 -149.5h-100q-5 52 -27 99t-62.5 83t-100.5 57t-140 21q-75 0 -132 -19.5t-98 -53.5t-68 -80.5t-43 -101.5 t-22.5 -115.5t-6.5 -121.5q0 -52 5 -108t20 -109.5t41 -101.5t69 -84t104 -57.5t145 -21.5q104 0 170 33t103.5 88t51.5 126.5t15 148.5h-344v88h434v-554h-80v176q-33 -66 -79 -105t-95 -59t-96.5 -26t-83.5 -6z" />
<glyph unicode="H" horiz-adv-x="1198" d="M196 1116h102v-500h602v500h102v-1116h-102v526h-602v-526h-102v1116z" />
<glyph unicode="I" horiz-adv-x="590" d="M106 72h138v974h-138v70h378v-70h-138v-974h138v-72h-378v72z" />
<glyph unicode="J" horiz-adv-x="938" d="M160 1116h602v-768q0 -107 -22 -173.5t-64 -110.5q-81 -84 -254 -84q-81 0 -145 20t-109 63.5t-68.5 111.5t-23.5 165v46h102v-48q0 -144 60.5 -205t183.5 -61q60 0 104.5 14.5t74.5 46t44.5 82t14.5 123.5v688h-500v90z" />
<glyph unicode="K" horiz-adv-x="1050" d="M196 1116h102v-598l568 598h130l-432 -446l456 -670h-122l-404 598l-196 -202v-396h-102v1116z" />
<glyph unicode="L" horiz-adv-x="916" d="M196 1116h102v-1026h552v-90h-654v1116z" />
<glyph unicode="M" horiz-adv-x="1358" d="M196 1116h130l354 -696l356 696h126v-1116h-96v984l-348 -682h-78l-348 682v-984h-96v1116z" />
<glyph unicode="N" horiz-adv-x="1206" d="M196 1116h120l598 -982v982h96v-1116h-120l-598 982v-982h-96v1116z" />
<glyph unicode="O" horiz-adv-x="1220" d="M610 72q112 0 185 42t116.5 110.5t61 155.5t17.5 178t-17.5 178t-61 155.5t-116.5 110.5t-185 42t-185 -42t-116.5 -110.5t-61 -155.5t-17.5 -178t17.5 -178t61 -155.5t116.5 -110.5t185 -42zM610 -20q-122 0 -213 41.5t-151 117.5t-90 182.5t-30 236.5t30 236.5 t90 182.5t151 117.5t213 41.5t213 -41.5t151 -117.5t90 -182.5t30 -236.5t-30 -236.5t-90 -182.5t-151 -117.5t-213 -41.5z" />
<glyph unicode="P" d="M196 1116h326q207 0 312.5 -83t105.5 -251q0 -166 -105.5 -250t-312.5 -84h-224v-448h-102v1116zM516 538q93 0 155 15.5t99 46.5t52.5 76.5t15.5 105.5t-15.5 105.5t-52.5 76.5t-99 46.5t-155 15.5h-218v-488h218z" />
<glyph unicode="Q" horiz-adv-x="1220" d="M610 -20q-122 0 -213 41.5t-151 117.5t-90 182.5t-30 236.5t30 236.5t90 182.5t151 117.5t213 41.5t213 -41.5t151 -117.5t90 -182.5t30 -236.5t-31 -235.5t-91 -182.5l156 -158l-64 -64l-156 158q-57 -47 -131.5 -71.5t-166.5 -24.5zM610 72q75 0 132.5 18.5t99.5 53.5 l-168 170l64 64l166 -170q48 69 67 160.5t19 189.5q0 91 -17.5 178t-61 155.5t-116.5 110.5t-185 42t-185 -42t-116.5 -110.5t-61 -155.5t-17.5 -178t17.5 -178t61 -155.5t116.5 -110.5t185 -42z" />
<glyph unicode="R" horiz-adv-x="1106" d="M196 1116h326q207 0 312.5 -83t105.5 -251q0 -137 -78.5 -218t-221.5 -102l374 -462h-128l-352 450h-236v-450h-102v1116zM512 538q88 0 150 15.5t101 46.5t57 76.5t18 105.5t-15.5 105.5t-52.5 76.5t-99 46.5t-155 15.5h-218v-488h214z" />
<glyph unicode="S" horiz-adv-x="1066" d="M228 320q5 -73 34.5 -120.5t74 -76t99 -40t110.5 -11.5q55 0 105 11.5t87.5 37t59.5 66t22 97.5q0 80 -45.5 125.5t-122.5 68.5l-256 76q-118 35 -180 107t-62 181q0 67 24.5 121.5t71 93t113.5 59t151 20.5q169 0 266.5 -85.5t109.5 -248.5h-100q-6 73 -33.5 120 t-67.5 74t-88.5 37.5t-96.5 10.5t-93 -10.5t-79.5 -34.5t-55 -62.5t-20.5 -94.5q0 -74 42 -120t128 -72l256 -76q52 -16 96.5 -40t76 -58.5t49.5 -81.5t18 -108q0 -83 -32 -141.5t-84.5 -95t-121.5 -53t-142 -16.5q-74 0 -145 17t-128 57t-95.5 105t-45.5 161h100z" />
<glyph unicode="T" horiz-adv-x="906" d="M402 1026h-358v90h818v-90h-358v-1026h-102v1026z" />
<glyph unicode="U" horiz-adv-x="1164" d="M176 1116h102v-712q0 -92 18 -155.5t55.5 -102.5t95 -56.5t135.5 -17.5t135 17.5t94.5 56.5t56 102.5t18.5 155.5v712h102v-730q0 -104 -27 -180.5t-78.5 -126.5t-127.5 -74.5t-173 -24.5q-98 0 -173.5 24.5t-127 74.5t-78.5 126.5t-27 180.5v730z" />
<glyph unicode="V" horiz-adv-x="996" d="M40 1116h108l352 -1010l352 1010h104l-400 -1116h-116z" />
<glyph unicode="W" horiz-adv-x="1566" d="M70 1116h106l282 -1018l270 1018h114l270 -1018l282 1018h102l-326 -1116h-120l-266 1002l-266 -1002h-122z" />
<glyph unicode="X" horiz-adv-x="1010" d="M448 574l-364 542h122l302 -462l310 462h112l-366 -544l386 -572h-122l-324 494l-332 -494h-112z" />
<glyph unicode="Y" horiz-adv-x="994" d="M446 458l-404 658h118l338 -568l342 568h112l-404 -658v-458h-102v458z" />
<glyph unicode="Z" horiz-adv-x="974" d="M92 84l648 942h-620v90h738v-84l-648 -942h676v-90h-794v84z" />
<glyph unicode="[" horiz-adv-x="546" d="M216 1264h338v-78h-246v-1464h246v-78h-338v1620z" />
<glyph unicode="\" horiz-adv-x="600" d="M-4 1264h92l516 -1392h-92z" />
<glyph unicode="]" horiz-adv-x="546" d="M-8 -278h246v1464h-246v78h338v-1620h-338v78z" />
<glyph unicode="^" horiz-adv-x="826" d="M376 1116h74l300 -592h-90l-248 502l-248 -502h-88z" />
<glyph unicode="_" horiz-adv-x="950" d="M86 0h778v-88h-778v88z" />
<glyph unicode="`" horiz-adv-x="792" d="M268 1296h136l100 -234h-58z" />
<glyph unicode="a" horiz-adv-x="912" d="M646 410l-188 -18q-86 -8 -138 -25t-84 -49q-40 -40 -40 -102q0 -34 10.5 -62t32 -48t54.5 -31t79 -11q90 0 155 29t119 79v238zM660 110q-17 -23 -44.5 -46.5t-64 -42t-81 -30t-96.5 -11.5q-69 0 -120.5 17t-85.5 48.5t-51 74.5t-17 96q0 48 15.5 84.5t44.5 65.5 q45 45 113 67.5t153 30.5l220 18v54q0 61 -8.5 109t-31 81.5t-62 51.5t-102.5 18t-105 -17t-67 -46t-35.5 -67.5t-10.5 -81.5h-94q0 65 19.5 119.5t59 93.5t98.5 61t139 22q82 0 138.5 -22t91.5 -64.5t50.5 -105t15.5 -142.5v-418q0 -39 15.5 -52.5t42.5 -13.5q41 0 80 18 v-78q-15 -8 -43.5 -15t-58.5 -7q-34 0 -56.5 10t-36 26.5t-19.5 37.5t-6 42v14z" />
<glyph unicode="b" horiz-adv-x="984" d="M266 172q41 -47 96.5 -76.5t133.5 -29.5q138 0 207 96.5t69 267.5t-69 267.5t-207 96.5q-78 0 -133.5 -29.5t-96.5 -76.5v-516zM170 1324h96v-558q8 10 26.5 29.5t49 38t73.5 32.5t101 14q69 0 133 -24t113 -77t78.5 -138t29.5 -207t-29.5 -208.5t-78.5 -141t-113 -79.5 t-133 -25q-50 0 -91 11t-74 29t-58.5 40.5t-44.5 45.5v-106h-78v1324z" />
<glyph unicode="c" horiz-adv-x="928" d="M820 278q-5 -73 -29.5 -128.5t-66 -93t-98.5 -57t-126 -19.5q-65 0 -132 19.5t-122.5 70t-90.5 137.5t-35 223t35 223t90.5 137.5t122.5 70t132 19.5q69 0 126 -19.5t98.5 -57t66 -93t29.5 -128.5h-94q-2 43 -16 82t-41.5 67.5t-70 45.5t-102.5 17q-136 0 -207 -90.5 t-71 -273.5t71 -273.5t207 -90.5q60 0 102.5 17t70 45.5t41.5 67t16 82.5h94z" />
<glyph unicode="d" horiz-adv-x="984" d="M736 106q-19 -23 -44.5 -45.5t-58.5 -40.5t-74.5 -29t-90.5 -11q-69 0 -133 24t-113 77t-78.5 138t-29.5 207t29.5 208.5t78.5 141t113 79.5t133 25q58 0 101 -14t73.5 -32.5t49 -38t26.5 -29.5v558h96v-1324h-78v106zM718 688q-41 47 -96.5 76.5t-133.5 29.5 q-138 0 -207 -96.5t-69 -267.5t69 -267.5t207 -96.5q78 0 133.5 29.5t96.5 76.5v516z" />
<glyph unicode="e" horiz-adv-x="950" d="M744 492q-5 68 -24.5 124t-52.5 96t-80.5 62t-108.5 22q-62 0 -108.5 -22t-79.5 -62t-52 -96t-24 -124h530zM832 276q-11 -87 -46.5 -144t-84.5 -91t-106 -47.5t-109 -13.5q-74 0 -141 24.5t-118.5 78.5t-82 139.5t-30.5 207.5q0 127 32.5 213.5t85 139t117 75 t129.5 22.5q64 0 128.5 -22t116.5 -74t84.5 -137.5t32.5 -212.5v-18h-628q3 -169 71 -259.5t205 -90.5q109 0 171 55t79 155h94z" />
<glyph unicode="f" horiz-adv-x="530" d="M208 776h-144v84h144v244q0 119 54 179.5t152 60.5q30 0 51.5 -4.5t32.5 -9.5v-86q-14 6 -35.5 10t-42.5 4q-25 0 -46 -8t-36.5 -26.5t-24.5 -50t-9 -77.5v-236h194v-84h-194v-776h-96v776z" />
<glyph unicode="g" horiz-adv-x="972" d="M102 572q0 76 27.5 133.5t74 96.5t107.5 58.5t127 19.5q91 0 166.5 -36t119.5 -102q26 60 85.5 99t148.5 39v-100q-68 0 -124 -20t-82 -68q11 -27 16.5 -57t5.5 -63q-1 -68 -23.5 -124.5t-65 -97t-105 -63.5t-142.5 -23q-88 0 -156 28q-12 -7 -25 -16.5t-23.5 -21.5 t-17 -27t-6.5 -33q0 -38 35 -60t107 -22h222q61 0 114 -14t91.5 -42.5t60.5 -72t22 -103.5q0 -64 -26 -118t-78 -93.5t-129.5 -62t-180.5 -22.5t-174.5 22t-116.5 57.5t-65 80.5t-20 92q0 40 12 73.5t31.5 60.5t45 48t53.5 36q-39 15 -67.5 45t-28.5 83q0 48 29.5 84.5 t74.5 59.5q-62 44 -91 109t-29 137zM286 26q-20 -10 -41.5 -25.5t-39 -37.5t-28.5 -50.5t-11 -64.5q0 -35 14 -68.5t47 -59t87 -41t134 -15.5q87 0 147.5 17.5t98.5 46.5t55 67t17 79q0 75 -51.5 113.5t-158.5 38.5h-270zM680 572q0 58 -19 100.5t-52 71t-77 42.5t-94 14 t-94 -14t-77 -42.5t-52 -71t-19 -100.5t19 -100.5t52 -71t77 -42.5t94 -14t94 14t77 42.5t52 71t19 100.5z" />
<glyph unicode="h" horiz-adv-x="976" d="M170 1324h96v-556q15 22 40 42t58 35.5t73.5 25t86.5 9.5q77 0 133 -22t92 -64t53.5 -103.5t17.5 -140.5v-550h-96v528q0 70 -12 120.5t-39 83t-69 47.5t-102 15q-44 0 -80.5 -9t-66 -23t-52 -32t-37.5 -36v-694h-96v1324z" />
<glyph unicode="i" horiz-adv-x="436" d="M170 860h96v-860h-96v860zM148 1324h140v-142h-140v142z" />
<glyph unicode="j" horiz-adv-x="440" d="M-24 -316q14 -6 35.5 -10t42.5 -4q35 0 58.5 12t37 33.5t19 51.5t5.5 67v1026h96v-1036q0 -55 -11 -99t-36.5 -75.5t-66.5 -48.5t-100 -17q-29 0 -49 5t-31 11v84zM152 1324h140v-142h-140v142z" />
<glyph unicode="k" horiz-adv-x="920" d="M170 1324h96v-902l456 438h118l-332 -322l336 -538h-110l-294 478l-174 -164v-314h-96v1324z" />
<glyph unicode="l" horiz-adv-x="436" d="M170 1324h96v-1324h-96v1324z" />
<glyph unicode="m" horiz-adv-x="1466" d="M170 860h78v-96q21 23 47 44t58 37t70 25.5t83 9.5q91 0 150 -33.5t92 -96.5q22 25 52 48.5t66 41.5t77 29t85 11q73 0 126.5 -22t88 -64t51 -103.5t16.5 -140.5v-550h-96v528q0 70 -11.5 120.5t-36 83t-64 47.5t-94.5 15q-37 0 -71.5 -9.5t-64.5 -25.5t-55 -37.5 t-43 -45.5q8 -29 11 -60t3 -66v-550h-96v528q0 141 -47.5 203.5t-158.5 62.5q-41 0 -75.5 -9t-61.5 -23t-48 -32t-35 -36v-694h-96v860z" />
<glyph unicode="n" horiz-adv-x="976" d="M170 860h78v-98q22 23 50 44.5t62.5 38t75.5 26t88 9.5q77 0 133 -22t92 -64t53.5 -103.5t17.5 -140.5v-550h-96v528q0 70 -12 120.5t-39 83t-69 47.5t-102 15q-44 0 -80.5 -9t-66 -23t-52 -32t-37.5 -36v-694h-96v860z" />
<glyph unicode="o" horiz-adv-x="980" d="M490 66q137 0 207.5 92t70.5 272t-70.5 272t-207.5 92t-207.5 -92t-70.5 -272t70.5 -272t207.5 -92zM490 -20q-66 0 -133 21t-121 72t-88 138t-34 219t34 219t88 138t121 72t133 21t133 -21t121 -72t88 -138t34 -219t-34 -219t-88 -138t-121 -72t-133 -21z" />
<glyph unicode="p" horiz-adv-x="984" d="M170 860h78v-106q19 23 44.5 45.5t58.5 40.5t74 29t91 11q69 0 133 -24t113 -77t78.5 -138t29.5 -207t-29.5 -208.5t-78.5 -141t-113 -79.5t-133 -25q-58 0 -101 14t-73.5 32.5t-49 37.5t-26.5 30v-490h-96v1256zM266 172q41 -47 96.5 -76.5t133.5 -29.5q138 0 207 96.5 t69 267.5t-69 267.5t-207 96.5q-78 0 -133.5 -29.5t-96.5 -76.5v-516z" />
<glyph unicode="q" horiz-adv-x="984" d="M718 94q-8 -11 -26.5 -30t-49 -37.5t-73.5 -32.5t-101 -14q-69 0 -133 24t-113 77t-78.5 138t-29.5 207t29.5 208.5t78.5 141t113 79.5t133 25q49 0 90.5 -11t74.5 -29t58.5 -40.5t44.5 -45.5v106h78v-1256h-96v490zM718 688q-41 47 -96.5 76.5t-133.5 29.5 q-138 0 -207 -96.5t-69 -267.5t69 -267.5t207 -96.5q78 0 133.5 29.5t96.5 76.5v516z" />
<glyph unicode="r" horiz-adv-x="602" d="M170 860h78v-108q33 65 91.5 96.5t136.5 31.5q42 0 69.5 -6.5t36.5 -9.5v-96q-20 9 -52 15.5t-68 6.5q-63 0 -116 -23t-80 -73v-694h-96v860z" />
<glyph unicode="s" horiz-adv-x="894" d="M210 272q3 -57 27 -96.5t61 -64.5t82 -36t90 -11t83 10t65 30t42.5 50t15.5 70q0 42 -17.5 70t-50 48t-78.5 35.5t-104 32.5q-56 16 -105 35t-86.5 46.5t-59 66.5t-21.5 96q0 55 21.5 97t60 70.5t92 43.5t118.5 15q62 0 117 -16t96.5 -49.5t67 -85t29.5 -121.5h-94 q-3 51 -22 86.5t-49 58t-69.5 33t-83.5 10.5q-89 0 -138.5 -37t-49.5 -103q0 -41 19 -67.5t53.5 -45.5t82 -33.5t105.5 -31.5q53 -16 100.5 -34.5t83.5 -46.5t57 -68.5t21 -100.5q0 -116 -79 -182t-225 -66q-69 0 -131 18t-109.5 54t-77.5 91t-34 129h94z" />
<glyph unicode="t" horiz-adv-x="626" d="M204 776h-144v84h74q44 0 64 19t20 61v196h82v-276h258v-84h-258v-548q0 -47 8.5 -78.5t25 -50t41.5 -26t59 -7.5q32 0 63 7.5t51 16.5v-86q-14 -8 -46.5 -16t-77.5 -8q-51 0 -92 12.5t-69.5 40.5t-43.5 72t-15 107v564z" />
<glyph unicode="u" horiz-adv-x="968" d="M156 860h96v-528q0 -71 12 -121t38 -82.5t67.5 -47.5t100.5 -15q43 0 79 9t65 23t51 32t37 36v694h96v-860h-78v98q-21 -23 -48.5 -44.5t-62 -38t-75 -26t-86.5 -9.5q-153 0 -222.5 86t-69.5 244v550z" />
<glyph unicode="v" horiz-adv-x="866" d="M64 860h102l268 -754l268 754h100l-322 -860h-94z" />
<glyph unicode="w" horiz-adv-x="1292" d="M62 860h100l214 -744l218 744h100l222 -744l216 744h98l-268 -860h-96l-222 756l-218 -756h-98z" />
<glyph unicode="x" horiz-adv-x="890" d="M388 454l-296 406h112l240 -336l242 336h108l-294 -402l334 -458h-112l-278 388l-280 -388h-108z" />
<glyph unicode="y" horiz-adv-x="866" d="M50 -316q20 -6 39.5 -10t48.5 -4q36 0 63 8.5t48 29t39 54.5t36 84l60 162l-320 852h102l268 -754l268 754h100l-384 -1026q-23 -61 -46.5 -107.5t-55 -78t-73.5 -48t-101 -16.5q-35 0 -57.5 5t-34.5 11v84z" />
<glyph unicode="z" horiz-adv-x="840" d="M110 76l504 700h-492v84h604v-76l-504 -700h516v-84h-628v76z" />
<glyph unicode="{" horiz-adv-x="566" d="M256 262q0 44 -9 73.5t-27.5 47.5t-46.5 25.5t-65 7.5v76q37 0 65 7.5t46.5 25.5t27.5 47.5t9 73.5v350q0 78 15 130.5t51 84.5t95.5 45.5t148.5 13.5v-80q-60 0 -101.5 -5.5t-67.5 -26.5t-37.5 -62.5t-11.5 -113.5v-350q0 -66 -30.5 -112t-89.5 -66q59 -20 89.5 -66 t30.5 -112v-350q0 -72 11.5 -113.5t37.5 -62.5t67.5 -26.5t101.5 -5.5v-80q-89 0 -148.5 13.5t-95.5 45.5t-51 84.5t-15 130.5v350z" />
<glyph unicode="|" horiz-adv-x="518" d="M216 1264h86v-1620h-86v1620z" />
<glyph unicode="}" horiz-adv-x="566" d="M0 -282q60 0 101.5 5.5t67.5 26.5t37.5 62.5t11.5 113.5v350q0 66 30.5 112t89.5 66q-59 20 -89.5 66t-30.5 112v350q0 72 -11.5 113.5t-37.5 62.5t-67.5 26.5t-101.5 5.5v80q88 0 147.5 -13.5t95.5 -45.5t51.5 -84.5t15.5 -130.5v-350q0 -44 9 -73.5t27.5 -47.5 t46 -25.5t65.5 -7.5v-76q-38 0 -65.5 -7.5t-46 -25.5t-27.5 -47.5t-9 -73.5v-350q0 -78 -15.5 -130.5t-51.5 -84.5t-95.5 -45.5t-147.5 -13.5v80z" />
<glyph unicode="~" d="M156 348q0 127 49.5 187.5t140.5 60.5q35 0 64 -8t53.5 -21.5t45 -30.5t39.5 -34q35 -32 67.5 -56t74.5 -24q20 0 38.5 8t32 26t21.5 48.5t8 75.5h94q0 -127 -49.5 -187.5t-140.5 -60.5q-32 0 -58.5 7t-49 18t-42 25.5t-36.5 29.5q-20 17 -38.5 34t-37.5 30.5t-39 21.5 t-43 8q-20 0 -38.5 -8t-32 -26t-21.5 -48.5t-8 -75.5h-94z" />
<glyph unicode="&#xa1;" horiz-adv-x="552" d="M228 162l34 384h28l34 -384v-418h-96v418zM204 860h144v-146h-144v146z" />
<glyph unicode="&#xa2;" horiz-adv-x="938" d="M830 278q-5 -70 -29 -123.5t-64.5 -91t-95 -58t-119.5 -23.5v-198h-76v200q-60 6 -118.5 30.5t-104.5 76t-74.5 134.5t-28.5 205q0 121 28.5 203.5t74.5 134t104.5 76.5t118.5 32v202h76v-200q65 -3 119.5 -23.5t95 -58t64.5 -91t29 -123.5h-94q-2 41 -15.5 78 t-39.5 65.5t-65.5 46.5t-93.5 22v-730q54 4 93.5 22.5t65.5 47t39.5 66t15.5 78.5h94zM216 430q0 -166 58.5 -256.5t171.5 -105.5v724q-113 -17 -171.5 -107t-58.5 -255z" />
<glyph unicode="&#xa3;" horiz-adv-x="988" d="M152 588h128q-16 28 -32 56.5t-29 59t-21 64.5t-8 72q0 61 23.5 115t67.5 94.5t108 63.5t145 23q63 0 124 -17t109.5 -57.5t79.5 -108.5t35 -171h-96q-4 73 -25 124t-55.5 82.5t-79 45.5t-94.5 14q-56 0 -100.5 -15t-76 -42.5t-48.5 -66t-17 -84.5q0 -32 9 -62.5 t23.5 -62t31.5 -63t34 -64.5h278v-84h-242q9 -27 14.5 -55.5t5.5 -58.5q0 -47 -13 -91.5t-36 -84t-54.5 -72.5t-68.5 -56h634v-86h-772v78q52 30 92 66.5t67 77t41 83t14 85.5q0 30 -6.5 58.5t-17.5 55.5h-172v84z" />
<glyph unicode="&#xa4;" d="M520 298q54 0 98 18.5t75 53t48 82t17 106.5q0 58 -17 106t-48 82.5t-75 53t-98 18.5t-98 -18.5t-75 -53t-48 -82.5t-17 -106q0 -59 17 -106.5t48 -82t75 -53t98 -18.5zM520 224q-57 0 -111 17t-95 47l-118 -122l-58 56l116 126q-35 48 -48.5 99.5t-13.5 110.5 t13.5 110.5t48.5 99.5l-116 126l58 56l118 -122q41 30 95 47t111 17t111 -17t95 -47l118 122l58 -56l-116 -126q35 -48 48.5 -99.5t13.5 -110.5t-13.5 -110.5t-48.5 -99.5l116 -126l-58 -56l-118 122q-41 -30 -95 -47t-111 -17z" />
<glyph unicode="&#xa5;" horiz-adv-x="1030" d="M136 524h288l-364 592h114l342 -574l346 574h108l-366 -592h290v-80h-330v-164h330v-78h-330v-202h-98v202h-330v78h330v164h-330v80z" />
<glyph unicode="&#xa6;" horiz-adv-x="518" d="M216 286h86v-642h-86v642zM216 1264h86v-642h-86v642z" />
<glyph unicode="&#xa7;" horiz-adv-x="954" d="M678 202q33 29 52.5 69t19.5 81q0 20 -6 42t-22 44t-43 44t-69 42l-198 96q-79 38 -134 84q-33 -29 -52.5 -69t-19.5 -81q0 -20 6 -42t22 -44t43 -44t69 -42l198 -96q79 -38 134 -84zM458 -244q-69 0 -129 17.5t-106 53.5t-74.5 90.5t-34.5 128.5h98q2 -44 20.5 -82 t50.5 -66t77.5 -44t101.5 -16q44 0 82.5 10.5t67 31.5t44.5 52.5t16 73.5q0 36 -12 64.5t-35.5 52.5t-58 45.5t-80.5 43.5l-198 96q-30 14 -61 34.5t-56 48.5t-41 65t-16 84q0 68 34 122.5t88 89.5q-29 33 -38.5 72t-9.5 74q0 62 24 107t63.5 74t91 43t107.5 14 q66 0 120 -18t93.5 -52.5t62.5 -84t28 -111.5h-98q-2 39 -16.5 72.5t-41.5 58.5t-65.5 39t-88.5 14q-36 0 -69.5 -8.5t-59.5 -27t-41.5 -48t-15.5 -72.5q0 -36 12 -64.5t35.5 -52.5t58 -45.5t80.5 -43.5l198 -96q30 -14 61 -34.5t56 -48.5t41 -65t16 -84q0 -68 -34 -122.5 t-88 -89.5q29 -33 38.5 -72t9.5 -74q0 -70 -27 -117.5t-70.5 -77t-98.5 -42.5t-112 -13z" />
<glyph unicode="&#xa8;" horiz-adv-x="792" d="M162 1246h132v-134h-132v134zM498 1246h132v-134h-132v134z" />
<glyph unicode="&#xa9;" horiz-adv-x="1360" d="M680 48q107 0 195 37t150.5 104t96.5 161t34 208t-34 208t-96.5 161t-150.5 104t-195 37t-195 -37t-150.5 -104t-96.5 -161t-34 -208t34 -208t96.5 -161t150.5 -104t195 -37zM680 -20q-125 0 -227 41.5t-174.5 117.5t-112.5 182.5t-40 236.5t40 236.5t112.5 182.5 t174.5 117.5t227 41.5q124 0 226.5 -41.5t175 -117.5t112.5 -182.5t40 -236.5t-40 -236.5t-112.5 -182.5t-175 -117.5t-226.5 -41.5zM956 452q-5 -62 -27 -108.5t-58 -78t-84 -47.5t-105 -16q-34 0 -71 6.5t-72.5 22t-67 42t-55.5 66t-38 93.5t-14 126t14 126t38 93.5 t55.5 66t67 42t72 22t71.5 6.5q57 0 105 -16t84 -47.5t58 -78.5t27 -108h-90q-2 34 -13 64.5t-33.5 53.5t-56.5 36.5t-83 13.5q-107 0 -165.5 -68.5t-58.5 -205.5t58.5 -205.5t165.5 -68.5q49 0 83 13.5t56.5 36.5t33.5 53.5t13 64.5h90z" />
<glyph unicode="&#xaa;" horiz-adv-x="718" d="M456 852l-100 -10q-37 -4 -66 -11t-49.5 -19t-31.5 -31t-11 -47q0 -39 24 -61.5t78 -22.5q50 0 87 18.5t69 47.5v136zM466 672q-8 -11 -22 -25.5t-36.5 -27.5t-52.5 -22t-69 -9q-46 0 -78 12.5t-52 33.5t-29 47t-9 53q0 74 60 112.5t170 49.5l108 10v18q0 35 -5 62.5 t-18.5 46t-36.5 28t-60 9.5q-68 0 -101 -31t-33 -85h-70q0 39 13 72.5t39 57.5t65.5 38t92.5 14t90 -14t59.5 -41t32.5 -65t10 -86v-250q0 -20 8 -26t22 -6t26.5 3.5t21.5 6.5v-56q-9 -6 -27.5 -10t-36.5 -4q-44 0 -63 23.5t-19 58.5v2zM136 442h448v-72h-448v72z" />
<glyph unicode="&#xab;" horiz-adv-x="958" d="M150 466l272 300h98l-262 -300l262 -300h-98zM446 466l272 300h98l-262 -300l262 -300h-98z" />
<glyph unicode="&#xac;" d="M130 506h746v-506h-96v418h-650v88z" />
<glyph unicode="&#xad;" horiz-adv-x="724" d="M134 510h456v-90h-456v90z" />
<glyph unicode="&#xae;" horiz-adv-x="956" d="M478 554q85 0 146 26t100 70.5t57.5 104t18.5 127.5q0 67 -18.5 127t-57.5 104.5t-100 70.5t-146 26t-146 -26t-100 -70.5t-57.5 -104.5t-18.5 -127q0 -68 18.5 -127.5t57.5 -104t100 -70.5t146 -26zM324 1116h160q89 0 134.5 -39t45.5 -105q0 -30 -11 -53.5t-29 -40 t-41.5 -26.5t-48.5 -14l142 -184h-84l-132 176h-66v-176h-70v462zM480 890q48 0 79 17.5t31 64.5t-31 64.5t-79 17.5h-86v-164h86zM90 882q0 79 23 149.5t71 123.5t121 84t173 31t173 -31t121 -84t71 -123.5t23 -149.5t-23 -149.5t-71 -123.5t-121 -84t-173 -31t-173 31 t-121 84t-71 123.5t-23 149.5z" />
<glyph unicode="&#xaf;" horiz-adv-x="792" d="M170 1224h452v-84h-452v84z" />
<glyph unicode="&#xb0;" horiz-adv-x="624" d="M482 882q0 42 -12.5 75.5t-35 57.5t-54 36.5t-68.5 12.5q-38 0 -69 -12.5t-53.5 -36.5t-35 -57.5t-12.5 -75.5t12.5 -75.5t35 -57.5t53.5 -36.5t69 -12.5q37 0 68.5 12.5t54 36.5t35 57.5t12.5 75.5zM56 882q0 57 20.5 104t55.5 80t81.5 51.5t98.5 18.5t98.5 -18.5 t81.5 -51.5t55.5 -80t20.5 -104t-20.5 -104t-55.5 -80t-81.5 -51.5t-98.5 -18.5t-98.5 18.5t-81.5 51.5t-55.5 80t-20.5 104z" />
<glyph unicode="&#xb1;" d="M130 620h342v344h96v-344h342v-88h-342v-344h-96v344h-342v88zM132 86h776v-86h-776v86z" />
<glyph unicode="&#xb2;" horiz-adv-x="568" d="M278 1128q44 0 83.5 -11t69.5 -34.5t47.5 -60t17.5 -88.5q0 -41 -13.5 -74t-35.5 -60t-49 -48.5t-54 -39.5l-84 -54q-47 -33 -70.5 -65.5t-23.5 -70.5h338v-76h-436v34q0 50 13 88t34.5 67t48.5 51t56 42l80 54q20 14 39 28t34 31t24 38.5t9 50.5q0 65 -35 95.5t-91 30.5 q-29 0 -55 -7.5t-45.5 -24.5t-30.5 -44t-11 -66h-86q0 55 18.5 95.5t49.5 67t72 39t86 12.5z" />
<glyph unicode="&#xb3;" horiz-adv-x="568" d="M290 1128q43 0 82.5 -11.5t69 -34t47 -56.5t17.5 -80q0 -53 -24.5 -90t-77.5 -60q57 -21 86.5 -65.5t29.5 -106.5q0 -50 -18 -86t-49 -59t-72 -34t-87 -11q-48 0 -91 12t-76 37.5t-52 66t-19 98.5h88q0 -39 12.5 -66t33.5 -43.5t48 -23.5t56 -7q62 0 100 29.5t38 88.5 q0 32 -12 57t-33 41.5t-48.5 25t-58.5 8.5h-44v72h44q62 0 100 25.5t38 84.5q0 57 -37.5 85.5t-96.5 28.5q-28 0 -52.5 -7.5t-42.5 -24t-28.5 -43.5t-10.5 -67h-90q0 55 18.5 96t50 67.5t73 39.5t88.5 13z" />
<glyph unicode="&#xb4;" horiz-adv-x="792" d="M386 1296h136l-178 -234h-58z" />
<glyph unicode="&#xb5;" horiz-adv-x="976" d="M156 860h96v-694q16 -18 38.5 -36t52.5 -32t68 -23t85 -9q65 0 106.5 19t65.5 56.5t33 92.5t9 126v500h96v-532q0 -110 -25 -178t-65.5 -105.5t-92.5 -51t-105 -13.5q-95 0 -161.5 31t-104.5 81v-488h-96v1256z" />
<glyph unicode="&#xb6;" horiz-adv-x="1012" d="M432 488q-74 0 -133.5 19.5t-102 58.5t-65.5 98.5t-23 139.5q0 79 23 138t65.5 97.5t102 57.5t133.5 19h92v-1512h-92v884zM714 1116h92v-1512h-92v1512z" />
<glyph unicode="&#xb7;" horiz-adv-x="586" d="M220 538h146v-146h-146v146z" />
<glyph unicode="&#xb8;" horiz-adv-x="792" d="M312 -244q3 -36 25.5 -50t48.5 -14q35 0 58.5 21.5t23.5 62.5q0 44 -25.5 63t-58.5 19q-27 0 -49.5 -11t-36.5 -31l-46 22l58 162h56l-36 -102q17 12 38 17t44 5q66 0 104 -38.5t38 -103.5q0 -38 -13 -66t-35.5 -47.5t-51.5 -29t-60 -9.5q-66 0 -109.5 32.5t-46.5 97.5 h74z" />
<glyph unicode="&#xb9;" horiz-adv-x="426" d="M278 1116v-670h-86v540q-11 -11 -28.5 -23.5t-41 -23t-52 -17t-62.5 -6.5v76q40 0 72.5 12t57.5 30t42 40t26 42h72z" />
<glyph unicode="&#xba;" horiz-adv-x="720" d="M136 442h448v-72h-448v72zM360 656q80 0 122 53t42 153t-42 153t-122 53t-122 -53t-42 -153t42 -153t122 -53zM360 588q-44 0 -87 13t-77.5 44.5t-56 84t-21.5 132.5q0 79 21.5 132t56 84.5t77.5 44.5t87 13q43 0 86 -13t77.5 -44.5t56.5 -84.5t22 -132q0 -80 -22 -132.5 t-56.5 -84t-77.5 -44.5t-86 -13z" />
<glyph unicode="&#xbb;" horiz-adv-x="958" d="M404 466l-262 300h98l272 -300l-272 -300h-98zM700 466l-262 300h98l272 -300l-272 -300h-98z" />
<glyph unicode="&#xbc;" horiz-adv-x="1260" d="M278 1116v-670h-86v540q-11 -11 -28.5 -23.5t-41 -23t-52 -17t-62.5 -6.5v76q40 0 72.5 12t57.5 30t42 40t26 42h72zM886 1116h88l-688 -1116h-88zM1126 671v-448h92v-72h-92v-150h-86v150h-334v60l338 460h82zM1040 545l-238 -322h238v322z" />
<glyph unicode="&#xbd;" horiz-adv-x="1314" d="M278 1116v-670h-86v540q-11 -11 -28.5 -23.5t-41 -23t-52 -17t-62.5 -6.5v76q40 0 72.5 12t57.5 30t42 40t26 42h72zM886 1116h88l-688 -1116h-88zM1024 683q44 0 83.5 -11t69.5 -34.5t47.5 -60t17.5 -88.5q0 -41 -13.5 -74t-35.5 -60t-49 -48.5t-54 -39.5l-84 -54 q-47 -33 -70.5 -65.5t-23.5 -70.5h338v-76h-436v34q0 50 13 88t34.5 67t48.5 51t56 42l80 54q20 14 39 28t34 31t24 38.5t9 50.5q0 65 -35 95.5t-91 30.5q-29 0 -55 -7.5t-45.5 -24.5t-30.5 -44t-11 -66h-86q0 55 18.5 95.5t49.5 67t72 39t86 12.5z" />
<glyph unicode="&#xbe;" horiz-adv-x="1402" d="M290 1128q43 0 82.5 -11.5t69 -34t47 -56.5t17.5 -80q0 -53 -24.5 -90t-77.5 -60q57 -21 86.5 -65.5t29.5 -106.5q0 -50 -18 -86t-49 -59t-72 -34t-87 -11q-48 0 -91 12t-76 37.5t-52 66t-19 98.5h88q0 -39 12.5 -66t33.5 -43.5t48 -23.5t56 -7q62 0 100 29.5t38 88.5 q0 32 -12 57t-33 41.5t-48.5 25t-58.5 8.5h-44v72h44q62 0 100 25.5t38 84.5q0 57 -37.5 85.5t-96.5 28.5q-28 0 -52.5 -7.5t-42.5 -24t-28.5 -43.5t-10.5 -67h-90q0 55 18.5 96t50 67.5t73 39.5t88.5 13zM1028 1116h88l-688 -1116h-88zM1268 671v-448h92v-72h-92v-150h-86 v150h-334v60l338 460h82zM1182 545l-238 -322h238v322z" />
<glyph unicode="&#xbf;" horiz-adv-x="814" d="M496 714h-144v146h144v-146zM466 538q0 -71 -13 -118t-35.5 -81t-52 -59.5t-61.5 -53.5q-21 -18 -41 -36.5t-35 -41.5t-24.5 -53t-9.5 -71q0 -44 12 -83t38.5 -68.5t68.5 -47t103 -17.5q67 0 112 21t72 56.5t38.5 82t11.5 96.5h96q0 -83 -24.5 -146.5t-68.5 -106.5 t-105.5 -65t-135.5 -22q-83 0 -142.5 25t-98 66.5t-57 95t-18.5 111.5q0 52 13 91.5t35 72t50 59.5t58 53q28 25 51.5 48t41 50t27.5 61t10 81v8h84v-8z" />
<glyph unicode="&#xc0;" horiz-adv-x="1098" d="M496 1116h106l424 -1116h-112l-106 292h-524l-106 -292h-106zM778 378l-230 624l-232 -624h462zM372 1510h136l100 -234h-58z" />
<glyph unicode="&#xc1;" horiz-adv-x="1098" d="M496 1116h106l424 -1116h-112l-106 292h-524l-106 -292h-106zM778 378l-230 624l-232 -624h462zM592 1510h136l-178 -234h-58z" />
<glyph unicode="&#xc2;" horiz-adv-x="1098" d="M496 1116h106l424 -1116h-112l-106 292h-524l-106 -292h-106zM778 378l-230 624l-232 -624h462zM510 1512h80l208 -248h-78l-170 156l-170 -156h-78z" />
<glyph unicode="&#xc3;" horiz-adv-x="1098" d="M496 1116h106l424 -1116h-112l-106 292h-524l-106 -292h-106zM778 378l-230 624l-232 -624h462zM314 1414q18 33 51 54.5t75 21.5q45 0 77 -22t59 -46q23 -20 45 -34t49 -14q35 0 65.5 22t50.5 46v-76q-18 -33 -51 -54.5t-75 -21.5t-72 19.5t-56 42.5q-24 21 -48 37.5 t-54 16.5q-35 0 -65.5 -22t-50.5 -46v76z" />
<glyph unicode="&#xc4;" horiz-adv-x="1098" d="M496 1116h106l424 -1116h-112l-106 292h-524l-106 -292h-106zM778 378l-230 624l-232 -624h462zM316 1460h132v-134h-132v134zM652 1460h132v-134h-132v134z" />
<glyph unicode="&#xc5;" horiz-adv-x="1098" d="M496 1116h106l424 -1116h-112l-106 292h-524l-106 -292h-106zM778 378l-230 624l-232 -624h462zM550 1286q47 0 78.5 30t31.5 84t-31.5 84t-78.5 30t-78.5 -30t-31.5 -84t31.5 -84t78.5 -30zM550 1218q-35 0 -68.5 12.5t-59.5 36.5t-42 57.5t-16 75.5t16 75.5t42 57.5 t59.5 36.5t68.5 12.5t68.5 -12.5t59.5 -36.5t42 -57.5t16 -75.5t-16 -75.5t-42 -57.5t-59.5 -36.5t-68.5 -12.5z" />
<glyph unicode="&#xc6;" horiz-adv-x="1604" d="M712 1116h760v-90h-612v-410h514v-90h-514v-436h612v-90h-714v292h-474l-190 -292h-112zM758 378v648h-6l-414 -648h420z" />
<glyph unicode="&#xc7;" horiz-adv-x="1144" d="M1018 324q-6 -82 -40 -146t-90 -108t-130.5 -67t-161.5 -23q-128 0 -217 44t-145.5 121.5t-82 183t-25.5 229.5t25.5 229.5t82 183t145.5 121.5t217 44q87 0 161.5 -23t130.5 -67t90 -108t40 -146h-100q-5 50 -26.5 96t-61 80.5t-98 55t-136.5 20.5q-111 0 -182 -42 t-112 -110.5t-56.5 -155.5t-15.5 -178t15.5 -178t56.5 -155.5t112 -110.5t182 -42q78 0 136.5 20.5t98 55t61 80.5t26.5 96h100zM528 -244q3 -36 25.5 -50t48.5 -14q35 0 58.5 21.5t23.5 62.5q0 44 -25.5 63t-58.5 19q-27 0 -49.5 -11t-36.5 -31l-46 22l58 162h56l-36 -102 q17 12 38 17t44 5q66 0 104 -38.5t38 -103.5q0 -38 -13 -66t-35.5 -47.5t-51.5 -29t-60 -9.5q-66 0 -109.5 32.5t-46.5 97.5h74z" />
<glyph unicode="&#xc8;" horiz-adv-x="1042" d="M196 1116h714v-90h-612v-410h514v-90h-514v-436h612v-90h-714v1116zM376 1510h136l100 -234h-58z" />
<glyph unicode="&#xc9;" horiz-adv-x="1042" d="M196 1116h714v-90h-612v-410h514v-90h-514v-436h612v-90h-714v1116zM596 1510h136l-178 -234h-58z" />
<glyph unicode="&#xca;" horiz-adv-x="1042" d="M196 1116h714v-90h-612v-410h514v-90h-514v-436h612v-90h-714v1116zM514 1512h80l208 -248h-78l-170 156l-170 -156h-78z" />
<glyph unicode="&#xcb;" horiz-adv-x="1042" d="M196 1116h714v-90h-612v-410h514v-90h-514v-436h612v-90h-714v1116zM320 1460h132v-134h-132v134zM656 1460h132v-134h-132v134z" />
<glyph unicode="&#xcc;" horiz-adv-x="590" d="M106 72h138v974h-138v70h378v-70h-138v-974h138v-72h-378v72zM119 1510h136l100 -234h-58z" />
<glyph unicode="&#xcd;" horiz-adv-x="590" d="M106 72h138v974h-138v70h378v-70h-138v-974h138v-72h-378v72zM339 1510h136l-178 -234h-58z" />
<glyph unicode="&#xce;" horiz-adv-x="590" d="M106 72h138v974h-138v70h378v-70h-138v-974h138v-72h-378v72zM257 1512h80l208 -248h-78l-170 156l-170 -156h-78z" />
<glyph unicode="&#xcf;" horiz-adv-x="590" d="M106 72h138v974h-138v70h378v-70h-138v-974h138v-72h-378v72zM63 1460h132v-134h-132v134zM399 1460h132v-134h-132v134z" />
<glyph unicode="&#xd0;" horiz-adv-x="1176" d="M80 614h126v502h324q135 0 233 -40t162 -113.5t94.5 -176.5t30.5 -228t-30.5 -228t-94.5 -176.5t-162 -113.5t-233 -40h-324v530h-126v84zM538 90q121 0 200 40.5t125.5 106.5t64.5 150t18 171t-18 171t-64.5 150t-125.5 106.5t-200 40.5h-230v-412h268v-84h-268v-440 h230z" />
<glyph unicode="&#xd1;" horiz-adv-x="1206" d="M196 1116h120l598 -982v982h96v-1116h-120l-598 982v-982h-96v1116zM366 1414q18 33 51 54.5t75 21.5q45 0 77 -22t59 -46q23 -20 45 -34t49 -14q35 0 65.5 22t50.5 46v-76q-18 -33 -51 -54.5t-75 -21.5t-72 19.5t-56 42.5q-24 21 -48 37.5t-54 16.5q-35 0 -65.5 -22 t-50.5 -46v76z" />
<glyph unicode="&#xd2;" horiz-adv-x="1220" d="M610 72q112 0 185 42t116.5 110.5t61 155.5t17.5 178t-17.5 178t-61 155.5t-116.5 110.5t-185 42t-185 -42t-116.5 -110.5t-61 -155.5t-17.5 -178t17.5 -178t61 -155.5t116.5 -110.5t185 -42zM610 -20q-122 0 -213 41.5t-151 117.5t-90 182.5t-30 236.5t30 236.5 t90 182.5t151 117.5t213 41.5t213 -41.5t151 -117.5t90 -182.5t30 -236.5t-30 -236.5t-90 -182.5t-151 -117.5t-213 -41.5zM432 1510h136l100 -234h-58z" />
<glyph unicode="&#xd3;" horiz-adv-x="1220" d="M610 72q112 0 185 42t116.5 110.5t61 155.5t17.5 178t-17.5 178t-61 155.5t-116.5 110.5t-185 42t-185 -42t-116.5 -110.5t-61 -155.5t-17.5 -178t17.5 -178t61 -155.5t116.5 -110.5t185 -42zM610 -20q-122 0 -213 41.5t-151 117.5t-90 182.5t-30 236.5t30 236.5 t90 182.5t151 117.5t213 41.5t213 -41.5t151 -117.5t90 -182.5t30 -236.5t-30 -236.5t-90 -182.5t-151 -117.5t-213 -41.5zM652 1510h136l-178 -234h-58z" />
<glyph unicode="&#xd4;" horiz-adv-x="1220" d="M610 72q112 0 185 42t116.5 110.5t61 155.5t17.5 178t-17.5 178t-61 155.5t-116.5 110.5t-185 42t-185 -42t-116.5 -110.5t-61 -155.5t-17.5 -178t17.5 -178t61 -155.5t116.5 -110.5t185 -42zM610 -20q-122 0 -213 41.5t-151 117.5t-90 182.5t-30 236.5t30 236.5 t90 182.5t151 117.5t213 41.5t213 -41.5t151 -117.5t90 -182.5t30 -236.5t-30 -236.5t-90 -182.5t-151 -117.5t-213 -41.5zM570 1512h80l208 -248h-78l-170 156l-170 -156h-78z" />
<glyph unicode="&#xd5;" horiz-adv-x="1220" d="M610 72q112 0 185 42t116.5 110.5t61 155.5t17.5 178t-17.5 178t-61 155.5t-116.5 110.5t-185 42t-185 -42t-116.5 -110.5t-61 -155.5t-17.5 -178t17.5 -178t61 -155.5t116.5 -110.5t185 -42zM610 -20q-122 0 -213 41.5t-151 117.5t-90 182.5t-30 236.5t30 236.5 t90 182.5t151 117.5t213 41.5t213 -41.5t151 -117.5t90 -182.5t30 -236.5t-30 -236.5t-90 -182.5t-151 -117.5t-213 -41.5zM374 1414q18 33 51 54.5t75 21.5q45 0 77 -22t59 -46q23 -20 45 -34t49 -14q35 0 65.5 22t50.5 46v-76q-18 -33 -51 -54.5t-75 -21.5t-72 19.5 t-56 42.5q-24 21 -48 37.5t-54 16.5q-35 0 -65.5 -22t-50.5 -46v76z" />
<glyph unicode="&#xd6;" horiz-adv-x="1220" d="M610 72q112 0 185 42t116.5 110.5t61 155.5t17.5 178t-17.5 178t-61 155.5t-116.5 110.5t-185 42t-185 -42t-116.5 -110.5t-61 -155.5t-17.5 -178t17.5 -178t61 -155.5t116.5 -110.5t185 -42zM610 -20q-122 0 -213 41.5t-151 117.5t-90 182.5t-30 236.5t30 236.5 t90 182.5t151 117.5t213 41.5t213 -41.5t151 -117.5t90 -182.5t30 -236.5t-30 -236.5t-90 -182.5t-151 -117.5t-213 -41.5zM376 1460h132v-134h-132v134zM712 1460h132v-134h-132v134z" />
<glyph unicode="&#xd7;" d="M456 462l-270 272l64 64l270 -272l272 270l64 -64l-272 -270l270 -272l-64 -64l-270 272l-272 -270l-64 64z" />
<glyph unicode="&#xd8;" horiz-adv-x="1228" d="M52 -28l172 202q-48 74 -71 171t-23 213q0 130 30 236.5t90 182.5t151 117.5t213 41.5q107 0 190 -33t142 -93l164 190l66 -56l-174 -202q48 -74 72 -171t24 -213q0 -130 -30 -236.5t-90 -182.5t-151 -117.5t-213 -41.5q-109 0 -191.5 32t-142.5 92l-162 -188zM234 558 q0 -83 13.5 -161t48.5 -143l586 680q-44 51 -109 80.5t-159 29.5q-112 0 -185 -42t-116.5 -110.5t-61 -155.5t-17.5 -178zM614 72q112 0 185 42t116.5 110.5t61 155.5t17.5 178q0 81 -14.5 159.5t-47.5 144.5l-588 -682q45 -50 110.5 -79t159.5 -29z" />
<glyph unicode="&#xd9;" horiz-adv-x="1164" d="M176 1116h102v-712q0 -92 18 -155.5t55.5 -102.5t95 -56.5t135.5 -17.5t135 17.5t94.5 56.5t56 102.5t18.5 155.5v712h102v-730q0 -104 -27 -180.5t-78.5 -126.5t-127.5 -74.5t-173 -24.5q-98 0 -173.5 24.5t-127 74.5t-78.5 126.5t-27 180.5v730zM404 1510h136l100 -234 h-58z" />
<glyph unicode="&#xda;" horiz-adv-x="1164" d="M176 1116h102v-712q0 -92 18 -155.5t55.5 -102.5t95 -56.5t135.5 -17.5t135 17.5t94.5 56.5t56 102.5t18.5 155.5v712h102v-730q0 -104 -27 -180.5t-78.5 -126.5t-127.5 -74.5t-173 -24.5q-98 0 -173.5 24.5t-127 74.5t-78.5 126.5t-27 180.5v730zM624 1510h136 l-178 -234h-58z" />
<glyph unicode="&#xdb;" horiz-adv-x="1164" d="M176 1116h102v-712q0 -92 18 -155.5t55.5 -102.5t95 -56.5t135.5 -17.5t135 17.5t94.5 56.5t56 102.5t18.5 155.5v712h102v-730q0 -104 -27 -180.5t-78.5 -126.5t-127.5 -74.5t-173 -24.5q-98 0 -173.5 24.5t-127 74.5t-78.5 126.5t-27 180.5v730zM542 1512h80l208 -248 h-78l-170 156l-170 -156h-78z" />
<glyph unicode="&#xdc;" horiz-adv-x="1164" d="M176 1116h102v-712q0 -92 18 -155.5t55.5 -102.5t95 -56.5t135.5 -17.5t135 17.5t94.5 56.5t56 102.5t18.5 155.5v712h102v-730q0 -104 -27 -180.5t-78.5 -126.5t-127.5 -74.5t-173 -24.5q-98 0 -173.5 24.5t-127 74.5t-78.5 126.5t-27 180.5v730zM348 1460h132v-134 h-132v134zM684 1460h132v-134h-132v134z" />
<glyph unicode="&#xdd;" horiz-adv-x="994" d="M446 458l-404 658h118l338 -568l342 568h112l-404 -658v-458h-102v458zM538 1510h136l-178 -234h-58z" />
<glyph unicode="&#xde;" d="M196 1116h102v-202h224q207 0 312.5 -83t105.5 -251q0 -166 -105.5 -250t-312.5 -84h-224v-246h-102v1116zM516 336q93 0 155 15.5t99 46.5t52.5 76.5t15.5 105.5t-15.5 105.5t-52.5 76.5t-99 46.5t-155 15.5h-218v-488h218z" />
<glyph unicode="&#xdf;" horiz-adv-x="976" d="M170 998q0 101 27.5 168t71.5 106.5t98.5 55.5t108.5 16q70 0 122 -22t86.5 -61.5t52 -94t17.5 -118.5q0 -65 -17 -123.5t-47 -109t-71.5 -91.5t-90.5 -70q34 -11 74.5 -28t81.5 -42t80 -58t68.5 -74.5t47.5 -92.5t18 -111q0 -59 -17.5 -108.5t-53.5 -85t-92.5 -55 t-134.5 -19.5q-54 0 -101.5 10t-74.5 24v94q29 -15 78 -28.5t102 -13.5q92 0 144 45t52 137q0 68 -26 122t-75 97t-118.5 77.5t-156.5 63.5v72q76 37 122 86t70.5 99t32 97t7.5 82q0 102 -46 160t-142 58t-149 -65.5t-53 -210.5v-986h-96v998z" />
<glyph unicode="&#xe0;" horiz-adv-x="912" d="M646 410l-188 -18q-86 -8 -138 -25t-84 -49q-40 -40 -40 -102q0 -34 10.5 -62t32 -48t54.5 -31t79 -11q90 0 155 29t119 79v238zM660 110q-17 -23 -44.5 -46.5t-64 -42t-81 -30t-96.5 -11.5q-69 0 -120.5 17t-85.5 48.5t-51 74.5t-17 96q0 48 15.5 84.5t44.5 65.5 q45 45 113 67.5t153 30.5l220 18v54q0 61 -8.5 109t-31 81.5t-62 51.5t-102.5 18t-105 -17t-67 -46t-35.5 -67.5t-10.5 -81.5h-94q0 65 19.5 119.5t59 93.5t98.5 61t139 22q82 0 138.5 -22t91.5 -64.5t50.5 -105t15.5 -142.5v-418q0 -39 15.5 -52.5t42.5 -13.5q41 0 80 18 v-78q-15 -8 -43.5 -15t-58.5 -7q-34 0 -56.5 10t-36 26.5t-19.5 37.5t-6 42v14zM267 1296h136l100 -234h-58z" />
<glyph unicode="&#xe1;" horiz-adv-x="912" d="M646 410l-188 -18q-86 -8 -138 -25t-84 -49q-40 -40 -40 -102q0 -34 10.5 -62t32 -48t54.5 -31t79 -11q90 0 155 29t119 79v238zM660 110q-17 -23 -44.5 -46.5t-64 -42t-81 -30t-96.5 -11.5q-69 0 -120.5 17t-85.5 48.5t-51 74.5t-17 96q0 48 15.5 84.5t44.5 65.5 q45 45 113 67.5t153 30.5l220 18v54q0 61 -8.5 109t-31 81.5t-62 51.5t-102.5 18t-105 -17t-67 -46t-35.5 -67.5t-10.5 -81.5h-94q0 65 19.5 119.5t59 93.5t98.5 61t139 22q82 0 138.5 -22t91.5 -64.5t50.5 -105t15.5 -142.5v-418q0 -39 15.5 -52.5t42.5 -13.5q41 0 80 18 v-78q-15 -8 -43.5 -15t-58.5 -7q-34 0 -56.5 10t-36 26.5t-19.5 37.5t-6 42v14zM486 1296h136l-178 -234h-58z" />
<glyph unicode="&#xe2;" horiz-adv-x="912" d="M646 410l-188 -18q-86 -8 -138 -25t-84 -49q-40 -40 -40 -102q0 -34 10.5 -62t32 -48t54.5 -31t79 -11q90 0 155 29t119 79v238zM660 110q-17 -23 -44.5 -46.5t-64 -42t-81 -30t-96.5 -11.5q-69 0 -120.5 17t-85.5 48.5t-51 74.5t-17 96q0 48 15.5 84.5t44.5 65.5 q45 45 113 67.5t153 30.5l220 18v54q0 61 -8.5 109t-31 81.5t-62 51.5t-102.5 18t-105 -17t-67 -46t-35.5 -67.5t-10.5 -81.5h-94q0 65 19.5 119.5t59 93.5t98.5 61t139 22q82 0 138.5 -22t91.5 -64.5t50.5 -105t15.5 -142.5v-418q0 -39 15.5 -52.5t42.5 -13.5q41 0 80 18 v-78q-15 -8 -43.5 -15t-58.5 -7q-34 0 -56.5 10t-36 26.5t-19.5 37.5t-6 42v14zM404 1298h80l208 -248h-78l-170 156l-170 -156h-78z" />
<glyph unicode="&#xe3;" horiz-adv-x="912" d="M646 410l-188 -18q-86 -8 -138 -25t-84 -49q-40 -40 -40 -102q0 -34 10.5 -62t32 -48t54.5 -31t79 -11q90 0 155 29t119 79v238zM660 110q-17 -23 -44.5 -46.5t-64 -42t-81 -30t-96.5 -11.5q-69 0 -120.5 17t-85.5 48.5t-51 74.5t-17 96q0 48 15.5 84.5t44.5 65.5 q45 45 113 67.5t153 30.5l220 18v54q0 61 -8.5 109t-31 81.5t-62 51.5t-102.5 18t-105 -17t-67 -46t-35.5 -67.5t-10.5 -81.5h-94q0 65 19.5 119.5t59 93.5t98.5 61t139 22q82 0 138.5 -22t91.5 -64.5t50.5 -105t15.5 -142.5v-418q0 -39 15.5 -52.5t42.5 -13.5q41 0 80 18 v-78q-15 -8 -43.5 -15t-58.5 -7q-34 0 -56.5 10t-36 26.5t-19.5 37.5t-6 42v14zM208 1200q18 33 51 54.5t75 21.5q45 0 77 -22t59 -46q23 -20 45 -34t49 -14q35 0 65.5 22t50.5 46v-76q-18 -33 -51 -54.5t-75 -21.5t-72 19.5t-56 42.5q-24 21 -48 37.5t-54 16.5 q-35 0 -65.5 -22t-50.5 -46v76z" />
<glyph unicode="&#xe4;" horiz-adv-x="912" d="M646 410l-188 -18q-86 -8 -138 -25t-84 -49q-40 -40 -40 -102q0 -34 10.5 -62t32 -48t54.5 -31t79 -11q90 0 155 29t119 79v238zM660 110q-17 -23 -44.5 -46.5t-64 -42t-81 -30t-96.5 -11.5q-69 0 -120.5 17t-85.5 48.5t-51 74.5t-17 96q0 48 15.5 84.5t44.5 65.5 q45 45 113 67.5t153 30.5l220 18v54q0 61 -8.5 109t-31 81.5t-62 51.5t-102.5 18t-105 -17t-67 -46t-35.5 -67.5t-10.5 -81.5h-94q0 65 19.5 119.5t59 93.5t98.5 61t139 22q82 0 138.5 -22t91.5 -64.5t50.5 -105t15.5 -142.5v-418q0 -39 15.5 -52.5t42.5 -13.5q41 0 80 18 v-78q-15 -8 -43.5 -15t-58.5 -7q-34 0 -56.5 10t-36 26.5t-19.5 37.5t-6 42v14zM210 1246h132v-134h-132v134zM546 1246h132v-134h-132v134z" />
<glyph unicode="&#xe5;" horiz-adv-x="912" d="M646 410l-188 -18q-86 -8 -138 -25t-84 -49q-40 -40 -40 -102q0 -34 10.5 -62t32 -48t54.5 -31t79 -11q90 0 155 29t119 79v238zM660 110q-17 -23 -44.5 -46.5t-64 -42t-81 -30t-96.5 -11.5q-69 0 -120.5 17t-85.5 48.5t-51 74.5t-17 96q0 48 15.5 84.5t44.5 65.5 q45 45 113 67.5t153 30.5l220 18v54q0 61 -8.5 109t-31 81.5t-62 51.5t-102.5 18t-105 -17t-67 -46t-35.5 -67.5t-10.5 -81.5h-94q0 65 19.5 119.5t59 93.5t98.5 61t139 22q82 0 138.5 -22t91.5 -64.5t50.5 -105t15.5 -142.5v-418q0 -39 15.5 -52.5t42.5 -13.5q41 0 80 18 v-78q-15 -8 -43.5 -15t-58.5 -7q-34 0 -56.5 10t-36 26.5t-19.5 37.5t-6 42v14zM444 1072q47 0 78.5 30t31.5 84t-31.5 84t-78.5 30t-78.5 -30t-31.5 -84t31.5 -84t78.5 -30zM444 1004q-35 0 -68.5 12.5t-59.5 36.5t-42 57.5t-16 75.5t16 75.5t42 57.5t59.5 36.5t68.5 12.5 t68.5 -12.5t59.5 -36.5t42 -57.5t16 -75.5t-16 -75.5t-42 -57.5t-59.5 -36.5t-68.5 -12.5z" />
<glyph unicode="&#xe6;" horiz-adv-x="1482" d="M130 584q0 65 19.5 119.5t59 93.5t98.5 61t139 22q116 0 180 -44.5t88 -129.5q25 48 58 81t71.5 54t80.5 30t86 9q64 0 128.5 -22t116.5 -74t84.5 -137.5t32.5 -212.5v-18h-628q3 -169 71 -259.5t205 -90.5q109 0 171 55t79 155h94q-11 -87 -46.5 -144t-84.5 -91 t-106 -47.5t-109 -13.5q-88 0 -164.5 33.5t-129.5 110.5q-28 -28 -66 -54t-83.5 -46t-96.5 -32t-104 -12q-69 0 -120.5 17t-85.5 48.5t-51 74.5t-17 96q0 48 15.5 84.5t44.5 65.5q45 45 113 67.5t153 30.5l220 18v54q0 61 -8.5 109t-31 81.5t-62 51.5t-102.5 18t-105 -17 t-67 -46t-35.5 -67.5t-10.5 -81.5h-94zM372 64q47 0 93 11.5t86.5 29.5t75 41.5t59.5 47.5q-18 44 -28 97.5t-12 118.5l-190 -18q-85 -8 -136.5 -25t-83.5 -49q-40 -40 -40 -102q0 -34 10.5 -62t32 -48t54.5 -31t79 -11zM1276 492q-5 68 -24.5 124t-52.5 96t-80.5 62 t-108.5 22q-62 0 -108.5 -22t-79.5 -62t-52 -96t-24 -124h530z" />
<glyph unicode="&#xe7;" horiz-adv-x="928" d="M820 278q-5 -73 -29.5 -128.5t-66 -93t-98.5 -57t-126 -19.5q-65 0 -132 19.5t-122.5 70t-90.5 137.5t-35 223t35 223t90.5 137.5t122.5 70t132 19.5q69 0 126 -19.5t98.5 -57t66 -93t29.5 -128.5h-94q-2 43 -16 82t-41.5 67.5t-70 45.5t-102.5 17q-136 0 -207 -90.5 t-71 -273.5t71 -273.5t207 -90.5q60 0 102.5 17t70 45.5t41.5 67t16 82.5h94zM440 -244q3 -36 25.5 -50t48.5 -14q35 0 58.5 21.5t23.5 62.5q0 44 -25.5 63t-58.5 19q-27 0 -49.5 -11t-36.5 -31l-46 22l58 162h56l-36 -102q17 12 38 17t44 5q66 0 104 -38.5t38 -103.5 q0 -38 -13 -66t-35.5 -47.5t-51.5 -29t-60 -9.5q-66 0 -109.5 32.5t-46.5 97.5h74z" />
<glyph unicode="&#xe8;" horiz-adv-x="950" d="M744 492q-5 68 -24.5 124t-52.5 96t-80.5 62t-108.5 22q-62 0 -108.5 -22t-79.5 -62t-52 -96t-24 -124h530zM832 276q-11 -87 -46.5 -144t-84.5 -91t-106 -47.5t-109 -13.5q-74 0 -141 24.5t-118.5 78.5t-82 139.5t-30.5 207.5q0 127 32.5 213.5t85 139t117 75 t129.5 22.5q64 0 128.5 -22t116.5 -74t84.5 -137.5t32.5 -212.5v-18h-628q3 -169 71 -259.5t205 -90.5q109 0 171 55t79 155h94zM298 1296h136l100 -234h-58z" />
<glyph unicode="&#xe9;" horiz-adv-x="950" d="M744 492q-5 68 -24.5 124t-52.5 96t-80.5 62t-108.5 22q-62 0 -108.5 -22t-79.5 -62t-52 -96t-24 -124h530zM832 276q-11 -87 -46.5 -144t-84.5 -91t-106 -47.5t-109 -13.5q-74 0 -141 24.5t-118.5 78.5t-82 139.5t-30.5 207.5q0 127 32.5 213.5t85 139t117 75 t129.5 22.5q64 0 128.5 -22t116.5 -74t84.5 -137.5t32.5 -212.5v-18h-628q3 -169 71 -259.5t205 -90.5q109 0 171 55t79 155h94zM518 1296h136l-178 -234h-58z" />
<glyph unicode="&#xea;" horiz-adv-x="950" d="M744 492q-5 68 -24.5 124t-52.5 96t-80.5 62t-108.5 22q-62 0 -108.5 -22t-79.5 -62t-52 -96t-24 -124h530zM832 276q-11 -87 -46.5 -144t-84.5 -91t-106 -47.5t-109 -13.5q-74 0 -141 24.5t-118.5 78.5t-82 139.5t-30.5 207.5q0 127 32.5 213.5t85 139t117 75 t129.5 22.5q64 0 128.5 -22t116.5 -74t84.5 -137.5t32.5 -212.5v-18h-628q3 -169 71 -259.5t205 -90.5q109 0 171 55t79 155h94zM436 1298h80l208 -248h-78l-170 156l-170 -156h-78z" />
<glyph unicode="&#xeb;" horiz-adv-x="950" d="M744 492q-5 68 -24.5 124t-52.5 96t-80.5 62t-108.5 22q-62 0 -108.5 -22t-79.5 -62t-52 -96t-24 -124h530zM832 276q-11 -87 -46.5 -144t-84.5 -91t-106 -47.5t-109 -13.5q-74 0 -141 24.5t-118.5 78.5t-82 139.5t-30.5 207.5q0 127 32.5 213.5t85 139t117 75 t129.5 22.5q64 0 128.5 -22t116.5 -74t84.5 -137.5t32.5 -212.5v-18h-628q3 -169 71 -259.5t205 -90.5q109 0 171 55t79 155h94zM242 1246h132v-134h-132v134zM578 1246h132v-134h-132v134z" />
<glyph unicode="&#xec;" horiz-adv-x="436" d="M170 860h96v-860h-96v860zM41 1296h136l100 -234h-58z" />
<glyph unicode="&#xed;" horiz-adv-x="436" d="M170 860h96v-860h-96v860zM261 1296h136l-178 -234h-58z" />
<glyph unicode="&#xee;" horiz-adv-x="436" d="M170 860h96v-860h-96v860zM179 1298h80l208 -248h-78l-170 156l-170 -156h-78z" />
<glyph unicode="&#xef;" horiz-adv-x="436" d="M170 860h96v-860h-96v860zM-15 1246h132v-134h-132v134zM321 1246h132v-134h-132v134z" />
<glyph unicode="&#xf0;" horiz-adv-x="980" d="M346 1094l180 50l-82 180h100l70 -156l214 58v-78l-182 -52l114 -256q27 -61 47 -114t33 -103t19.5 -98.5t6.5 -100.5q0 -127 -34 -212t-88.5 -136.5t-122.5 -73.5t-135 -22q-65 0 -131 21t-119.5 72t-87.5 138t-34 219t34 219t88 138t121.5 72t134.5 21 q60 0 103.5 -15.5t82.5 -48.5l-118 256l-214 -58v80zM490 66q137 0 207.5 92t70.5 272t-70.5 272t-207.5 92t-207.5 -92t-70.5 -272t70.5 -272t207.5 -92z" />
<glyph unicode="&#xf1;" horiz-adv-x="976" d="M170 860h78v-98q22 23 50 44.5t62.5 38t75.5 26t88 9.5q77 0 133 -22t92 -64t53.5 -103.5t17.5 -140.5v-550h-96v528q0 70 -12 120.5t-39 83t-69 47.5t-102 15q-44 0 -80.5 -9t-66 -23t-52 -32t-37.5 -36v-694h-96v860zM262 1200q18 33 51 54.5t75 21.5q45 0 77 -22 t59 -46q23 -20 45 -34t49 -14q35 0 65.5 22t50.5 46v-76q-18 -33 -51 -54.5t-75 -21.5t-72 19.5t-56 42.5q-24 21 -48 37.5t-54 16.5q-35 0 -65.5 -22t-50.5 -46v76z" />
<glyph unicode="&#xf2;" horiz-adv-x="980" d="M490 66q137 0 207.5 92t70.5 272t-70.5 272t-207.5 92t-207.5 -92t-70.5 -272t70.5 -272t207.5 -92zM490 -20q-66 0 -133 21t-121 72t-88 138t-34 219t34 219t88 138t121 72t133 21t133 -21t121 -72t88 -138t34 -219t-34 -219t-88 -138t-121 -72t-133 -21zM312 1296h136 l100 -234h-58z" />
<glyph unicode="&#xf3;" horiz-adv-x="980" d="M490 66q137 0 207.5 92t70.5 272t-70.5 272t-207.5 92t-207.5 -92t-70.5 -272t70.5 -272t207.5 -92zM490 -20q-66 0 -133 21t-121 72t-88 138t-34 219t34 219t88 138t121 72t133 21t133 -21t121 -72t88 -138t34 -219t-34 -219t-88 -138t-121 -72t-133 -21zM532 1296h136 l-178 -234h-58z" />
<glyph unicode="&#xf4;" horiz-adv-x="980" d="M490 66q137 0 207.5 92t70.5 272t-70.5 272t-207.5 92t-207.5 -92t-70.5 -272t70.5 -272t207.5 -92zM490 -20q-66 0 -133 21t-121 72t-88 138t-34 219t34 219t88 138t121 72t133 21t133 -21t121 -72t88 -138t34 -219t-34 -219t-88 -138t-121 -72t-133 -21zM450 1298h80 l208 -248h-78l-170 156l-170 -156h-78z" />
<glyph unicode="&#xf5;" horiz-adv-x="980" d="M490 66q137 0 207.5 92t70.5 272t-70.5 272t-207.5 92t-207.5 -92t-70.5 -272t70.5 -272t207.5 -92zM490 -20q-66 0 -133 21t-121 72t-88 138t-34 219t34 219t88 138t121 72t133 21t133 -21t121 -72t88 -138t34 -219t-34 -219t-88 -138t-121 -72t-133 -21zM254 1200 q18 33 51 54.5t75 21.5q45 0 77 -22t59 -46q23 -20 45 -34t49 -14q35 0 65.5 22t50.5 46v-76q-18 -33 -51 -54.5t-75 -21.5t-72 19.5t-56 42.5q-24 21 -48 37.5t-54 16.5q-35 0 -65.5 -22t-50.5 -46v76z" />
<glyph unicode="&#xf6;" horiz-adv-x="980" d="M490 66q137 0 207.5 92t70.5 272t-70.5 272t-207.5 92t-207.5 -92t-70.5 -272t70.5 -272t207.5 -92zM490 -20q-66 0 -133 21t-121 72t-88 138t-34 219t34 219t88 138t121 72t133 21t133 -21t121 -72t88 -138t34 -219t-34 -219t-88 -138t-121 -72t-133 -21zM256 1246h132 v-134h-132v134zM592 1246h132v-134h-132v134z" />
<glyph unicode="&#xf7;" d="M448 228h144v-142h-144v142zM448 838h144v-142h-144v142zM130 506h780v-88h-780v88z" />
<glyph unicode="&#xf8;" horiz-adv-x="988" d="M42 -28l144 166q-32 51 -50 123t-18 169q0 132 34 219t88 138t121 72t133 21t133 -21.5t121 -72.5l138 158l60 -54l-146 -168q32 -51 51 -123t19 -169q0 -132 -34 -219t-88 -138t-121 -72t-133 -21q-33 0 -67 5t-67 16t-64 29t-58 44l-136 -156zM494 66q137 0 207.5 92 t70.5 272q0 130 -40 216l-434 -502q69 -78 196 -78zM216 430q0 -134 38 -216l434 502q-35 38 -83.5 58t-110.5 20q-137 0 -207.5 -92t-70.5 -272z" />
<glyph unicode="&#xf9;" horiz-adv-x="968" d="M156 860h96v-528q0 -71 12 -121t38 -82.5t67.5 -47.5t100.5 -15q43 0 79 9t65 23t51 32t37 36v694h96v-860h-78v98q-21 -23 -48.5 -44.5t-62 -38t-75 -26t-86.5 -9.5q-153 0 -222.5 86t-69.5 244v550zM298 1296h136l100 -234h-58z" />
<glyph unicode="&#xfa;" horiz-adv-x="968" d="M156 860h96v-528q0 -71 12 -121t38 -82.5t67.5 -47.5t100.5 -15q43 0 79 9t65 23t51 32t37 36v694h96v-860h-78v98q-21 -23 -48.5 -44.5t-62 -38t-75 -26t-86.5 -9.5q-153 0 -222.5 86t-69.5 244v550zM518 1296h136l-178 -234h-58z" />
<glyph unicode="&#xfb;" horiz-adv-x="968" d="M156 860h96v-528q0 -71 12 -121t38 -82.5t67.5 -47.5t100.5 -15q43 0 79 9t65 23t51 32t37 36v694h96v-860h-78v98q-21 -23 -48.5 -44.5t-62 -38t-75 -26t-86.5 -9.5q-153 0 -222.5 86t-69.5 244v550zM436 1298h80l208 -248h-78l-170 156l-170 -156h-78z" />
<glyph unicode="&#xfc;" horiz-adv-x="968" d="M156 860h96v-528q0 -71 12 -121t38 -82.5t67.5 -47.5t100.5 -15q43 0 79 9t65 23t51 32t37 36v694h96v-860h-78v98q-21 -23 -48.5 -44.5t-62 -38t-75 -26t-86.5 -9.5q-153 0 -222.5 86t-69.5 244v550zM242 1246h132v-134h-132v134zM578 1246h132v-134h-132v134z" />
<glyph unicode="&#xfd;" horiz-adv-x="866" d="M50 -316q20 -6 39.5 -10t48.5 -4q36 0 63 8.5t48 29t39 54.5t36 84l60 162l-320 852h102l268 -754l268 754h100l-384 -1026q-23 -61 -46.5 -107.5t-55 -78t-73.5 -48t-101 -16.5q-35 0 -57.5 5t-34.5 11v84zM476 1296h136l-178 -234h-58z" />
<glyph unicode="&#xfe;" horiz-adv-x="984" d="M170 1324h96v-558q8 10 26.5 29.5t49 38t73.5 32.5t101 14q69 0 133 -24t113 -77t78.5 -138t29.5 -207t-29.5 -208.5t-78.5 -141t-113 -79.5t-133 -25q-58 0 -101 14t-73.5 32.5t-49 37.5t-26.5 30v-490h-96v1720zM266 172q41 -47 96.5 -76.5t133.5 -29.5q138 0 207 96.5 t69 267.5t-69 267.5t-207 96.5q-78 0 -133.5 -29.5t-96.5 -76.5v-516z" />
<glyph unicode="&#xff;" horiz-adv-x="866" d="M50 -316q20 -6 39.5 -10t48.5 -4q36 0 63 8.5t48 29t39 54.5t36 84l60 162l-320 852h102l268 -754l268 754h100l-384 -1026q-23 -61 -46.5 -107.5t-55 -78t-73.5 -48t-101 -16.5q-35 0 -57.5 5t-34.5 11v84zM200 1246h132v-134h-132v134zM536 1246h132v-134h-132v134z " />
<glyph unicode="&#x100;" horiz-adv-x="1098" d="M496 1116h106l424 -1116h-112l-106 292h-524l-106 -292h-106zM778 378l-230 624l-232 -624h462zM324 1438h452v-84h-452v84z" />
<glyph unicode="&#x101;" horiz-adv-x="912" d="M646 410l-188 -18q-86 -8 -138 -25t-84 -49q-40 -40 -40 -102q0 -34 10.5 -62t32 -48t54.5 -31t79 -11q90 0 155 29t119 79v238zM660 110q-17 -23 -44.5 -46.5t-64 -42t-81 -30t-96.5 -11.5q-69 0 -120.5 17t-85.5 48.5t-51 74.5t-17 96q0 48 15.5 84.5t44.5 65.5 q45 45 113 67.5t153 30.5l220 18v54q0 61 -8.5 109t-31 81.5t-62 51.5t-102.5 18t-105 -17t-67 -46t-35.5 -67.5t-10.5 -81.5h-94q0 65 19.5 119.5t59 93.5t98.5 61t139 22q82 0 138.5 -22t91.5 -64.5t50.5 -105t15.5 -142.5v-418q0 -39 15.5 -52.5t42.5 -13.5q41 0 80 18 v-78q-15 -8 -43.5 -15t-58.5 -7q-34 0 -56.5 10t-36 26.5t-19.5 37.5t-6 42v14zM218 1224h452v-84h-452v84z" />
<glyph unicode="&#x102;" horiz-adv-x="1098" d="M496 1116h106l424 -1116h-112l-106 292h-524l-106 -292h-106zM778 378l-230 624l-232 -624h462zM550 1258q-63 0 -105.5 20.5t-68 56.5t-36 83.5t-10.5 101.5h70q0 -89 39.5 -136.5t110.5 -47.5t110.5 47.5t39.5 136.5h70q0 -54 -11 -101.5t-36.5 -83.5t-67.5 -56.5 t-105 -20.5z" />
<glyph unicode="&#x103;" horiz-adv-x="912" d="M646 410l-188 -18q-86 -8 -138 -25t-84 -49q-40 -40 -40 -102q0 -34 10.5 -62t32 -48t54.5 -31t79 -11q90 0 155 29t119 79v238zM660 110q-17 -23 -44.5 -46.5t-64 -42t-81 -30t-96.5 -11.5q-69 0 -120.5 17t-85.5 48.5t-51 74.5t-17 96q0 48 15.5 84.5t44.5 65.5 q45 45 113 67.5t153 30.5l220 18v54q0 61 -8.5 109t-31 81.5t-62 51.5t-102.5 18t-105 -17t-67 -46t-35.5 -67.5t-10.5 -81.5h-94q0 65 19.5 119.5t59 93.5t98.5 61t139 22q82 0 138.5 -22t91.5 -64.5t50.5 -105t15.5 -142.5v-418q0 -39 15.5 -52.5t42.5 -13.5q41 0 80 18 v-78q-15 -8 -43.5 -15t-58.5 -7q-34 0 -56.5 10t-36 26.5t-19.5 37.5t-6 42v14zM444 1044q-63 0 -105.5 20.5t-68 56.5t-36 83.5t-10.5 101.5h70q0 -89 39.5 -136.5t110.5 -47.5t110.5 47.5t39.5 136.5h70q0 -54 -11 -101.5t-36.5 -83.5t-67.5 -56.5t-105 -20.5z" />
<glyph unicode="&#x104;" horiz-adv-x="1098" d="M1026 -244q-5 -60 -43.5 -95t-104.5 -35q-68 0 -111 37t-43 105q0 37 14 69t39.5 59t61 51t77.5 47l-108 298h-524l-106 -292h-106l424 1116h106l424 -1116q-47 -27 -87 -53t-68.5 -53.5t-44.5 -57.5t-16 -64q0 -35 17 -57.5t53 -22.5q27 0 49 14.5t25 49.5h72zM778 378 l-230 624l-232 -624h462z" />
<glyph unicode="&#x105;" horiz-adv-x="912" d="M870 -244q-5 -60 -43.5 -95t-104.5 -35q-68 0 -111 37t-43 105q0 34 12.5 64t35.5 56.5t55 50t71 45.5q-23 5 -39 16.5t-25.5 26.5t-13.5 33t-4 36v14q-17 -23 -44.5 -46.5t-64 -42t-81 -30t-96.5 -11.5q-69 0 -120.5 17t-85.5 48.5t-51 74.5t-17 96q0 48 15.5 84.5 t44.5 65.5q45 45 113 67.5t153 30.5l220 18v54q0 61 -8.5 109t-31 81.5t-62 51.5t-102.5 18t-105 -17t-67 -46t-35.5 -67.5t-10.5 -81.5h-94q0 65 19.5 119.5t59 93.5t98.5 61t139 22q82 0 138.5 -22t91.5 -64.5t50.5 -105t15.5 -142.5v-418q0 -39 15.5 -52.5t42.5 -13.5 q41 0 80 18v-74q-52 -29 -93.5 -55.5t-71 -54.5t-45.5 -58.5t-16 -65.5t17 -57.5t53 -22.5q27 0 49 14.5t25 49.5h72zM646 410l-188 -18q-86 -8 -138 -25t-84 -49q-40 -40 -40 -102q0 -34 10.5 -62t32 -48t54.5 -31t79 -11q90 0 155 29t119 79v238z" />
<glyph unicode="&#x106;" horiz-adv-x="1144" d="M1018 324q-6 -82 -40 -146t-90 -108t-130.5 -67t-161.5 -23q-128 0 -217 44t-145.5 121.5t-82 183t-25.5 229.5t25.5 229.5t82 183t145.5 121.5t217 44q87 0 161.5 -23t130.5 -67t90 -108t40 -146h-100q-5 50 -26.5 96t-61 80.5t-98 55t-136.5 20.5q-111 0 -182 -42 t-112 -110.5t-56.5 -155.5t-15.5 -178t15.5 -178t56.5 -155.5t112 -110.5t182 -42q78 0 136.5 20.5t98 55t61 80.5t26.5 96h100zM626 1510h136l-178 -234h-58z" />
<glyph unicode="&#x107;" horiz-adv-x="928" d="M820 278q-5 -73 -29.5 -128.5t-66 -93t-98.5 -57t-126 -19.5q-65 0 -132 19.5t-122.5 70t-90.5 137.5t-35 223t35 223t90.5 137.5t122.5 70t132 19.5q69 0 126 -19.5t98.5 -57t66 -93t29.5 -128.5h-94q-2 43 -16 82t-41.5 67.5t-70 45.5t-102.5 17q-136 0 -207 -90.5 t-71 -273.5t71 -273.5t207 -90.5q60 0 102.5 17t70 45.5t41.5 67t16 82.5h94zM538 1296h136l-178 -234h-58z" />
<glyph unicode="&#x108;" horiz-adv-x="1144" d="M1018 324q-6 -82 -40 -146t-90 -108t-130.5 -67t-161.5 -23q-128 0 -217 44t-145.5 121.5t-82 183t-25.5 229.5t25.5 229.5t82 183t145.5 121.5t217 44q87 0 161.5 -23t130.5 -67t90 -108t40 -146h-100q-5 50 -26.5 96t-61 80.5t-98 55t-136.5 20.5q-111 0 -182 -42 t-112 -110.5t-56.5 -155.5t-15.5 -178t15.5 -178t56.5 -155.5t112 -110.5t182 -42q78 0 136.5 20.5t98 55t61 80.5t26.5 96h100zM544 1512h80l208 -248h-78l-170 156l-170 -156h-78z" />
<glyph unicode="&#x109;" horiz-adv-x="928" d="M820 278q-5 -73 -29.5 -128.5t-66 -93t-98.5 -57t-126 -19.5q-65 0 -132 19.5t-122.5 70t-90.5 137.5t-35 223t35 223t90.5 137.5t122.5 70t132 19.5q69 0 126 -19.5t98.5 -57t66 -93t29.5 -128.5h-94q-2 43 -16 82t-41.5 67.5t-70 45.5t-102.5 17q-136 0 -207 -90.5 t-71 -273.5t71 -273.5t207 -90.5q60 0 102.5 17t70 45.5t41.5 67t16 82.5h94zM456 1298h80l208 -248h-78l-170 156l-170 -156h-78z" />
<glyph unicode="&#x10a;" horiz-adv-x="1144" d="M1018 324q-6 -82 -40 -146t-90 -108t-130.5 -67t-161.5 -23q-128 0 -217 44t-145.5 121.5t-82 183t-25.5 229.5t25.5 229.5t82 183t145.5 121.5t217 44q87 0 161.5 -23t130.5 -67t90 -108t40 -146h-100q-5 50 -26.5 96t-61 80.5t-98 55t-136.5 20.5q-111 0 -182 -42 t-112 -110.5t-56.5 -155.5t-15.5 -178t15.5 -178t56.5 -155.5t112 -110.5t182 -42q78 0 136.5 20.5t98 55t61 80.5t26.5 96h100zM510 1466h148v-148h-148v148z" />
<glyph unicode="&#x10b;" horiz-adv-x="928" d="M820 278q-5 -73 -29.5 -128.5t-66 -93t-98.5 -57t-126 -19.5q-65 0 -132 19.5t-122.5 70t-90.5 137.5t-35 223t35 223t90.5 137.5t122.5 70t132 19.5q69 0 126 -19.5t98.5 -57t66 -93t29.5 -128.5h-94q-2 43 -16 82t-41.5 67.5t-70 45.5t-102.5 17q-136 0 -207 -90.5 t-71 -273.5t71 -273.5t207 -90.5q60 0 102.5 17t70 45.5t41.5 67t16 82.5h94zM430 1246h132v-134h-132v134z" />
<glyph unicode="&#x10c;" horiz-adv-x="1144" d="M1018 324q-6 -82 -40 -146t-90 -108t-130.5 -67t-161.5 -23q-128 0 -217 44t-145.5 121.5t-82 183t-25.5 229.5t25.5 229.5t82 183t145.5 121.5t217 44q87 0 161.5 -23t130.5 -67t90 -108t40 -146h-100q-5 50 -26.5 96t-61 80.5t-98 55t-136.5 20.5q-111 0 -182 -42 t-112 -110.5t-56.5 -155.5t-15.5 -178t15.5 -178t56.5 -155.5t112 -110.5t182 -42q78 0 136.5 20.5t98 55t61 80.5t26.5 96h100zM336 1512h78l170 -156l170 156h78l-208 -248h-80z" />
<glyph unicode="&#x10d;" horiz-adv-x="928" d="M820 278q-5 -73 -29.5 -128.5t-66 -93t-98.5 -57t-126 -19.5q-65 0 -132 19.5t-122.5 70t-90.5 137.5t-35 223t35 223t90.5 137.5t122.5 70t132 19.5q69 0 126 -19.5t98.5 -57t66 -93t29.5 -128.5h-94q-2 43 -16 82t-41.5 67.5t-70 45.5t-102.5 17q-136 0 -207 -90.5 t-71 -273.5t71 -273.5t207 -90.5q60 0 102.5 17t70 45.5t41.5 67t16 82.5h94zM248 1298h78l170 -156l170 156h78l-208 -248h-80z" />
<glyph unicode="&#x10e;" horiz-adv-x="1166" d="M196 1116h324q135 0 233 -40t162 -113.5t94.5 -176.5t30.5 -228t-30.5 -228t-94.5 -176.5t-162 -113.5t-233 -40h-324v1116zM528 90q121 0 200 40.5t125.5 106.5t64.5 150t18 171t-18 171t-64.5 150t-125.5 106.5t-200 40.5h-230v-936h230zM290 1512h78l170 -156l170 156 h78l-208 -248h-80z" />
<glyph unicode="&#x10f;" horiz-adv-x="984" d="M970 1324h136l-138 -316h-50zM736 106q-19 -23 -44.5 -45.5t-58.5 -40.5t-74.5 -29t-90.5 -11q-69 0 -133 24t-113 77t-78.5 138t-29.5 207t29.5 208.5t78.5 141t113 79.5t133 25q58 0 101 -14t73.5 -32.5t49 -38t26.5 -29.5v558h96v-1324h-78v106zM718 688 q-41 47 -96.5 76.5t-133.5 29.5q-138 0 -207 -96.5t-69 -267.5t69 -267.5t207 -96.5q78 0 133.5 29.5t96.5 76.5v516z" />
<glyph unicode="&#x110;" horiz-adv-x="1176" d="M80 614h126v502h324q135 0 233 -40t162 -113.5t94.5 -176.5t30.5 -228t-30.5 -228t-94.5 -176.5t-162 -113.5t-233 -40h-324v530h-126v84zM538 90q121 0 200 40.5t125.5 106.5t64.5 150t18 171t-18 171t-64.5 150t-125.5 106.5t-200 40.5h-230v-412h268v-84h-268v-440 h230z" />
<glyph unicode="&#x111;" horiz-adv-x="984" d="M504 1138h214v186h96v-186h98v-76h-98v-1062h-78v106q-19 -23 -44.5 -45.5t-58.5 -40.5t-74.5 -29t-90.5 -11q-69 0 -133 24t-113 77t-78.5 138t-29.5 207t29.5 208.5t78.5 141t113 79.5t133 25q58 0 101 -14t73.5 -32.5t49 -38t26.5 -29.5v296h-214v76zM718 688 q-41 47 -96.5 76.5t-133.5 29.5q-138 0 -207 -96.5t-69 -267.5t69 -267.5t207 -96.5q78 0 133.5 29.5t96.5 76.5v516z" />
<glyph unicode="&#x112;" horiz-adv-x="1042" d="M196 1116h714v-90h-612v-410h514v-90h-514v-436h612v-90h-714v1116zM328 1438h452v-84h-452v84z" />
<glyph unicode="&#x113;" horiz-adv-x="950" d="M744 492q-5 68 -24.5 124t-52.5 96t-80.5 62t-108.5 22q-62 0 -108.5 -22t-79.5 -62t-52 -96t-24 -124h530zM832 276q-11 -87 -46.5 -144t-84.5 -91t-106 -47.5t-109 -13.5q-74 0 -141 24.5t-118.5 78.5t-82 139.5t-30.5 207.5q0 127 32.5 213.5t85 139t117 75 t129.5 22.5q64 0 128.5 -22t116.5 -74t84.5 -137.5t32.5 -212.5v-18h-628q3 -169 71 -259.5t205 -90.5q109 0 171 55t79 155h94zM250 1224h452v-84h-452v84z" />
<glyph unicode="&#x114;" horiz-adv-x="1042" d="M196 1116h714v-90h-612v-410h514v-90h-514v-436h612v-90h-714v1116zM554 1258q-63 0 -105.5 20.5t-68 56.5t-36 83.5t-10.5 101.5h70q0 -89 39.5 -136.5t110.5 -47.5t110.5 47.5t39.5 136.5h70q0 -54 -11 -101.5t-36.5 -83.5t-67.5 -56.5t-105 -20.5z" />
<glyph unicode="&#x115;" horiz-adv-x="950" d="M744 492q-5 68 -24.5 124t-52.5 96t-80.5 62t-108.5 22q-62 0 -108.5 -22t-79.5 -62t-52 -96t-24 -124h530zM832 276q-11 -87 -46.5 -144t-84.5 -91t-106 -47.5t-109 -13.5q-74 0 -141 24.5t-118.5 78.5t-82 139.5t-30.5 207.5q0 127 32.5 213.5t85 139t117 75 t129.5 22.5q64 0 128.5 -22t116.5 -74t84.5 -137.5t32.5 -212.5v-18h-628q3 -169 71 -259.5t205 -90.5q109 0 171 55t79 155h94zM476 1044q-63 0 -105.5 20.5t-68 56.5t-36 83.5t-10.5 101.5h70q0 -89 39.5 -136.5t110.5 -47.5t110.5 47.5t39.5 136.5h70q0 -54 -11 -101.5 t-36.5 -83.5t-67.5 -56.5t-105 -20.5z" />
<glyph unicode="&#x116;" horiz-adv-x="1042" d="M196 1116h714v-90h-612v-410h514v-90h-514v-436h612v-90h-714v1116zM480 1466h148v-148h-148v148z" />
<glyph unicode="&#x117;" horiz-adv-x="950" d="M744 492q-5 68 -24.5 124t-52.5 96t-80.5 62t-108.5 22q-62 0 -108.5 -22t-79.5 -62t-52 -96t-24 -124h530zM832 276q-11 -87 -46.5 -144t-84.5 -91t-106 -47.5t-109 -13.5q-74 0 -141 24.5t-118.5 78.5t-82 139.5t-30.5 207.5q0 127 32.5 213.5t85 139t117 75 t129.5 22.5q64 0 128.5 -22t116.5 -74t84.5 -137.5t32.5 -212.5v-18h-628q3 -169 71 -259.5t205 -90.5q109 0 171 55t79 155h94zM410 1246h132v-134h-132v134z" />
<glyph unicode="&#x118;" horiz-adv-x="1042" d="M196 1116h714v-90h-612v-410h514v-90h-514v-436h612v-90h-714v1116zM910 -244q-5 -60 -43.5 -95t-104.5 -35q-68 0 -111 37t-43 105q0 46 22 83.5t59.5 69.5t88.5 60t110 57l22 -38q-47 -27 -87 -53t-68.5 -53.5t-44.5 -57.5t-16 -64q0 -35 17 -57.5t53 -22.5 q27 0 49 14.5t25 49.5h72z" />
<glyph unicode="&#x119;" horiz-adv-x="950" d="M620 -244q-5 -60 -43.5 -95t-104.5 -35q-68 0 -111 37t-43 105q0 36 12.5 65.5t35 55t54.5 48t72 43.5h-6q-74 0 -141 24.5t-118.5 78.5t-82 139.5t-30.5 207.5q0 127 32.5 213.5t85 139t117 75t129.5 22.5q64 0 128.5 -22t116.5 -74t84.5 -137.5t32.5 -212.5v-18h-628 q3 -169 71 -259.5t205 -90.5q109 0 171 55t79 155h94q-5 -47 -19.5 -87t-36.5 -71.5t-49.5 -55t-56.5 -38.5q-70 -36 -120 -67.5t-82.5 -61.5t-48 -60t-15.5 -63q0 -35 17 -57.5t53 -22.5q27 0 49 14.5t25 49.5h72zM744 492q-5 68 -24.5 124t-52.5 96t-80.5 62t-108.5 22 q-62 0 -108.5 -22t-79.5 -62t-52 -96t-24 -124h530z" />
<glyph unicode="&#x11a;" horiz-adv-x="1042" d="M196 1116h714v-90h-612v-410h514v-90h-514v-436h612v-90h-714v1116zM306 1512h78l170 -156l170 156h78l-208 -248h-80z" />
<glyph unicode="&#x11b;" horiz-adv-x="950" d="M744 492q-5 68 -24.5 124t-52.5 96t-80.5 62t-108.5 22q-62 0 -108.5 -22t-79.5 -62t-52 -96t-24 -124h530zM832 276q-11 -87 -46.5 -144t-84.5 -91t-106 -47.5t-109 -13.5q-74 0 -141 24.5t-118.5 78.5t-82 139.5t-30.5 207.5q0 127 32.5 213.5t85 139t117 75 t129.5 22.5q64 0 128.5 -22t116.5 -74t84.5 -137.5t32.5 -212.5v-18h-628q3 -169 71 -259.5t205 -90.5q109 0 171 55t79 155h94zM228 1298h78l170 -156l170 156h78l-208 -248h-80z" />
<glyph unicode="&#x11c;" horiz-adv-x="1206" d="M610 -20q-137 0 -229.5 46t-149 124t-81 182.5t-24.5 221.5q0 124 26 230.5t83 184.5t146.5 122.5t216.5 44.5q89 0 165.5 -23.5t133.5 -68.5t92 -110.5t41 -149.5h-100q-5 52 -27 99t-62.5 83t-100.5 57t-140 21q-75 0 -132 -19.5t-98 -53.5t-68 -80.5t-43 -101.5 t-22.5 -115.5t-6.5 -121.5q0 -52 5 -108t20 -109.5t41 -101.5t69 -84t104 -57.5t145 -21.5q104 0 170 33t103.5 88t51.5 126.5t15 148.5h-344v88h434v-554h-80v176q-33 -66 -79 -105t-95 -59t-96.5 -26t-83.5 -6zM566 1512h80l208 -248h-78l-170 156l-170 -156h-78z" />
<glyph unicode="&#x11d;" horiz-adv-x="972" d="M102 572q0 76 27.5 133.5t74 96.5t107.5 58.5t127 19.5q91 0 166.5 -36t119.5 -102q26 60 85.5 99t148.5 39v-100q-68 0 -124 -20t-82 -68q11 -27 16.5 -57t5.5 -63q-1 -68 -23.5 -124.5t-65 -97t-105 -63.5t-142.5 -23q-88 0 -156 28q-12 -7 -25 -16.5t-23.5 -21.5 t-17 -27t-6.5 -33q0 -38 35 -60t107 -22h222q61 0 114 -14t91.5 -42.5t60.5 -72t22 -103.5q0 -64 -26 -118t-78 -93.5t-129.5 -62t-180.5 -22.5t-174.5 22t-116.5 57.5t-65 80.5t-20 92q0 40 12 73.5t31.5 60.5t45 48t53.5 36q-39 15 -67.5 45t-28.5 83q0 48 29.5 84.5 t74.5 59.5q-62 44 -91 109t-29 137zM286 26q-20 -10 -41.5 -25.5t-39 -37.5t-28.5 -50.5t-11 -64.5q0 -35 14 -68.5t47 -59t87 -41t134 -15.5q87 0 147.5 17.5t98.5 46.5t55 67t17 79q0 75 -51.5 113.5t-158.5 38.5h-270zM680 572q0 58 -19 100.5t-52 71t-77 42.5t-94 14 t-94 -14t-77 -42.5t-52 -71t-19 -100.5t19 -100.5t52 -71t77 -42.5t94 -14t94 14t77 42.5t52 71t19 100.5zM398 1298h80l208 -248h-78l-170 156l-170 -156h-78z" />
<glyph unicode="&#x11e;" horiz-adv-x="1206" d="M610 -20q-137 0 -229.5 46t-149 124t-81 182.5t-24.5 221.5q0 124 26 230.5t83 184.5t146.5 122.5t216.5 44.5q89 0 165.5 -23.5t133.5 -68.5t92 -110.5t41 -149.5h-100q-5 52 -27 99t-62.5 83t-100.5 57t-140 21q-75 0 -132 -19.5t-98 -53.5t-68 -80.5t-43 -101.5 t-22.5 -115.5t-6.5 -121.5q0 -52 5 -108t20 -109.5t41 -101.5t69 -84t104 -57.5t145 -21.5q104 0 170 33t103.5 88t51.5 126.5t15 148.5h-344v88h434v-554h-80v176q-33 -66 -79 -105t-95 -59t-96.5 -26t-83.5 -6zM606 1258q-63 0 -105.5 20.5t-68 56.5t-36 83.5t-10.5 101.5 h70q0 -89 39.5 -136.5t110.5 -47.5t110.5 47.5t39.5 136.5h70q0 -54 -11 -101.5t-36.5 -83.5t-67.5 -56.5t-105 -20.5z" />
<glyph unicode="&#x11f;" horiz-adv-x="972" d="M102 572q0 76 27.5 133.5t74 96.5t107.5 58.5t127 19.5q91 0 166.5 -36t119.5 -102q26 60 85.5 99t148.5 39v-100q-68 0 -124 -20t-82 -68q11 -27 16.5 -57t5.5 -63q-1 -68 -23.5 -124.5t-65 -97t-105 -63.5t-142.5 -23q-88 0 -156 28q-12 -7 -25 -16.5t-23.5 -21.5 t-17 -27t-6.5 -33q0 -38 35 -60t107 -22h222q61 0 114 -14t91.5 -42.5t60.5 -72t22 -103.5q0 -64 -26 -118t-78 -93.5t-129.5 -62t-180.5 -22.5t-174.5 22t-116.5 57.5t-65 80.5t-20 92q0 40 12 73.5t31.5 60.5t45 48t53.5 36q-39 15 -67.5 45t-28.5 83q0 48 29.5 84.5 t74.5 59.5q-62 44 -91 109t-29 137zM286 26q-20 -10 -41.5 -25.5t-39 -37.5t-28.5 -50.5t-11 -64.5q0 -35 14 -68.5t47 -59t87 -41t134 -15.5q87 0 147.5 17.5t98.5 46.5t55 67t17 79q0 75 -51.5 113.5t-158.5 38.5h-270zM680 572q0 58 -19 100.5t-52 71t-77 42.5t-94 14 t-94 -14t-77 -42.5t-52 -71t-19 -100.5t19 -100.5t52 -71t77 -42.5t94 -14t94 14t77 42.5t52 71t19 100.5zM438 1044q-63 0 -105.5 20.5t-68 56.5t-36 83.5t-10.5 101.5h70q0 -89 39.5 -136.5t110.5 -47.5t110.5 47.5t39.5 136.5h70q0 -54 -11 -101.5t-36.5 -83.5 t-67.5 -56.5t-105 -20.5z" />
<glyph unicode="&#x120;" horiz-adv-x="1206" d="M610 -20q-137 0 -229.5 46t-149 124t-81 182.5t-24.5 221.5q0 124 26 230.5t83 184.5t146.5 122.5t216.5 44.5q89 0 165.5 -23.5t133.5 -68.5t92 -110.5t41 -149.5h-100q-5 52 -27 99t-62.5 83t-100.5 57t-140 21q-75 0 -132 -19.5t-98 -53.5t-68 -80.5t-43 -101.5 t-22.5 -115.5t-6.5 -121.5q0 -52 5 -108t20 -109.5t41 -101.5t69 -84t104 -57.5t145 -21.5q104 0 170 33t103.5 88t51.5 126.5t15 148.5h-344v88h434v-554h-80v176q-33 -66 -79 -105t-95 -59t-96.5 -26t-83.5 -6zM532 1466h148v-148h-148v148z" />
<glyph unicode="&#x121;" horiz-adv-x="972" d="M102 572q0 76 27.5 133.5t74 96.5t107.5 58.5t127 19.5q91 0 166.5 -36t119.5 -102q26 60 85.5 99t148.5 39v-100q-68 0 -124 -20t-82 -68q11 -27 16.5 -57t5.5 -63q-1 -68 -23.5 -124.5t-65 -97t-105 -63.5t-142.5 -23q-88 0 -156 28q-12 -7 -25 -16.5t-23.5 -21.5 t-17 -27t-6.5 -33q0 -38 35 -60t107 -22h222q61 0 114 -14t91.5 -42.5t60.5 -72t22 -103.5q0 -64 -26 -118t-78 -93.5t-129.5 -62t-180.5 -22.5t-174.5 22t-116.5 57.5t-65 80.5t-20 92q0 40 12 73.5t31.5 60.5t45 48t53.5 36q-39 15 -67.5 45t-28.5 83q0 48 29.5 84.5 t74.5 59.5q-62 44 -91 109t-29 137zM286 26q-20 -10 -41.5 -25.5t-39 -37.5t-28.5 -50.5t-11 -64.5q0 -35 14 -68.5t47 -59t87 -41t134 -15.5q87 0 147.5 17.5t98.5 46.5t55 67t17 79q0 75 -51.5 113.5t-158.5 38.5h-270zM680 572q0 58 -19 100.5t-52 71t-77 42.5t-94 14 t-94 -14t-77 -42.5t-52 -71t-19 -100.5t19 -100.5t52 -71t77 -42.5t94 -14t94 14t77 42.5t52 71t19 100.5zM372 1246h132v-134h-132v134z" />
<glyph unicode="&#x122;" horiz-adv-x="1206" d="M612 -224h-76v136h136v-136l-80 -172h-56zM610 -20q-137 0 -229.5 46t-149 124t-81 182.5t-24.5 221.5q0 124 26 230.5t83 184.5t146.5 122.5t216.5 44.5q89 0 165.5 -23.5t133.5 -68.5t92 -110.5t41 -149.5h-100q-5 52 -27 99t-62.5 83t-100.5 57t-140 21 q-75 0 -132 -19.5t-98 -53.5t-68 -80.5t-43 -101.5t-22.5 -115.5t-6.5 -121.5q0 -52 5 -108t20 -109.5t41 -101.5t69 -84t104 -57.5t145 -21.5q104 0 170 33t103.5 88t51.5 126.5t15 148.5h-344v88h434v-554h-80v176q-33 -66 -79 -105t-95 -59t-96.5 -26t-83.5 -6z" />
<glyph unicode="&#x123;" horiz-adv-x="972" d="M102 572q0 76 27.5 133.5t74 96.5t107.5 58.5t127 19.5q91 0 166.5 -36t119.5 -102q26 60 85.5 99t148.5 39v-100q-68 0 -124 -20t-82 -68q11 -27 16.5 -57t5.5 -63q-1 -68 -23.5 -124.5t-65 -97t-105 -63.5t-142.5 -23q-88 0 -156 28q-12 -7 -25 -16.5t-23.5 -21.5 t-17 -27t-6.5 -33q0 -38 35 -60t107 -22h222q61 0 114 -14t91.5 -42.5t60.5 -72t22 -103.5q0 -64 -26 -118t-78 -93.5t-129.5 -62t-180.5 -22.5t-174.5 22t-116.5 57.5t-65 80.5t-20 92q0 40 12 73.5t31.5 60.5t45 48t53.5 36q-39 15 -67.5 45t-28.5 83q0 48 29.5 84.5 t74.5 59.5q-62 44 -91 109t-29 137zM286 26q-20 -10 -41.5 -25.5t-39 -37.5t-28.5 -50.5t-11 -64.5q0 -35 14 -68.5t47 -59t87 -41t134 -15.5q87 0 147.5 17.5t98.5 46.5t55 67t17 79q0 75 -51.5 113.5t-158.5 38.5h-270zM680 572q0 58 -19 100.5t-52 71t-77 42.5t-94 14 t-94 -14t-77 -42.5t-52 -71t-19 -100.5t19 -100.5t52 -71t77 -42.5t94 -14t94 14t77 42.5t52 71t19 100.5zM430 1180h76v-136h-136v136l80 172h56z" />
<glyph unicode="&#x124;" horiz-adv-x="1198" d="M196 1116h102v-500h602v500h102v-1116h-102v526h-602v-526h-102v1116zM558 1512h80l208 -248h-78l-170 156l-170 -156h-78z" />
<glyph unicode="&#x125;" horiz-adv-x="976" d="M179 1628h80l208 -248h-78l-170 156l-170 -156h-78zM170 1324h96v-556q15 22 40 42t58 35.5t73.5 25t86.5 9.5q77 0 133 -22t92 -64t53.5 -103.5t17.5 -140.5v-550h-96v528q0 70 -12 120.5t-39 83t-69 47.5t-102 15q-44 0 -80.5 -9t-66 -23t-52 -32t-37.5 -36v-694h-96 v1324z" />
<glyph unicode="&#x126;" horiz-adv-x="1214" d="M84 910h120v206h102v-206h602v206h102v-206h120v-80h-120v-830h-102v526h-602v-526h-102v830h-120v80zM908 616v214h-602v-214h602z" />
<glyph unicode="&#x127;" horiz-adv-x="976" d="M70 1138h100v186h96v-186h212v-76h-212v-294q15 22 40 42t58 35.5t73.5 25t86.5 9.5q77 0 133 -22t92 -64t53.5 -103.5t17.5 -140.5v-550h-96v528q0 70 -12 120.5t-39 83t-69 47.5t-102 15q-44 0 -80.5 -9t-66 -23t-52 -32t-37.5 -36v-694h-96v1062h-100v76z" />
<glyph unicode="&#x128;" horiz-adv-x="590" d="M106 72h138v974h-138v70h378v-70h-138v-974h138v-72h-378v72zM61 1414q18 33 51 54.5t75 21.5q45 0 77 -22t59 -46q23 -20 45 -34t49 -14q35 0 65.5 22t50.5 46v-76q-18 -33 -51 -54.5t-75 -21.5t-72 19.5t-56 42.5q-24 21 -48 37.5t-54 16.5q-35 0 -65.5 -22t-50.5 -46 v76z" />
<glyph unicode="&#x129;" horiz-adv-x="436" d="M170 860h96v-860h-96v860zM-17 1200q18 33 51 54.5t75 21.5q45 0 77 -22t59 -46q23 -20 45 -34t49 -14q35 0 65.5 22t50.5 46v-76q-18 -33 -51 -54.5t-75 -21.5t-72 19.5t-56 42.5q-24 21 -48 37.5t-54 16.5q-35 0 -65.5 -22t-50.5 -46v76z" />
<glyph unicode="&#x12a;" horiz-adv-x="590" d="M106 72h138v974h-138v70h378v-70h-138v-974h138v-72h-378v72zM71 1438h452v-84h-452v84z" />
<glyph unicode="&#x12b;" horiz-adv-x="436" d="M170 860h96v-860h-96v860zM-7 1224h452v-84h-452v84z" />
<glyph unicode="&#x12c;" horiz-adv-x="590" d="M106 72h138v974h-138v70h378v-70h-138v-974h138v-72h-378v72zM297 1258q-63 0 -105.5 20.5t-68 56.5t-36 83.5t-10.5 101.5h70q0 -89 39.5 -136.5t110.5 -47.5t110.5 47.5t39.5 136.5h70q0 -54 -11 -101.5t-36.5 -83.5t-67.5 -56.5t-105 -20.5z" />
<glyph unicode="&#x12d;" horiz-adv-x="436" d="M170 860h96v-860h-96v860zM219 1044q-63 0 -105.5 20.5t-68 56.5t-36 83.5t-10.5 101.5h70q0 -89 39.5 -136.5t110.5 -47.5t110.5 47.5t39.5 136.5h70q0 -54 -11 -101.5t-36.5 -83.5t-67.5 -56.5t-105 -20.5z" />
<glyph unicode="&#x12e;" horiz-adv-x="590" d="M106 72h138v974h-138v70h378v-70h-138v-974h138v-72h-378v72zM485 -244q-5 -60 -43.5 -95t-104.5 -35q-68 0 -111 37t-43 105q0 46 22 83.5t59.5 69.5t88.5 60t110 57l22 -38q-47 -27 -87 -53t-68.5 -53.5t-44.5 -57.5t-16 -64q0 -35 17 -57.5t53 -22.5q27 0 49 14.5 t25 49.5h72z" />
<glyph unicode="&#x12f;" horiz-adv-x="436" d="M266 -244q-5 -60 -43.5 -95t-104.5 -35q-68 0 -111 37t-43 105q0 39 15.5 71.5t42.5 60.5t65 52.5t83 47.5v860h96v-860q-47 -27 -87 -53t-68.5 -53.5t-44.5 -57.5t-16 -64q0 -35 17 -57.5t53 -22.5q27 0 49 14.5t25 49.5h72zM148 1324h140v-142h-140v142z" />
<glyph unicode="&#x130;" horiz-adv-x="590" d="M106 72h138v974h-138v70h378v-70h-138v-974h138v-72h-378v72zM223 1466h148v-148h-148v148z" />
<glyph unicode="&#x131;" horiz-adv-x="436" d="M170 860h96v-860h-96v860z" />
<glyph unicode="&#x132;" horiz-adv-x="1136" d="M176 1116h102v-490h-102v490zM558 -20q-188 0 -285 92t-97 296h102q0 -78 16.5 -133.5t51 -91.5t89 -52.5t131.5 -16.5q76 0 131.5 17t91 56t52.5 102t17 155v712h102v-694q0 -65 -5.5 -117t-16.5 -93.5t-28.5 -73t-41.5 -56.5q-48 -50 -126 -76t-184 -26z" />
<glyph unicode="&#x133;" horiz-adv-x="876" d="M170 860h96v-860h-96v860zM148 1324h140v-142h-140v142zM412 -316q14 -6 35.5 -10t42.5 -4q35 0 58.5 12t37 33.5t19 51.5t5.5 67v1026h96v-1036q0 -55 -11 -99t-36.5 -75.5t-66.5 -48.5t-100 -17q-29 0 -49 5t-31 11v84zM588 1324h140v-142h-140v142z" />
<glyph unicode="&#x134;" horiz-adv-x="938" d="M160 1116h602v-768q0 -107 -22 -173.5t-64 -110.5q-81 -84 -254 -84q-81 0 -145 20t-109 63.5t-68.5 111.5t-23.5 165v46h102v-48q0 -144 60.5 -205t183.5 -61q60 0 104.5 14.5t74.5 46t44.5 82t14.5 123.5v688h-500v90zM450 1512h80l208 -248h-78l-170 156l-170 -156 h-78z" />
<glyph unicode="&#x135;" horiz-adv-x="440" d="M-24 -316q14 -6 35.5 -10t42.5 -4q35 0 58.5 12t37 33.5t19 51.5t5.5 67v1026h96v-1036q0 -55 -11 -99t-36.5 -75.5t-66.5 -48.5t-100 -17q-29 0 -49 5t-31 11v84zM183 1298h80l208 -248h-78l-170 156l-170 -156h-78z" />
<glyph unicode="&#x136;" horiz-adv-x="1050" d="M582 -224h-76v136h136v-136l-80 -172h-56zM196 1116h102v-598l568 598h130l-432 -446l456 -670h-122l-404 598l-196 -202v-396h-102v1116z" />
<glyph unicode="&#x137;" horiz-adv-x="920" d="M170 1324h96v-902l456 438h118l-332 -322l336 -538h-110l-294 478l-174 -164v-314h-96v1324zM490 -224h-76v136h136v-136l-80 -172h-56z" />
<glyph unicode="&#x138;" horiz-adv-x="920" d="M170 860h96v-438l456 438h118l-332 -322l336 -538h-110l-294 478l-174 -162v-316h-96v860z" />
<glyph unicode="&#x139;" horiz-adv-x="916" d="M196 1116h102v-1026h552v-90h-654v1116zM291 1510h136l-178 -234h-58z" />
<glyph unicode="&#x13a;" horiz-adv-x="436" d="M259 1626h136l-178 -234h-58zM170 1324h96v-1324h-96v1324z" />
<glyph unicode="&#x13b;" horiz-adv-x="916" d="M542 -224h-76v136h136v-136l-80 -172h-56zM196 1116h102v-1026h552v-90h-654v1116z" />
<glyph unicode="&#x13c;" horiz-adv-x="436" d="M170 1324h96v-1324h-96v1324zM229 -224h-76v136h136v-136l-80 -172h-56z" />
<glyph unicode="&#x13d;" horiz-adv-x="916" d="M496 1117h136l-138 -316h-50zM196 1116h102v-1026h552v-90h-654v1116z" />
<glyph unicode="&#x13e;" horiz-adv-x="436" d="M170 1324h96v-1324h-96v1324zM422 1324h136l-138 -316h-50z" />
<glyph unicode="&#x13f;" horiz-adv-x="916" d="M196 1116h102v-1026h552v-90h-654v1116zM582 554h146v-146h-146v146z" />
<glyph unicode="&#x140;" horiz-adv-x="598" d="M170 1324h96v-1324h-96v1324zM440 538h146v-146h-146v146z" />
<glyph unicode="&#x141;" horiz-adv-x="936" d="M64 456l152 100v560h102v-492l306 204v-98l-306 -204v-436h552v-90h-654v458l-152 -100v98z" />
<glyph unicode="&#x142;" horiz-adv-x="452" d="M24 538l154 102v684h96v-620l154 102v-98l-154 -102v-606h-96v542l-154 -102v98z" />
<glyph unicode="&#x143;" horiz-adv-x="1206" d="M196 1116h120l598 -982v982h96v-1116h-120l-598 982v-982h-96v1116zM644 1510h136l-178 -234h-58z" />
<glyph unicode="&#x144;" horiz-adv-x="976" d="M170 860h78v-98q22 23 50 44.5t62.5 38t75.5 26t88 9.5q77 0 133 -22t92 -64t53.5 -103.5t17.5 -140.5v-550h-96v528q0 70 -12 120.5t-39 83t-69 47.5t-102 15q-44 0 -80.5 -9t-66 -23t-52 -32t-37.5 -36v-694h-96v860zM540 1296h136l-178 -234h-58z" />
<glyph unicode="&#x145;" horiz-adv-x="1206" d="M196 1116h120l598 -982v982h96v-1116h-120l-598 982v-982h-96v1116zM610 -224h-76v136h136v-136l-80 -172h-56z" />
<glyph unicode="&#x146;" horiz-adv-x="976" d="M170 860h78v-98q22 23 50 44.5t62.5 38t75.5 26t88 9.5q77 0 133 -22t92 -64t53.5 -103.5t17.5 -140.5v-550h-96v528q0 70 -12 120.5t-39 83t-69 47.5t-102 15q-44 0 -80.5 -9t-66 -23t-52 -32t-37.5 -36v-694h-96v860zM506 -224h-76v136h136v-136l-80 -172h-56z" />
<glyph unicode="&#x147;" horiz-adv-x="1206" d="M196 1116h120l598 -982v982h96v-1116h-120l-598 982v-982h-96v1116zM354 1512h78l170 -156l170 156h78l-208 -248h-80z" />
<glyph unicode="&#x148;" horiz-adv-x="976" d="M170 860h78v-98q22 23 50 44.5t62.5 38t75.5 26t88 9.5q77 0 133 -22t92 -64t53.5 -103.5t17.5 -140.5v-550h-96v528q0 70 -12 120.5t-39 83t-69 47.5t-102 15q-44 0 -80.5 -9t-66 -23t-52 -32t-37.5 -36v-694h-96v860zM250 1298h78l170 -156l170 156h78l-208 -248h-80z " />
<glyph unicode="&#x149;" horiz-adv-x="1314" d="M306 1050l-84 -260h-62l78 260h-78v146h146v-146zM508 860h78v-98q22 23 50 44.5t62.5 38t75.5 26t88 9.5q77 0 133 -22t92 -64t53.5 -103.5t17.5 -140.5v-550h-96v528q0 70 -12 120.5t-39 83t-69 47.5t-102 15q-44 0 -80.5 -9t-66 -23t-52 -32t-37.5 -36v-694h-96v860z " />
<glyph unicode="&#x14a;" horiz-adv-x="1206" d="M196 1116h120l598 -982v982h96v-1292q0 -55 -11 -99t-36.5 -75.5t-66.5 -48.5t-100 -17q-29 0 -49 5t-31 11v84q14 -6 35.5 -10t42.5 -4q35 0 58.5 12t37 33.5t19 51.5t5.5 67v128l-622 1020v-982h-96v1116z" />
<glyph unicode="&#x14b;" horiz-adv-x="976" d="M526 -314q14 -6 35.5 -10t42.5 -4q69 0 94.5 45.5t25.5 128.5v682q0 70 -12 120.5t-39 83t-69 47.5t-102 15q-44 0 -80.5 -9t-66 -23t-52 -32t-37.5 -36v-694h-96v860h78v-98q22 23 50 44.5t62.5 38t75.5 26t88 9.5q77 0 133 -22t92 -64t53.5 -103.5t17.5 -140.5v-718 q0 -56 -11 -101.5t-36.5 -78t-66.5 -50.5t-100 -18q-29 0 -49 4t-31 10v88z" />
<glyph unicode="&#x14c;" horiz-adv-x="1220" d="M610 72q112 0 185 42t116.5 110.5t61 155.5t17.5 178t-17.5 178t-61 155.5t-116.5 110.5t-185 42t-185 -42t-116.5 -110.5t-61 -155.5t-17.5 -178t17.5 -178t61 -155.5t116.5 -110.5t185 -42zM610 -20q-122 0 -213 41.5t-151 117.5t-90 182.5t-30 236.5t30 236.5 t90 182.5t151 117.5t213 41.5t213 -41.5t151 -117.5t90 -182.5t30 -236.5t-30 -236.5t-90 -182.5t-151 -117.5t-213 -41.5zM384 1438h452v-84h-452v84z" />
<glyph unicode="&#x14d;" horiz-adv-x="980" d="M490 66q137 0 207.5 92t70.5 272t-70.5 272t-207.5 92t-207.5 -92t-70.5 -272t70.5 -272t207.5 -92zM490 -20q-66 0 -133 21t-121 72t-88 138t-34 219t34 219t88 138t121 72t133 21t133 -21t121 -72t88 -138t34 -219t-34 -219t-88 -138t-121 -72t-133 -21zM264 1224h452 v-84h-452v84z" />
<glyph unicode="&#x14e;" horiz-adv-x="1220" d="M610 72q112 0 185 42t116.5 110.5t61 155.5t17.5 178t-17.5 178t-61 155.5t-116.5 110.5t-185 42t-185 -42t-116.5 -110.5t-61 -155.5t-17.5 -178t17.5 -178t61 -155.5t116.5 -110.5t185 -42zM610 -20q-122 0 -213 41.5t-151 117.5t-90 182.5t-30 236.5t30 236.5 t90 182.5t151 117.5t213 41.5t213 -41.5t151 -117.5t90 -182.5t30 -236.5t-30 -236.5t-90 -182.5t-151 -117.5t-213 -41.5zM610 1258q-63 0 -105.5 20.5t-68 56.5t-36 83.5t-10.5 101.5h70q0 -89 39.5 -136.5t110.5 -47.5t110.5 47.5t39.5 136.5h70q0 -54 -11 -101.5 t-36.5 -83.5t-67.5 -56.5t-105 -20.5z" />
<glyph unicode="&#x14f;" horiz-adv-x="980" d="M490 66q137 0 207.5 92t70.5 272t-70.5 272t-207.5 92t-207.5 -92t-70.5 -272t70.5 -272t207.5 -92zM490 -20q-66 0 -133 21t-121 72t-88 138t-34 219t34 219t88 138t121 72t133 21t133 -21t121 -72t88 -138t34 -219t-34 -219t-88 -138t-121 -72t-133 -21zM490 1044 q-63 0 -105.5 20.5t-68 56.5t-36 83.5t-10.5 101.5h70q0 -89 39.5 -136.5t110.5 -47.5t110.5 47.5t39.5 136.5h70q0 -54 -11 -101.5t-36.5 -83.5t-67.5 -56.5t-105 -20.5z" />
<glyph unicode="&#x150;" horiz-adv-x="1220" d="M610 72q112 0 185 42t116.5 110.5t61 155.5t17.5 178t-17.5 178t-61 155.5t-116.5 110.5t-185 42t-185 -42t-116.5 -110.5t-61 -155.5t-17.5 -178t17.5 -178t61 -155.5t116.5 -110.5t185 -42zM610 -20q-122 0 -213 41.5t-151 117.5t-90 182.5t-30 236.5t30 236.5 t90 182.5t151 117.5t213 41.5t213 -41.5t151 -117.5t90 -182.5t30 -236.5t-30 -236.5t-90 -182.5t-151 -117.5t-213 -41.5zM534 1510h136l-178 -234h-58zM826 1510h136l-178 -234h-58z" />
<glyph unicode="&#x151;" horiz-adv-x="980" d="M490 66q137 0 207.5 92t70.5 272t-70.5 272t-207.5 92t-207.5 -92t-70.5 -272t70.5 -272t207.5 -92zM490 -20q-66 0 -133 21t-121 72t-88 138t-34 219t34 219t88 138t121 72t133 21t133 -21t121 -72t88 -138t34 -219t-34 -219t-88 -138t-121 -72t-133 -21zM414 1296h136 l-178 -234h-58zM706 1296h136l-178 -234h-58z" />
<glyph unicode="&#x152;" horiz-adv-x="1712" d="M646 0q-135 0 -233 40t-162 113.5t-94.5 176.5t-30.5 228t30.5 228t94.5 176.5t162 113.5t233 40h934v-90h-612v-410h514v-90h-514v-436h612v-90h-934zM866 90v936h-228q-122 0 -200.5 -40.5t-125 -106.5t-64.5 -150t-18 -171t18 -171t64.5 -150t125 -106.5t200.5 -40.5 h228z" />
<glyph unicode="&#x153;" horiz-adv-x="1602" d="M1142 -20q-53 0 -102 13t-91.5 40.5t-76.5 70.5t-56 104q-24 -65 -60.5 -109t-80.5 -70.5t-92.5 -37.5t-96.5 -11q-65 0 -131.5 21t-120 72t-87 138t-33.5 219t33.5 219t87 138t120 72t131.5 21q48 0 96.5 -11t92.5 -37.5t80.5 -70.5t60.5 -109q22 63 57.5 106.5 t77.5 70.5t89 39t94 12q63 0 127 -22t115 -74t83.5 -137.5t32.5 -212.5v-18h-628q3 -169 71 -259.5t205 -90.5q109 0 171 55t79 155h94q-11 -87 -46 -144t-83.5 -91t-104.5 -47.5t-108 -13.5zM490 66q137 0 207.5 92t70.5 272t-70.5 272t-207.5 92t-207.5 -92t-70.5 -272 t70.5 -272t207.5 -92zM1396 492q-5 68 -24.5 124t-52.5 96t-80.5 62t-108.5 22q-62 0 -108.5 -22t-79.5 -62t-52 -96t-24 -124h530z" />
<glyph unicode="&#x154;" horiz-adv-x="1106" d="M196 1116h326q207 0 312.5 -83t105.5 -251q0 -137 -78.5 -218t-221.5 -102l374 -462h-128l-352 450h-236v-450h-102v1116zM512 538q88 0 150 15.5t101 46.5t57 76.5t18 105.5t-15.5 105.5t-52.5 76.5t-99 46.5t-155 15.5h-218v-488h214zM570 1510h136l-178 -234h-58z" />
<glyph unicode="&#x155;" horiz-adv-x="602" d="M170 860h78v-108q33 65 91.5 96.5t136.5 31.5q42 0 69.5 -6.5t36.5 -9.5v-96q-20 9 -52 15.5t-68 6.5q-63 0 -116 -23t-80 -73v-694h-96v860zM418 1296h136l-178 -234h-58z" />
<glyph unicode="&#x156;" horiz-adv-x="1106" d="M596 -224h-76v136h136v-136l-80 -172h-56zM196 1116h326q207 0 312.5 -83t105.5 -251q0 -137 -78.5 -218t-221.5 -102l374 -462h-128l-352 450h-236v-450h-102v1116zM512 538q88 0 150 15.5t101 46.5t57 76.5t18 105.5t-15.5 105.5t-52.5 76.5t-99 46.5t-155 15.5h-218 v-488h214z" />
<glyph unicode="&#x157;" horiz-adv-x="602" d="M170 860h78v-108q33 65 91.5 96.5t136.5 31.5q42 0 69.5 -6.5t36.5 -9.5v-96q-20 9 -52 15.5t-68 6.5q-63 0 -116 -23t-80 -73v-694h-96v860zM227 -224h-76v136h136v-136l-80 -172h-56z" />
<glyph unicode="&#x158;" horiz-adv-x="1106" d="M196 1116h326q207 0 312.5 -83t105.5 -251q0 -137 -78.5 -218t-221.5 -102l374 -462h-128l-352 450h-236v-450h-102v1116zM512 538q88 0 150 15.5t101 46.5t57 76.5t18 105.5t-15.5 105.5t-52.5 76.5t-99 46.5t-155 15.5h-218v-488h214zM280 1512h78l170 -156l170 156h78 l-208 -248h-80z" />
<glyph unicode="&#x159;" horiz-adv-x="602" d="M170 860h78v-108q33 65 91.5 96.5t136.5 31.5q42 0 69.5 -6.5t36.5 -9.5v-96q-20 9 -52 15.5t-68 6.5q-63 0 -116 -23t-80 -73v-694h-96v860zM129 1298h78l170 -156l170 156h78l-208 -248h-80z" />
<glyph unicode="&#x15a;" horiz-adv-x="1066" d="M228 320q5 -73 34.5 -120.5t74 -76t99 -40t110.5 -11.5q55 0 105 11.5t87.5 37t59.5 66t22 97.5q0 80 -45.5 125.5t-122.5 68.5l-256 76q-118 35 -180 107t-62 181q0 67 24.5 121.5t71 93t113.5 59t151 20.5q169 0 266.5 -85.5t109.5 -248.5h-100q-6 73 -33.5 120 t-67.5 74t-88.5 37.5t-96.5 10.5t-93 -10.5t-79.5 -34.5t-55 -62.5t-20.5 -94.5q0 -74 42 -120t128 -72l256 -76q52 -16 96.5 -40t76 -58.5t49.5 -81.5t18 -108q0 -83 -32 -141.5t-84.5 -95t-121.5 -53t-142 -16.5q-74 0 -145 17t-128 57t-95.5 105t-45.5 161h100zM564 1510 h136l-178 -234h-58z" />
<glyph unicode="&#x15b;" horiz-adv-x="894" d="M210 272q3 -57 27 -96.5t61 -64.5t82 -36t90 -11t83 10t65 30t42.5 50t15.5 70q0 42 -17.5 70t-50 48t-78.5 35.5t-104 32.5q-56 16 -105 35t-86.5 46.5t-59 66.5t-21.5 96q0 55 21.5 97t60 70.5t92 43.5t118.5 15q62 0 117 -16t96.5 -49.5t67 -85t29.5 -121.5h-94 q-3 51 -22 86.5t-49 58t-69.5 33t-83.5 10.5q-89 0 -138.5 -37t-49.5 -103q0 -41 19 -67.5t53.5 -45.5t82 -33.5t105.5 -31.5q53 -16 100.5 -34.5t83.5 -46.5t57 -68.5t21 -100.5q0 -116 -79 -182t-225 -66q-69 0 -131 18t-109.5 54t-77.5 91t-34 129h94zM492 1296h136 l-178 -234h-58z" />
<glyph unicode="&#x15c;" horiz-adv-x="1066" d="M228 320q5 -73 34.5 -120.5t74 -76t99 -40t110.5 -11.5q55 0 105 11.5t87.5 37t59.5 66t22 97.5q0 80 -45.5 125.5t-122.5 68.5l-256 76q-118 35 -180 107t-62 181q0 67 24.5 121.5t71 93t113.5 59t151 20.5q169 0 266.5 -85.5t109.5 -248.5h-100q-6 73 -33.5 120 t-67.5 74t-88.5 37.5t-96.5 10.5t-93 -10.5t-79.5 -34.5t-55 -62.5t-20.5 -94.5q0 -74 42 -120t128 -72l256 -76q52 -16 96.5 -40t76 -58.5t49.5 -81.5t18 -108q0 -83 -32 -141.5t-84.5 -95t-121.5 -53t-142 -16.5q-74 0 -145 17t-128 57t-95.5 105t-45.5 161h100zM482 1512 h80l208 -248h-78l-170 156l-170 -156h-78z" />
<glyph unicode="&#x15d;" horiz-adv-x="894" d="M210 272q3 -57 27 -96.5t61 -64.5t82 -36t90 -11t83 10t65 30t42.5 50t15.5 70q0 42 -17.5 70t-50 48t-78.5 35.5t-104 32.5q-56 16 -105 35t-86.5 46.5t-59 66.5t-21.5 96q0 55 21.5 97t60 70.5t92 43.5t118.5 15q62 0 117 -16t96.5 -49.5t67 -85t29.5 -121.5h-94 q-3 51 -22 86.5t-49 58t-69.5 33t-83.5 10.5q-89 0 -138.5 -37t-49.5 -103q0 -41 19 -67.5t53.5 -45.5t82 -33.5t105.5 -31.5q53 -16 100.5 -34.5t83.5 -46.5t57 -68.5t21 -100.5q0 -116 -79 -182t-225 -66q-69 0 -131 18t-109.5 54t-77.5 91t-34 129h94zM410 1298h80 l208 -248h-78l-170 156l-170 -156h-78z" />
<glyph unicode="&#x15e;" horiz-adv-x="1066" d="M228 320q5 -73 34.5 -120.5t74 -76t99 -40t110.5 -11.5q55 0 105 11.5t87.5 37t59.5 66t22 97.5q0 80 -45.5 125.5t-122.5 68.5l-256 76q-118 35 -180 107t-62 181q0 67 24.5 121.5t71 93t113.5 59t151 20.5q169 0 266.5 -85.5t109.5 -248.5h-100q-6 73 -33.5 120 t-67.5 74t-88.5 37.5t-96.5 10.5t-93 -10.5t-79.5 -34.5t-55 -62.5t-20.5 -94.5q0 -74 42 -120t128 -72l256 -76q52 -16 96.5 -40t76 -58.5t49.5 -81.5t18 -108q0 -83 -32 -141.5t-84.5 -95t-121.5 -53t-142 -16.5q-74 0 -145 17t-128 57t-95.5 105t-45.5 161h100zM466 -244 q3 -36 25.5 -50t48.5 -14q35 0 58.5 21.5t23.5 62.5q0 44 -25.5 63t-58.5 19q-27 0 -49.5 -11t-36.5 -31l-46 22l58 162h56l-36 -102q17 12 38 17t44 5q66 0 104 -38.5t38 -103.5q0 -38 -13 -66t-35.5 -47.5t-51.5 -29t-60 -9.5q-66 0 -109.5 32.5t-46.5 97.5h74z" />
<glyph unicode="&#x15f;" horiz-adv-x="894" d="M210 272q3 -57 27 -96.5t61 -64.5t82 -36t90 -11t83 10t65 30t42.5 50t15.5 70q0 42 -17.5 70t-50 48t-78.5 35.5t-104 32.5q-56 16 -105 35t-86.5 46.5t-59 66.5t-21.5 96q0 55 21.5 97t60 70.5t92 43.5t118.5 15q62 0 117 -16t96.5 -49.5t67 -85t29.5 -121.5h-94 q-3 51 -22 86.5t-49 58t-69.5 33t-83.5 10.5q-89 0 -138.5 -37t-49.5 -103q0 -41 19 -67.5t53.5 -45.5t82 -33.5t105.5 -31.5q53 -16 100.5 -34.5t83.5 -46.5t57 -68.5t21 -100.5q0 -116 -79 -182t-225 -66q-69 0 -131 18t-109.5 54t-77.5 91t-34 129h94zM414 -244 q3 -36 25.5 -50t48.5 -14q35 0 58.5 21.5t23.5 62.5q0 44 -25.5 63t-58.5 19q-27 0 -49.5 -11t-36.5 -31l-46 22l58 162h56l-36 -102q17 12 38 17t44 5q66 0 104 -38.5t38 -103.5q0 -38 -13 -66t-35.5 -47.5t-51.5 -29t-60 -9.5q-66 0 -109.5 32.5t-46.5 97.5h74z" />
<glyph unicode="&#x160;" horiz-adv-x="1066" d="M228 320q5 -73 34.5 -120.5t74 -76t99 -40t110.5 -11.5q55 0 105 11.5t87.5 37t59.5 66t22 97.5q0 80 -45.5 125.5t-122.5 68.5l-256 76q-118 35 -180 107t-62 181q0 67 24.5 121.5t71 93t113.5 59t151 20.5q169 0 266.5 -85.5t109.5 -248.5h-100q-6 73 -33.5 120 t-67.5 74t-88.5 37.5t-96.5 10.5t-93 -10.5t-79.5 -34.5t-55 -62.5t-20.5 -94.5q0 -74 42 -120t128 -72l256 -76q52 -16 96.5 -40t76 -58.5t49.5 -81.5t18 -108q0 -83 -32 -141.5t-84.5 -95t-121.5 -53t-142 -16.5q-74 0 -145 17t-128 57t-95.5 105t-45.5 161h100zM274 1512 h78l170 -156l170 156h78l-208 -248h-80z" />
<glyph unicode="&#x161;" horiz-adv-x="894" d="M210 272q3 -57 27 -96.5t61 -64.5t82 -36t90 -11t83 10t65 30t42.5 50t15.5 70q0 42 -17.5 70t-50 48t-78.5 35.5t-104 32.5q-56 16 -105 35t-86.5 46.5t-59 66.5t-21.5 96q0 55 21.5 97t60 70.5t92 43.5t118.5 15q62 0 117 -16t96.5 -49.5t67 -85t29.5 -121.5h-94 q-3 51 -22 86.5t-49 58t-69.5 33t-83.5 10.5q-89 0 -138.5 -37t-49.5 -103q0 -41 19 -67.5t53.5 -45.5t82 -33.5t105.5 -31.5q53 -16 100.5 -34.5t83.5 -46.5t57 -68.5t21 -100.5q0 -116 -79 -182t-225 -66q-69 0 -131 18t-109.5 54t-77.5 91t-34 129h94zM202 1298h78 l170 -156l170 156h78l-208 -248h-80z" />
<glyph unicode="&#x162;" horiz-adv-x="906" d="M402 1026h-358v90h818v-90h-358v-1026h-102v1026zM462 -224h-76v136h136v-136l-80 -172h-56z" />
<glyph unicode="&#x163;" horiz-adv-x="626" d="M204 776h-144v84h74q44 0 64 19t20 61v196h82v-276h258v-84h-258v-548q0 -47 8.5 -78.5t25 -50t41.5 -26t59 -7.5q32 0 63 7.5t51 16.5v-86q-14 -8 -46.5 -16t-77.5 -8q-51 0 -92 12.5t-69.5 40.5t-43.5 72t-15 107v564zM408 -224h-76v136h136v-136l-80 -172h-56z" />
<glyph unicode="&#x164;" horiz-adv-x="906" d="M402 1026h-358v90h818v-90h-358v-1026h-102v1026zM206 1512h78l170 -156l170 156h78l-208 -248h-80z" />
<glyph unicode="&#x165;" horiz-adv-x="626" d="M480 1324h136l-138 -316h-50zM204 776h-144v84h74q44 0 64 19t20 61v196h82v-276h258v-84h-258v-548q0 -47 8.5 -78.5t25 -50t41.5 -26t59 -7.5q32 0 63 7.5t51 16.5v-86q-14 -8 -46.5 -16t-77.5 -8q-51 0 -92 12.5t-69.5 40.5t-43.5 72t-15 107v564z" />
<glyph unicode="&#x166;" horiz-adv-x="958" d="M218 616h210v410h-358v90h818v-90h-358v-410h210v-84h-210v-532h-102v532h-210v84z" />
<glyph unicode="&#x167;" horiz-adv-x="658" d="M118 526h102v250h-144v84h74q44 0 64 19t20 61v196h82v-276h258v-84h-258v-250h212v-76h-212v-222q0 -47 8.5 -78.5t25 -50t41.5 -26t59 -7.5q32 0 63 7.5t51 16.5v-86q-14 -8 -46.5 -16t-77.5 -8q-51 0 -92 12.5t-69.5 40.5t-43.5 72t-15 107v238h-102v76z" />
<glyph unicode="&#x168;" horiz-adv-x="1164" d="M176 1116h102v-712q0 -92 18 -155.5t55.5 -102.5t95 -56.5t135.5 -17.5t135 17.5t94.5 56.5t56 102.5t18.5 155.5v712h102v-730q0 -104 -27 -180.5t-78.5 -126.5t-127.5 -74.5t-173 -24.5q-98 0 -173.5 24.5t-127 74.5t-78.5 126.5t-27 180.5v730zM346 1414 q18 33 51 54.5t75 21.5q45 0 77 -22t59 -46q23 -20 45 -34t49 -14q35 0 65.5 22t50.5 46v-76q-18 -33 -51 -54.5t-75 -21.5t-72 19.5t-56 42.5q-24 21 -48 37.5t-54 16.5q-35 0 -65.5 -22t-50.5 -46v76z" />
<glyph unicode="&#x169;" horiz-adv-x="968" d="M156 860h96v-528q0 -71 12 -121t38 -82.5t67.5 -47.5t100.5 -15q43 0 79 9t65 23t51 32t37 36v694h96v-860h-78v98q-21 -23 -48.5 -44.5t-62 -38t-75 -26t-86.5 -9.5q-153 0 -222.5 86t-69.5 244v550zM240 1200q18 33 51 54.5t75 21.5q45 0 77 -22t59 -46q23 -20 45 -34 t49 -14q35 0 65.5 22t50.5 46v-76q-18 -33 -51 -54.5t-75 -21.5t-72 19.5t-56 42.5q-24 21 -48 37.5t-54 16.5q-35 0 -65.5 -22t-50.5 -46v76z" />
<glyph unicode="&#x16a;" horiz-adv-x="1164" d="M176 1116h102v-712q0 -92 18 -155.5t55.5 -102.5t95 -56.5t135.5 -17.5t135 17.5t94.5 56.5t56 102.5t18.5 155.5v712h102v-730q0 -104 -27 -180.5t-78.5 -126.5t-127.5 -74.5t-173 -24.5q-98 0 -173.5 24.5t-127 74.5t-78.5 126.5t-27 180.5v730zM356 1438h452v-84h-452 v84z" />
<glyph unicode="&#x16b;" horiz-adv-x="968" d="M156 860h96v-528q0 -71 12 -121t38 -82.5t67.5 -47.5t100.5 -15q43 0 79 9t65 23t51 32t37 36v694h96v-860h-78v98q-21 -23 -48.5 -44.5t-62 -38t-75 -26t-86.5 -9.5q-153 0 -222.5 86t-69.5 244v550zM250 1224h452v-84h-452v84z" />
<glyph unicode="&#x16c;" horiz-adv-x="1164" d="M176 1116h102v-712q0 -92 18 -155.5t55.5 -102.5t95 -56.5t135.5 -17.5t135 17.5t94.5 56.5t56 102.5t18.5 155.5v712h102v-730q0 -104 -27 -180.5t-78.5 -126.5t-127.5 -74.5t-173 -24.5q-98 0 -173.5 24.5t-127 74.5t-78.5 126.5t-27 180.5v730zM582 1258 q-63 0 -105.5 20.5t-68 56.5t-36 83.5t-10.5 101.5h70q0 -89 39.5 -136.5t110.5 -47.5t110.5 47.5t39.5 136.5h70q0 -54 -11 -101.5t-36.5 -83.5t-67.5 -56.5t-105 -20.5z" />
<glyph unicode="&#x16d;" horiz-adv-x="968" d="M156 860h96v-528q0 -71 12 -121t38 -82.5t67.5 -47.5t100.5 -15q43 0 79 9t65 23t51 32t37 36v694h96v-860h-78v98q-21 -23 -48.5 -44.5t-62 -38t-75 -26t-86.5 -9.5q-153 0 -222.5 86t-69.5 244v550zM476 1044q-63 0 -105.5 20.5t-68 56.5t-36 83.5t-10.5 101.5h70 q0 -89 39.5 -136.5t110.5 -47.5t110.5 47.5t39.5 136.5h70q0 -54 -11 -101.5t-36.5 -83.5t-67.5 -56.5t-105 -20.5z" />
<glyph unicode="&#x16e;" horiz-adv-x="1164" d="M176 1116h102v-712q0 -92 18 -155.5t55.5 -102.5t95 -56.5t135.5 -17.5t135 17.5t94.5 56.5t56 102.5t18.5 155.5v712h102v-730q0 -104 -27 -180.5t-78.5 -126.5t-127.5 -74.5t-173 -24.5q-98 0 -173.5 24.5t-127 74.5t-78.5 126.5t-27 180.5v730zM582 1286q47 0 78.5 30 t31.5 84t-31.5 84t-78.5 30t-78.5 -30t-31.5 -84t31.5 -84t78.5 -30zM582 1218q-35 0 -68.5 12.5t-59.5 36.5t-42 57.5t-16 75.5t16 75.5t42 57.5t59.5 36.5t68.5 12.5t68.5 -12.5t59.5 -36.5t42 -57.5t16 -75.5t-16 -75.5t-42 -57.5t-59.5 -36.5t-68.5 -12.5z" />
<glyph unicode="&#x16f;" horiz-adv-x="968" d="M156 860h96v-528q0 -71 12 -121t38 -82.5t67.5 -47.5t100.5 -15q43 0 79 9t65 23t51 32t37 36v694h96v-860h-78v98q-21 -23 -48.5 -44.5t-62 -38t-75 -26t-86.5 -9.5q-153 0 -222.5 86t-69.5 244v550zM476 1072q47 0 78.5 30t31.5 84t-31.5 84t-78.5 30t-78.5 -30 t-31.5 -84t31.5 -84t78.5 -30zM476 1004q-35 0 -68.5 12.5t-59.5 36.5t-42 57.5t-16 75.5t16 75.5t42 57.5t59.5 36.5t68.5 12.5t68.5 -12.5t59.5 -36.5t42 -57.5t16 -75.5t-16 -75.5t-42 -57.5t-59.5 -36.5t-68.5 -12.5z" />
<glyph unicode="&#x170;" horiz-adv-x="1164" d="M176 1116h102v-712q0 -92 18 -155.5t55.5 -102.5t95 -56.5t135.5 -17.5t135 17.5t94.5 56.5t56 102.5t18.5 155.5v712h102v-730q0 -104 -27 -180.5t-78.5 -126.5t-127.5 -74.5t-173 -24.5q-98 0 -173.5 24.5t-127 74.5t-78.5 126.5t-27 180.5v730zM506 1510h136 l-178 -234h-58zM798 1510h136l-178 -234h-58z" />
<glyph unicode="&#x171;" horiz-adv-x="968" d="M156 860h96v-528q0 -71 12 -121t38 -82.5t67.5 -47.5t100.5 -15q43 0 79 9t65 23t51 32t37 36v694h96v-860h-78v98q-21 -23 -48.5 -44.5t-62 -38t-75 -26t-86.5 -9.5q-153 0 -222.5 86t-69.5 244v550zM400 1296h136l-178 -234h-58zM692 1296h136l-178 -234h-58z" />
<glyph unicode="&#x172;" horiz-adv-x="1164" d="M752 -244q-5 -60 -43.5 -95t-104.5 -35q-68 0 -111 37t-43 105q0 67 46.5 117.5t123.5 94.5h-38q-98 0 -173.5 24.5t-127 74.5t-78.5 126.5t-27 180.5v730h102v-712q0 -92 18 -155.5t55.5 -102.5t95 -56.5t135.5 -17.5t135 17.5t94.5 56.5t56 102.5t18.5 155.5v712h102 v-730q0 -137 -48 -226.5t-134 -133.5q-73 -37 -124 -69t-83.5 -62.5t-47.5 -60.5t-15 -62q0 -35 17 -57.5t53 -22.5q27 0 49 14.5t25 49.5h72z" />
<glyph unicode="&#x173;" horiz-adv-x="968" d="M798 -244q-5 -60 -43.5 -95t-104.5 -35q-68 0 -111 37t-43 105q0 41 16.5 75t46.5 62.5t71 54t90 50.5v88q-21 -23 -48.5 -44.5t-62 -38t-75 -26t-86.5 -9.5q-153 0 -222.5 86t-69.5 244v550h96v-528q0 -71 12 -121t38 -82.5t67.5 -47.5t100.5 -15q43 0 79 9t65 23t51 32 t37 36v694h96v-860q-47 -27 -87 -53t-68.5 -53.5t-44.5 -57.5t-16 -64q0 -35 17 -57.5t53 -22.5q27 0 49 14.5t25 49.5h72z" />
<glyph unicode="&#x174;" horiz-adv-x="1566" d="M70 1116h106l282 -1018l270 1018h114l270 -1018l282 1018h102l-326 -1116h-120l-266 1002l-266 -1002h-122zM744 1512h80l208 -248h-78l-170 156l-170 -156h-78z" />
<glyph unicode="&#x175;" horiz-adv-x="1292" d="M62 860h100l214 -744l218 744h100l222 -744l216 744h98l-268 -860h-96l-222 756l-218 -756h-98zM606 1298h80l208 -248h-78l-170 156l-170 -156h-78z" />
<glyph unicode="&#x176;" horiz-adv-x="994" d="M446 458l-404 658h118l338 -568l342 568h112l-404 -658v-458h-102v458zM456 1512h80l208 -248h-78l-170 156l-170 -156h-78z" />
<glyph unicode="&#x177;" horiz-adv-x="866" d="M50 -316q20 -6 39.5 -10t48.5 -4q36 0 63 8.5t48 29t39 54.5t36 84l60 162l-320 852h102l268 -754l268 754h100l-384 -1026q-23 -61 -46.5 -107.5t-55 -78t-73.5 -48t-101 -16.5q-35 0 -57.5 5t-34.5 11v84zM394 1298h80l208 -248h-78l-170 156l-170 -156h-78z" />
<glyph unicode="&#x178;" horiz-adv-x="994" d="M446 458l-404 658h118l338 -568l342 568h112l-404 -658v-458h-102v458zM262 1460h132v-134h-132v134zM598 1460h132v-134h-132v134z" />
<glyph unicode="&#x179;" horiz-adv-x="974" d="M92 84l648 942h-620v90h738v-84l-648 -942h676v-90h-794v84zM560 1510h136l-178 -234h-58z" />
<glyph unicode="&#x17a;" horiz-adv-x="840" d="M110 76l504 700h-492v84h604v-76l-504 -700h516v-84h-628v76zM466 1296h136l-178 -234h-58z" />
<glyph unicode="&#x17b;" horiz-adv-x="974" d="M92 84l648 942h-620v90h738v-84l-648 -942h676v-90h-794v84zM444 1466h148v-148h-148v148z" />
<glyph unicode="&#x17c;" horiz-adv-x="840" d="M110 76l504 700h-492v84h604v-76l-504 -700h516v-84h-628v76zM358 1246h132v-134h-132v134z" />
<glyph unicode="&#x17d;" horiz-adv-x="974" d="M92 84l648 942h-620v90h738v-84l-648 -942h676v-90h-794v84zM270 1512h78l170 -156l170 156h78l-208 -248h-80z" />
<glyph unicode="&#x17e;" horiz-adv-x="840" d="M110 76l504 700h-492v84h604v-76l-504 -700h516v-84h-628v76zM176 1298h78l170 -156l170 156h78l-208 -248h-80z" />
<glyph unicode="&#x192;" horiz-adv-x="988" d="M486 248q-14 -81 -38.5 -133t-56 -82t-70 -41.5t-81.5 -11.5q-52 0 -87 13t-56 35t-30 51t-9 61q0 14 0.5 28t3.5 32h90q-2 -11 -3 -23.5t-1 -24.5q0 -27 7.5 -45t20.5 -29t29.5 -15.5t34.5 -4.5q37 0 62 15t42.5 41.5t28.5 63t19 80.5l70 372h-146l16 84h142l28 154 q15 81 39.5 133t56 82t69.5 41.5t81 11.5q52 0 87 -13t56 -35t30 -51t9 -61q0 -14 -0.5 -28t-3.5 -32h-90q2 11 3 23.5t1 24.5q0 27 -7.5 45t-20.5 29t-29.5 15.5t-34.5 4.5q-35 0 -60 -14t-43 -40t-29.5 -63t-19.5 -83l-26 -144h198l-16 -84h-198z" />
<glyph unicode="&#x1fc;" horiz-adv-x="1604" d="M712 1116h760v-90h-612v-410h514v-90h-514v-436h612v-90h-714v292h-474l-190 -292h-112zM758 378v648h-6l-414 -648h420zM902 1510h136l-178 -234h-58z" />
<glyph unicode="&#x1fd;" horiz-adv-x="1482" d="M130 584q0 65 19.5 119.5t59 93.5t98.5 61t139 22q116 0 180 -44.5t88 -129.5q25 48 58 81t71.5 54t80.5 30t86 9q64 0 128.5 -22t116.5 -74t84.5 -137.5t32.5 -212.5v-18h-628q3 -169 71 -259.5t205 -90.5q109 0 171 55t79 155h94q-11 -87 -46.5 -144t-84.5 -91 t-106 -47.5t-109 -13.5q-88 0 -164.5 33.5t-129.5 110.5q-28 -28 -66 -54t-83.5 -46t-96.5 -32t-104 -12q-69 0 -120.5 17t-85.5 48.5t-51 74.5t-17 96q0 48 15.5 84.5t44.5 65.5q45 45 113 67.5t153 30.5l220 18v54q0 61 -8.5 109t-31 81.5t-62 51.5t-102.5 18t-105 -17 t-67 -46t-35.5 -67.5t-10.5 -81.5h-94zM372 64q47 0 93 11.5t86.5 29.5t75 41.5t59.5 47.5q-18 44 -28 97.5t-12 118.5l-190 -18q-85 -8 -136.5 -25t-83.5 -49q-40 -40 -40 -102q0 -34 10.5 -62t32 -48t54.5 -31t79 -11zM1276 492q-5 68 -24.5 124t-52.5 96t-80.5 62 t-108.5 22q-62 0 -108.5 -22t-79.5 -62t-52 -96t-24 -124h530zM750 1296h136l-178 -234h-58z" />
<glyph unicode="&#x1fe;" horiz-adv-x="1228" d="M52 -28l172 202q-48 74 -71 171t-23 213q0 130 30 236.5t90 182.5t151 117.5t213 41.5q107 0 190 -33t142 -93l164 190l66 -56l-174 -202q48 -74 72 -171t24 -213q0 -130 -30 -236.5t-90 -182.5t-151 -117.5t-213 -41.5q-109 0 -191.5 32t-142.5 92l-162 -188zM234 558 q0 -83 13.5 -161t48.5 -143l586 680q-44 51 -109 80.5t-159 29.5q-112 0 -185 -42t-116.5 -110.5t-61 -155.5t-17.5 -178zM614 72q112 0 185 42t116.5 110.5t61 155.5t17.5 178q0 81 -14.5 159.5t-47.5 144.5l-588 -682q45 -50 110.5 -79t159.5 -29zM656 1510h136l-178 -234 h-58z" />
<glyph unicode="&#x1ff;" horiz-adv-x="988" d="M42 -28l144 166q-32 51 -50 123t-18 169q0 132 34 219t88 138t121 72t133 21t133 -21.5t121 -72.5l138 158l60 -54l-146 -168q32 -51 51 -123t19 -169q0 -132 -34 -219t-88 -138t-121 -72t-133 -21q-33 0 -67 5t-67 16t-64 29t-58 44l-136 -156zM494 66q137 0 207.5 92 t70.5 272q0 130 -40 216l-434 -502q69 -78 196 -78zM216 430q0 -134 38 -216l434 502q-35 38 -83.5 58t-110.5 20q-137 0 -207.5 -92t-70.5 -272zM536 1296h136l-178 -234h-58z" />
<glyph unicode="&#x218;" horiz-adv-x="1066" d="M228 320q5 -73 34.5 -120.5t74 -76t99 -40t110.5 -11.5q55 0 105 11.5t87.5 37t59.5 66t22 97.5q0 80 -45.5 125.5t-122.5 68.5l-256 76q-118 35 -180 107t-62 181q0 67 24.5 121.5t71 93t113.5 59t151 20.5q169 0 266.5 -85.5t109.5 -248.5h-100q-6 73 -33.5 120 t-67.5 74t-88.5 37.5t-96.5 10.5t-93 -10.5t-79.5 -34.5t-55 -62.5t-20.5 -94.5q0 -74 42 -120t128 -72l256 -76q52 -16 96.5 -40t76 -58.5t49.5 -81.5t18 -108q0 -83 -32 -141.5t-84.5 -95t-121.5 -53t-142 -16.5q-74 0 -145 17t-128 57t-95.5 105t-45.5 161h100zM530 -224 h-76v136h136v-136l-80 -172h-56z" />
<glyph unicode="&#x219;" horiz-adv-x="894" d="M210 272q3 -57 27 -96.5t61 -64.5t82 -36t90 -11t83 10t65 30t42.5 50t15.5 70q0 42 -17.5 70t-50 48t-78.5 35.5t-104 32.5q-56 16 -105 35t-86.5 46.5t-59 66.5t-21.5 96q0 55 21.5 97t60 70.5t92 43.5t118.5 15q62 0 117 -16t96.5 -49.5t67 -85t29.5 -121.5h-94 q-3 51 -22 86.5t-49 58t-69.5 33t-83.5 10.5q-89 0 -138.5 -37t-49.5 -103q0 -41 19 -67.5t53.5 -45.5t82 -33.5t105.5 -31.5q53 -16 100.5 -34.5t83.5 -46.5t57 -68.5t21 -100.5q0 -116 -79 -182t-225 -66q-69 0 -131 18t-109.5 54t-77.5 91t-34 129h94zM478 -224h-76v136 h136v-136l-80 -172h-56z" />
<glyph unicode="&#x21a;" horiz-adv-x="906" d="M402 1026h-358v90h818v-90h-358v-1026h-102v1026zM462 -224h-76v136h136v-136l-80 -172h-56z" />
<glyph unicode="&#x21b;" horiz-adv-x="626" d="M204 776h-144v84h74q44 0 64 19t20 61v196h82v-276h258v-84h-258v-548q0 -47 8.5 -78.5t25 -50t41.5 -26t59 -7.5q32 0 63 7.5t51 16.5v-86q-14 -8 -46.5 -16t-77.5 -8q-51 0 -92 12.5t-69.5 40.5t-43.5 72t-15 107v564zM408 -224h-76v136h136v-136l-80 -172h-56z" />
<glyph unicode="&#x237;" horiz-adv-x="440" d="M-24 -316q14 -6 35.5 -10t42.5 -4q35 0 58.5 12t37 33.5t19 51.5t5.5 67v1026h96v-1036q0 -55 -11 -99t-36.5 -75.5t-66.5 -48.5t-100 -17q-29 0 -49 5t-31 11v84z" />
<glyph unicode="&#x2c6;" horiz-adv-x="792" d="M356 1298h80l208 -248h-78l-170 156l-170 -156h-78z" />
<glyph unicode="&#x2c7;" horiz-adv-x="792" d="M148 1298h78l170 -156l170 156h78l-208 -248h-80z" />
<glyph unicode="&#x2d8;" horiz-adv-x="792" d="M396 1044q-63 0 -105.5 20.5t-68 56.5t-36 83.5t-10.5 101.5h70q0 -89 39.5 -136.5t110.5 -47.5t110.5 47.5t39.5 136.5h70q0 -54 -11 -101.5t-36.5 -83.5t-67.5 -56.5t-105 -20.5z" />
<glyph unicode="&#x2d9;" horiz-adv-x="792" d="M330 1246h132v-134h-132v134z" />
<glyph unicode="&#x2da;" horiz-adv-x="792" d="M396 1072q47 0 78.5 30t31.5 84t-31.5 84t-78.5 30t-78.5 -30t-31.5 -84t31.5 -84t78.5 -30zM396 1004q-35 0 -68.5 12.5t-59.5 36.5t-42 57.5t-16 75.5t16 75.5t42 57.5t59.5 36.5t68.5 12.5t68.5 -12.5t59.5 -36.5t42 -57.5t16 -75.5t-16 -75.5t-42 -57.5t-59.5 -36.5 t-68.5 -12.5z" />
<glyph unicode="&#x2db;" horiz-adv-x="792" d="M546 -244q-5 -60 -43.5 -95t-104.5 -35q-68 0 -111 37t-43 105q0 46 22 83.5t59.5 69.5t88.5 60t110 57l22 -38q-47 -27 -87 -53t-68.5 -53.5t-44.5 -57.5t-16 -64q0 -35 17 -57.5t53 -22.5q27 0 49 14.5t25 49.5h72z" />
<glyph unicode="&#x2dc;" horiz-adv-x="792" d="M160 1200q18 33 51 54.5t75 21.5q45 0 77 -22t59 -46q23 -20 45 -34t49 -14q35 0 65.5 22t50.5 46v-76q-18 -33 -51 -54.5t-75 -21.5t-72 19.5t-56 42.5q-24 21 -48 37.5t-54 16.5q-35 0 -65.5 -22t-50.5 -46v76z" />
<glyph unicode="&#x2dd;" horiz-adv-x="792" d="M232 1296h136l-178 -234h-58zM524 1296h136l-178 -234h-58z" />
<glyph unicode="&#x312;" horiz-adv-x="792" d="M388 1180h76v-136h-136v136l80 172h56z" />
<glyph unicode="&#x326;" horiz-adv-x="792" d="M404 -224h-76v136h136v-136l-80 -172h-56z" />
<glyph unicode="&#x3c0;" horiz-adv-x="992" d="M208 776h-144v84h864v-84h-144v-776h-96v776h-384v-776h-96v776z" />
<glyph unicode="&#x1e80;" horiz-adv-x="1566" d="M70 1116h106l282 -1018l270 1018h114l270 -1018l282 1018h102l-326 -1116h-120l-266 1002l-266 -1002h-122zM606 1510h136l100 -234h-58z" />
<glyph unicode="&#x1e81;" horiz-adv-x="1292" d="M62 860h100l214 -744l218 744h100l222 -744l216 744h98l-268 -860h-96l-222 756l-218 -756h-98zM468 1296h136l100 -234h-58z" />
<glyph unicode="&#x1e82;" horiz-adv-x="1566" d="M70 1116h106l282 -1018l270 1018h114l270 -1018l282 1018h102l-326 -1116h-120l-266 1002l-266 -1002h-122zM826 1510h136l-178 -234h-58z" />
<glyph unicode="&#x1e83;" horiz-adv-x="1292" d="M62 860h100l214 -744l218 744h100l222 -744l216 744h98l-268 -860h-96l-222 756l-218 -756h-98zM688 1296h136l-178 -234h-58z" />
<glyph unicode="&#x1e84;" horiz-adv-x="1566" d="M70 1116h106l282 -1018l270 1018h114l270 -1018l282 1018h102l-326 -1116h-120l-266 1002l-266 -1002h-122zM550 1460h132v-134h-132v134zM886 1460h132v-134h-132v134z" />
<glyph unicode="&#x1e85;" horiz-adv-x="1292" d="M62 860h100l214 -744l218 744h100l222 -744l216 744h98l-268 -860h-96l-222 756l-218 -756h-98zM412 1246h132v-134h-132v134zM748 1246h132v-134h-132v134z" />
<glyph unicode="&#x1ef2;" horiz-adv-x="994" d="M446 458l-404 658h118l338 -568l342 568h112l-404 -658v-458h-102v458zM318 1510h136l100 -234h-58z" />
<glyph unicode="&#x1ef3;" horiz-adv-x="866" d="M50 -316q20 -6 39.5 -10t48.5 -4q36 0 63 8.5t48 29t39 54.5t36 84l60 162l-320 852h102l268 -754l268 754h100l-384 -1026q-23 -61 -46.5 -107.5t-55 -78t-73.5 -48t-101 -16.5q-35 0 -57.5 5t-34.5 11v84zM257 1296h136l100 -234h-58z" />
<glyph unicode="&#x2013;" d="M130 506h780v-88h-780v88z" />
<glyph unicode="&#x2014;" horiz-adv-x="1448" d="M134 506h1180v-88h-1180v88z" />
<glyph unicode="&#x2018;" horiz-adv-x="466" d="M160 936l84 260h62l-78 -260h78v-146h-146v146z" />
<glyph unicode="&#x2019;" horiz-adv-x="466" d="M306 1050l-84 -260h-62l78 260h-78v146h146v-146z" />
<glyph unicode="&#x201a;" horiz-adv-x="546" d="M346 0l-84 -260h-62l78 260h-78v146h146v-146z" />
<glyph unicode="&#x201c;" horiz-adv-x="728" d="M160 936l84 260h62l-78 -260h78v-146h-146v146zM422 936l84 260h62l-78 -260h78v-146h-146v146z" />
<glyph unicode="&#x201d;" horiz-adv-x="728" d="M306 1050l-84 -260h-62l78 260h-78v146h146v-146zM568 1050l-84 -260h-62l78 260h-78v146h146v-146z" />
<glyph unicode="&#x201e;" horiz-adv-x="808" d="M346 0l-84 -260h-62l78 260h-78v146h146v-146zM608 0l-84 -260h-62l78 260h-78v146h146v-146z" />
<glyph unicode="&#x2020;" horiz-adv-x="716" d="M318 960h-236v72h236v232h80v-232h236v-72h-236v-522h-80v522z" />
<glyph unicode="&#x2021;" horiz-adv-x="716" d="M318 662h-236v72h236v226h-236v72h236v232h80v-232h236v-72h-236v-226h236v-72h-236v-522h-80v522z" />
<glyph unicode="&#x2022;" horiz-adv-x="636" d="M152 466q0 34 10 63.5t31 52t52 35.5t73 13t73 -13t52 -35.5t31 -52t10 -63.5t-10 -63.5t-31 -52t-52 -35.5t-73 -13t-73 13t-52 35.5t-31 52t-10 63.5z" />
<glyph unicode="&#x2026;" horiz-adv-x="1310" d="M188 146h146v-146h-146v146zM582 146h146v-146h-146v146zM976 146h146v-146h-146v146z" />
<glyph unicode="&#x2030;" horiz-adv-x="2060" d="M1692 52q90 0 133 65.5t43 178.5q0 56 -10.5 101.5t-32.5 77t-55 48.5t-78 17q-46 0 -79 -17t-54.5 -48.5t-32 -77t-10.5 -101.5t10.5 -101.5t32 -77t54.5 -48.5t79 -17zM1692 -20q-48 0 -94.5 15.5t-82.5 52t-58.5 97t-22.5 151.5t22.5 151.5t58.5 97t82.5 52t94.5 15.5 q47 0 93.5 -15.5t83 -52t59 -97t22.5 -151.5t-22.5 -151.5t-59 -97t-83 -52t-93.5 -15.5zM368 576q90 0 133 65.5t43 178.5q0 56 -10.5 101.5t-32.5 77t-55 48.5t-78 17q-46 0 -79 -17t-54.5 -48.5t-32 -77t-10.5 -101.5t10.5 -101.5t32 -77t54.5 -48.5t79 -17zM368 504 q-48 0 -94.5 15.5t-82.5 52t-58.5 97t-22.5 151.5t22.5 151.5t58.5 97t82.5 52t94.5 15.5q47 0 93.5 -15.5t83 -52t59 -97t22.5 -151.5t-22.5 -151.5t-59 -97t-83 -52t-93.5 -15.5zM1020 1116h94l-682 -1116h-94zM1084 52q90 0 133 65.5t43 178.5q0 56 -10.5 101.5t-32.5 77 t-55 48.5t-78 17q-46 0 -79 -17t-54.5 -48.5t-32 -77t-10.5 -101.5t10.5 -101.5t32 -77t54.5 -48.5t79 -17zM1084 -20q-48 0 -94.5 15.5t-82.5 52t-58.5 97t-22.5 151.5t22.5 151.5t58.5 97t82.5 52t94.5 15.5q47 0 93.5 -15.5t83 -52t59 -97t22.5 -151.5t-22.5 -151.5 t-59 -97t-83 -52t-93.5 -15.5z" />
<glyph unicode="&#x2039;" horiz-adv-x="662" d="M150 466l272 300h98l-262 -300l262 -300h-98z" />
<glyph unicode="&#x203a;" horiz-adv-x="662" d="M404 466l-262 300h98l272 -300l-272 -300h-98z" />
<glyph unicode="&#x2044;" horiz-adv-x="320" d="M460 1116h88l-688 -1116h-88z" />
<glyph unicode="&#x2070;" horiz-adv-x="640" d="M322 510q47 0 79.5 19.5t52 55.5t28 86.5t8.5 112.5t-8.5 112t-28 84.5t-52 53t-79.5 18.5q-49 0 -82 -18.5t-53 -53t-28.5 -84.5t-8.5 -112t8.5 -112.5t28.5 -86.5t53 -55.5t82 -19.5zM322 434q-68 0 -117.5 27t-81 74.5t-46.5 111t-15 137.5t15 137t46.5 109t81 72 t117.5 26q67 0 115 -26t79.5 -72t46.5 -109t15 -137t-15 -137.5t-46.5 -111t-79.5 -74.5t-115 -27z" />
<glyph unicode="&#x2074;" horiz-adv-x="584" d="M450 1116v-448h92v-72h-92v-150h-86v150h-334v60l338 460h82zM364 990l-238 -322h238v322z" />
<glyph unicode="&#x2075;" horiz-adv-x="568" d="M494 1116v-76h-308l-14 -204q23 17 62 29.5t84 12.5q47 0 86.5 -15.5t68 -44t44 -69.5t15.5 -93q0 -51 -15.5 -92t-44.5 -70t-71 -44.5t-95 -15.5q-45 0 -88 12t-77 37.5t-54.5 66t-20.5 98.5h90q0 -39 12.5 -66.5t33 -44.5t47 -25t55.5 -8q65 0 101.5 37.5t36.5 112.5 q0 42 -11.5 70.5t-31.5 46.5t-46.5 25.5t-56.5 7.5q-50 0 -89 -17.5t-71 -44.5l-50 14l26 360h382z" />
<glyph unicode="&#x2076;" horiz-adv-x="594" d="M328 1128q103 0 161.5 -56.5t58.5 -159.5h-86q0 30 -7.5 56t-24 45t-42 30t-62.5 11q-86 0 -131 -65t-47 -195q32 33 78.5 51.5t99.5 18.5q50 0 90.5 -15.5t69 -44t43.5 -68t15 -88.5q0 -47 -17 -86.5t-46.5 -68t-70 -44t-86.5 -15.5q-59 0 -107 21t-82.5 64t-53.5 108.5 t-19 154.5q0 85 19.5 150t54.5 108.5t84 65.5t108 22zM314 790q-44 0 -89.5 -16.5t-74.5 -51.5q9 -114 54.5 -165t117.5 -51q62 0 99 38.5t37 103.5q0 66 -38 104t-106 38z" />
<glyph unicode="&#x2077;" horiz-adv-x="474" d="M434 1116v-66q-107 -115 -158.5 -257.5t-51.5 -302.5v-44h-86v58q0 72 14 148t39 147t60 133.5t77 107.5h-316v76h422z" />
<glyph unicode="&#x2078;" horiz-adv-x="588" d="M296 1128q43 0 83 -11t71 -34t49.5 -58t18.5 -83q0 -56 -27 -95t-71 -59q50 -21 82 -60.5t32 -101.5q0 -48 -19.5 -84t-52.5 -60t-76 -36t-90 -12q-48 0 -92 12t-77 36t-53 60t-20 84q0 62 33.5 102t84.5 60q-47 20 -74.5 59t-27.5 95q0 48 19.5 83t51.5 58t72.5 34 t82.5 11zM296 756q-32 0 -60 -7t-49 -22t-33 -39t-12 -58q0 -35 12 -59.5t33 -39.5t49 -22t60 -7q31 0 58.5 7t48.5 22t33 39.5t12 59.5q0 34 -12 58t-33 39t-48.5 22t-58.5 7zM296 1060q-29 0 -54 -6.5t-43.5 -21.5t-29.5 -38t-11 -56q0 -32 11 -54.5t30 -36.5t44 -20.5 t53 -6.5q27 0 52 6.5t44 21t30.5 36.5t11.5 54q0 33 -11 56t-30 38t-44 21.5t-53 6.5z" />
<glyph unicode="&#x2079;" horiz-adv-x="594" d="M270 1128q58 0 106.5 -21t83 -64t53.5 -108.5t19 -154.5q0 -86 -19.5 -150.5t-54.5 -108t-84 -65.5t-108 -22q-103 0 -161.5 56.5t-58.5 159.5h86q0 -30 7.5 -56t24 -45t42 -30t62.5 -11q85 0 130 65t48 195q-32 -33 -79.5 -51.5t-98.5 -18.5q-50 0 -90.5 15.5t-69 44 t-43.5 68t-15 88.5t17 88.5t46.5 67.5t69.5 43t87 15zM280 772q44 0 89.5 16.5t74.5 49.5q-11 116 -56 167t-116 51q-62 0 -99 -38.5t-37 -103.5q0 -72 38 -107t106 -35z" />
<glyph unicode="&#x2080;" horiz-adv-x="640" d="M322 65q47 0 79.5 19.5t52 55.5t28 86.5t8.5 112.5t-8.5 112t-28 84.5t-52 53t-79.5 18.5q-49 0 -82 -18.5t-53 -53t-28.5 -84.5t-8.5 -112t8.5 -112.5t28.5 -86.5t53 -55.5t82 -19.5zM322 -11q-68 0 -117.5 27t-81 74.5t-46.5 111t-15 137.5t15 137t46.5 109t81 72 t117.5 26q67 0 115 -26t79.5 -72t46.5 -109t15 -137t-15 -137.5t-46.5 -111t-79.5 -74.5t-115 -27z" />
<glyph unicode="&#x2081;" horiz-adv-x="426" d="M278 671v-670h-86v540q-11 -11 -28.5 -23.5t-41 -23t-52 -17t-62.5 -6.5v76q40 0 72.5 12t57.5 30t42 40t26 42h72z" />
<glyph unicode="&#x2082;" horiz-adv-x="568" d="M278 683q44 0 83.5 -11t69.5 -34.5t47.5 -60t17.5 -88.5q0 -41 -13.5 -74t-35.5 -60t-49 -48.5t-54 -39.5l-84 -54q-47 -33 -70.5 -65.5t-23.5 -70.5h338v-76h-436v34q0 50 13 88t34.5 67t48.5 51t56 42l80 54q20 14 39 28t34 31t24 38.5t9 50.5q0 65 -35 95.5t-91 30.5 q-29 0 -55 -7.5t-45.5 -24.5t-30.5 -44t-11 -66h-86q0 55 18.5 95.5t49.5 67t72 39t86 12.5z" />
<glyph unicode="&#x2083;" horiz-adv-x="568" d="M290 683q43 0 82.5 -11.5t69 -34t47 -56.5t17.5 -80q0 -53 -24.5 -90t-77.5 -60q57 -21 86.5 -65.5t29.5 -106.5q0 -50 -18 -86t-49 -59t-72 -34t-87 -11q-48 0 -91 12t-76 37.5t-52 66t-19 98.5h88q0 -39 12.5 -66t33.5 -43.5t48 -23.5t56 -7q62 0 100 29.5t38 88.5 q0 32 -12 57t-33 41.5t-48.5 25t-58.5 8.5h-44v72h44q62 0 100 25.5t38 84.5q0 57 -37.5 85.5t-96.5 28.5q-28 0 -52.5 -7.5t-42.5 -24t-28.5 -43.5t-10.5 -67h-90q0 55 18.5 96t50 67.5t73 39.5t88.5 13z" />
<glyph unicode="&#x2084;" horiz-adv-x="584" d="M450 671v-448h92v-72h-92v-150h-86v150h-334v60l338 460h82zM364 545l-238 -322h238v322z" />
<glyph unicode="&#x2085;" horiz-adv-x="568" d="M494 671v-76h-308l-14 -204q23 17 62 29.5t84 12.5q47 0 86.5 -15.5t68 -44t44 -69.5t15.5 -93q0 -51 -15.5 -92t-44.5 -70t-71 -44.5t-95 -15.5q-45 0 -88 12t-77 37.5t-54.5 66t-20.5 98.5h90q0 -39 12.5 -66.5t33 -44.5t47 -25t55.5 -8q65 0 101.5 37.5t36.5 112.5 q0 42 -11.5 70.5t-31.5 46.5t-46.5 25.5t-56.5 7.5q-50 0 -89 -17.5t-71 -44.5l-50 14l26 360h382z" />
<glyph unicode="&#x2086;" horiz-adv-x="594" d="M328 683q103 0 161.5 -56.5t58.5 -159.5h-86q0 30 -7.5 56t-24 45t-42 30t-62.5 11q-86 0 -131 -65t-47 -195q32 33 78.5 51.5t99.5 18.5q50 0 90.5 -15.5t69 -44t43.5 -68t15 -88.5q0 -47 -17 -86.5t-46.5 -68t-70 -44t-86.5 -15.5q-59 0 -107 21t-82.5 64t-53.5 108.5 t-19 154.5q0 85 19.5 150t54.5 108.5t84 65.5t108 22zM314 345q-44 0 -89.5 -16.5t-74.5 -51.5q9 -114 54.5 -165t117.5 -51q62 0 99 38.5t37 103.5q0 66 -38 104t-106 38z" />
<glyph unicode="&#x2087;" horiz-adv-x="474" d="M434 671v-66q-107 -115 -158.5 -257.5t-51.5 -302.5v-44h-86v58q0 72 14 148t39 147t60 133.5t77 107.5h-316v76h422z" />
<glyph unicode="&#x2088;" horiz-adv-x="588" d="M296 683q43 0 83 -11t71 -34t49.5 -58t18.5 -83q0 -56 -27 -95t-71 -59q50 -21 82 -60.5t32 -101.5q0 -48 -19.5 -84t-52.5 -60t-76 -36t-90 -12q-48 0 -92 12t-77 36t-53 60t-20 84q0 62 33.5 102t84.5 60q-47 20 -74.5 59t-27.5 95q0 48 19.5 83t51.5 58t72.5 34 t82.5 11zM296 311q-32 0 -60 -7t-49 -22t-33 -39t-12 -58q0 -35 12 -59.5t33 -39.5t49 -22t60 -7q31 0 58.5 7t48.5 22t33 39.5t12 59.5q0 34 -12 58t-33 39t-48.5 22t-58.5 7zM296 615q-29 0 -54 -6.5t-43.5 -21.5t-29.5 -38t-11 -56q0 -32 11 -54.5t30 -36.5t44 -20.5 t53 -6.5q27 0 52 6.5t44 21t30.5 36.5t11.5 54q0 33 -11 56t-30 38t-44 21.5t-53 6.5z" />
<glyph unicode="&#x2089;" horiz-adv-x="594" d="M270 683q58 0 106.5 -21t83 -64t53.5 -108.5t19 -154.5q0 -86 -19.5 -150.5t-54.5 -108t-84 -65.5t-108 -22q-103 0 -161.5 56.5t-58.5 159.5h86q0 -30 7.5 -56t24 -45t42 -30t62.5 -11q85 0 130 65t48 195q-32 -33 -79.5 -51.5t-98.5 -18.5q-50 0 -90.5 15.5t-69 44 t-43.5 68t-15 88.5t17 88.5t46.5 67.5t69.5 43t87 15zM280 327q44 0 89.5 16.5t74.5 49.5q-11 116 -56 167t-116 51q-62 0 -99 -38.5t-37 -103.5q0 -72 38 -107t106 -35z" />
<glyph unicode="&#x20ac;" horiz-adv-x="1232" d="M102 736h142q16 91 51.5 165t90 126.5t128.5 80.5t168 28q83 0 154.5 -23.5t124.5 -68.5t85.5 -109t37.5 -145h-96q-5 53 -25.5 100t-58.5 82t-93.5 55.5t-128.5 20.5q-80 0 -138.5 -24.5t-99 -67t-64.5 -99.5t-36 -121h406v-84h-418q-2 -24 -2 -47v-47v-47.5t2 -46.5 h418v-84h-406q12 -65 36 -122t64.5 -99t99 -66.5t138.5 -24.5q73 0 128.5 20.5t93.5 55.5t58.5 82t25.5 100h96q-5 -81 -37.5 -145t-85.5 -109t-124.5 -68.5t-154.5 -23.5q-94 0 -168 28t-128.5 80t-90 126t-51.5 166h-142v84h132q-3 23 -3.5 46.5t-0.5 47.5t0.5 47.5 t3.5 46.5h-132v84z" />
<glyph unicode="&#x2122;" horiz-adv-x="1148" d="M530 1116h90l126 -248l128 248h88v-462h-72v358l-118 -232h-52l-118 232v-358h-72v462zM240 1054h-138v62h350v-62h-138v-400h-74v400z" />
<glyph unicode="&#x2126;" horiz-adv-x="1208" d="M108 84h260q-36 30 -75.5 77.5t-72.5 114t-54.5 153t-21.5 193.5q0 115 28.5 209.5t86 162t143.5 105t202 37.5q115 0 201.5 -37.5t144 -105t86 -162t28.5 -209.5q0 -107 -21.5 -193.5t-54.5 -153t-72.5 -114t-75.5 -77.5h260v-84h-384v68q69 60 116.5 124t76.5 132.5 t42 141.5t13 150q0 82 -16 160.5t-56.5 139t-110 97.5t-177.5 37t-178 -37t-110.5 -97.5t-56 -139t-15.5 -160.5q0 -77 13 -150t42 -141.5t76.5 -132.5t116.5 -124v-68h-384v84z" />
<glyph unicode="&#x2153;" horiz-adv-x="1314" d="M278 1116v-670h-86v540q-11 -11 -28.5 -23.5t-41 -23t-52 -17t-62.5 -6.5v76q40 0 72.5 12t57.5 30t42 40t26 42h72zM886 1116h88l-688 -1116h-88zM1036 683q43 0 82.5 -11.5t69 -34t47 -56.5t17.5 -80q0 -53 -24.5 -90t-77.5 -60q57 -21 86.5 -65.5t29.5 -106.5 q0 -50 -18 -86t-49 -59t-72 -34t-87 -11q-48 0 -91 12t-76 37.5t-52 66t-19 98.5h88q0 -39 12.5 -66t33.5 -43.5t48 -23.5t56 -7q62 0 100 29.5t38 88.5q0 32 -12 57t-33 41.5t-48.5 25t-58.5 8.5h-44v72h44q62 0 100 25.5t38 84.5q0 57 -37.5 85.5t-96.5 28.5 q-28 0 -52.5 -7.5t-42.5 -24t-28.5 -43.5t-10.5 -67h-90q0 55 18.5 96t50 67.5t73 39.5t88.5 13z" />
<glyph unicode="&#x2154;" horiz-adv-x="1456" d="M278 1128q44 0 83.5 -11t69.5 -34.5t47.5 -60t17.5 -88.5q0 -41 -13.5 -74t-35.5 -60t-49 -48.5t-54 -39.5l-84 -54q-47 -33 -70.5 -65.5t-23.5 -70.5h338v-76h-436v34q0 50 13 88t34.5 67t48.5 51t56 42l80 54q20 14 39 28t34 31t24 38.5t9 50.5q0 65 -35 95.5t-91 30.5 q-29 0 -55 -7.5t-45.5 -24.5t-30.5 -44t-11 -66h-86q0 55 18.5 95.5t49.5 67t72 39t86 12.5zM1028 1116h88l-688 -1116h-88zM1178 683q43 0 82.5 -11.5t69 -34t47 -56.5t17.5 -80q0 -53 -24.5 -90t-77.5 -60q57 -21 86.5 -65.5t29.5 -106.5q0 -50 -18 -86t-49 -59t-72 -34 t-87 -11q-48 0 -91 12t-76 37.5t-52 66t-19 98.5h88q0 -39 12.5 -66t33.5 -43.5t48 -23.5t56 -7q62 0 100 29.5t38 88.5q0 32 -12 57t-33 41.5t-48.5 25t-58.5 8.5h-44v72h44q62 0 100 25.5t38 84.5q0 57 -37.5 85.5t-96.5 28.5q-28 0 -52.5 -7.5t-42.5 -24t-28.5 -43.5 t-10.5 -67h-90q0 55 18.5 96t50 67.5t73 39.5t88.5 13z" />
<glyph unicode="&#x2155;" horiz-adv-x="1314" d="M278 1116v-670h-86v540q-11 -11 -28.5 -23.5t-41 -23t-52 -17t-62.5 -6.5v76q40 0 72.5 12t57.5 30t42 40t26 42h72zM886 1116h88l-688 -1116h-88zM1240 671v-76h-308l-14 -204q23 17 62 29.5t84 12.5q47 0 86.5 -15.5t68 -44t44 -69.5t15.5 -93q0 -51 -15.5 -92 t-44.5 -70t-71 -44.5t-95 -15.5q-45 0 -88 12t-77 37.5t-54.5 66t-20.5 98.5h90q0 -39 12.5 -66.5t33 -44.5t47 -25t55.5 -8q65 0 101.5 37.5t36.5 112.5q0 42 -11.5 70.5t-31.5 46.5t-46.5 25.5t-56.5 7.5q-50 0 -89 -17.5t-71 -44.5l-50 14l26 360h382z" />
<glyph unicode="&#x2156;" horiz-adv-x="1456" d="M278 1128q44 0 83.5 -11t69.5 -34.5t47.5 -60t17.5 -88.5q0 -41 -13.5 -74t-35.5 -60t-49 -48.5t-54 -39.5l-84 -54q-47 -33 -70.5 -65.5t-23.5 -70.5h338v-76h-436v34q0 50 13 88t34.5 67t48.5 51t56 42l80 54q20 14 39 28t34 31t24 38.5t9 50.5q0 65 -35 95.5t-91 30.5 q-29 0 -55 -7.5t-45.5 -24.5t-30.5 -44t-11 -66h-86q0 55 18.5 95.5t49.5 67t72 39t86 12.5zM1028 1116h88l-688 -1116h-88zM1382 671v-76h-308l-14 -204q23 17 62 29.5t84 12.5q47 0 86.5 -15.5t68 -44t44 -69.5t15.5 -93q0 -51 -15.5 -92t-44.5 -70t-71 -44.5t-95 -15.5 q-45 0 -88 12t-77 37.5t-54.5 66t-20.5 98.5h90q0 -39 12.5 -66.5t33 -44.5t47 -25t55.5 -8q65 0 101.5 37.5t36.5 112.5q0 42 -11.5 70.5t-31.5 46.5t-46.5 25.5t-56.5 7.5q-50 0 -89 -17.5t-71 -44.5l-50 14l26 360h382z" />
<glyph unicode="&#x2157;" horiz-adv-x="1456" d="M290 1128q43 0 82.5 -11.5t69 -34t47 -56.5t17.5 -80q0 -53 -24.5 -90t-77.5 -60q57 -21 86.5 -65.5t29.5 -106.5q0 -50 -18 -86t-49 -59t-72 -34t-87 -11q-48 0 -91 12t-76 37.5t-52 66t-19 98.5h88q0 -39 12.5 -66t33.5 -43.5t48 -23.5t56 -7q62 0 100 29.5t38 88.5 q0 32 -12 57t-33 41.5t-48.5 25t-58.5 8.5h-44v72h44q62 0 100 25.5t38 84.5q0 57 -37.5 85.5t-96.5 28.5q-28 0 -52.5 -7.5t-42.5 -24t-28.5 -43.5t-10.5 -67h-90q0 55 18.5 96t50 67.5t73 39.5t88.5 13zM1028 1116h88l-688 -1116h-88zM1382 671v-76h-308l-14 -204 q23 17 62 29.5t84 12.5q47 0 86.5 -15.5t68 -44t44 -69.5t15.5 -93q0 -51 -15.5 -92t-44.5 -70t-71 -44.5t-95 -15.5q-45 0 -88 12t-77 37.5t-54.5 66t-20.5 98.5h90q0 -39 12.5 -66.5t33 -44.5t47 -25t55.5 -8q65 0 101.5 37.5t36.5 112.5q0 42 -11.5 70.5t-31.5 46.5 t-46.5 25.5t-56.5 7.5q-50 0 -89 -17.5t-71 -44.5l-50 14l26 360h382z" />
<glyph unicode="&#x2158;" horiz-adv-x="1472" d="M450 1116v-448h92v-72h-92v-150h-86v150h-334v60l338 460h82zM364 990l-238 -322h238v322zM1044 1116h88l-688 -1116h-88zM1398 671v-76h-308l-14 -204q23 17 62 29.5t84 12.5q47 0 86.5 -15.5t68 -44t44 -69.5t15.5 -93q0 -51 -15.5 -92t-44.5 -70t-71 -44.5t-95 -15.5 q-45 0 -88 12t-77 37.5t-54.5 66t-20.5 98.5h90q0 -39 12.5 -66.5t33 -44.5t47 -25t55.5 -8q65 0 101.5 37.5t36.5 112.5q0 42 -11.5 70.5t-31.5 46.5t-46.5 25.5t-56.5 7.5q-50 0 -89 -17.5t-71 -44.5l-50 14l26 360h382z" />
<glyph unicode="&#x2159;" horiz-adv-x="1340" d="M278 1116v-670h-86v540q-11 -11 -28.5 -23.5t-41 -23t-52 -17t-62.5 -6.5v76q40 0 72.5 12t57.5 30t42 40t26 42h72zM886 1116h88l-688 -1116h-88zM1074 683q103 0 161.5 -56.5t58.5 -159.5h-86q0 30 -7.5 56t-24 45t-42 30t-62.5 11q-86 0 -131 -65t-47 -195 q32 33 78.5 51.5t99.5 18.5q50 0 90.5 -15.5t69 -44t43.5 -68t15 -88.5q0 -47 -17 -86.5t-46.5 -68t-70 -44t-86.5 -15.5q-59 0 -107 21t-82.5 64t-53.5 108.5t-19 154.5q0 85 19.5 150t54.5 108.5t84 65.5t108 22zM1060 345q-44 0 -89.5 -16.5t-74.5 -51.5 q9 -114 54.5 -165t117.5 -51q62 0 99 38.5t37 103.5q0 66 -38 104t-106 38z" />
<glyph unicode="&#x215a;" horiz-adv-x="1482" d="M494 1116v-76h-308l-14 -204q23 17 62 29.5t84 12.5q47 0 86.5 -15.5t68 -44t44 -69.5t15.5 -93q0 -51 -15.5 -92t-44.5 -70t-71 -44.5t-95 -15.5q-45 0 -88 12t-77 37.5t-54.5 66t-20.5 98.5h90q0 -39 12.5 -66.5t33 -44.5t47 -25t55.5 -8q65 0 101.5 37.5t36.5 112.5 q0 42 -11.5 70.5t-31.5 46.5t-46.5 25.5t-56.5 7.5q-50 0 -89 -17.5t-71 -44.5l-50 14l26 360h382zM1028 1116h88l-688 -1116h-88zM1216 683q103 0 161.5 -56.5t58.5 -159.5h-86q0 30 -7.5 56t-24 45t-42 30t-62.5 11q-86 0 -131 -65t-47 -195q32 33 78.5 51.5t99.5 18.5 q50 0 90.5 -15.5t69 -44t43.5 -68t15 -88.5q0 -47 -17 -86.5t-46.5 -68t-70 -44t-86.5 -15.5q-59 0 -107 21t-82.5 64t-53.5 108.5t-19 154.5q0 85 19.5 150t54.5 108.5t84 65.5t108 22zM1202 345q-44 0 -89.5 -16.5t-74.5 -51.5q9 -114 54.5 -165t117.5 -51q62 0 99 38.5 t37 103.5q0 66 -38 104t-106 38z" />
<glyph unicode="&#x215b;" horiz-adv-x="1334" d="M278 1116v-670h-86v540q-11 -11 -28.5 -23.5t-41 -23t-52 -17t-62.5 -6.5v76q40 0 72.5 12t57.5 30t42 40t26 42h72zM886 1116h88l-688 -1116h-88zM1042 683q43 0 83 -11t71 -34t49.5 -58t18.5 -83q0 -56 -27 -95t-71 -59q50 -21 82 -60.5t32 -101.5q0 -48 -19.5 -84 t-52.5 -60t-76 -36t-90 -12q-48 0 -92 12t-77 36t-53 60t-20 84q0 62 33.5 102t84.5 60q-47 20 -74.5 59t-27.5 95q0 48 19.5 83t51.5 58t72.5 34t82.5 11zM1042 311q-32 0 -60 -7t-49 -22t-33 -39t-12 -58q0 -35 12 -59.5t33 -39.5t49 -22t60 -7q31 0 58.5 7t48.5 22 t33 39.5t12 59.5q0 34 -12 58t-33 39t-48.5 22t-58.5 7zM1042 615q-29 0 -54 -6.5t-43.5 -21.5t-29.5 -38t-11 -56q0 -32 11 -54.5t30 -36.5t44 -20.5t53 -6.5q27 0 52 6.5t44 21t30.5 36.5t11.5 54q0 33 -11 56t-30 38t-44 21.5t-53 6.5z" />
<glyph unicode="&#x215c;" horiz-adv-x="1476" d="M290 1128q43 0 82.5 -11.5t69 -34t47 -56.5t17.5 -80q0 -53 -24.5 -90t-77.5 -60q57 -21 86.5 -65.5t29.5 -106.5q0 -50 -18 -86t-49 -59t-72 -34t-87 -11q-48 0 -91 12t-76 37.5t-52 66t-19 98.5h88q0 -39 12.5 -66t33.5 -43.5t48 -23.5t56 -7q62 0 100 29.5t38 88.5 q0 32 -12 57t-33 41.5t-48.5 25t-58.5 8.5h-44v72h44q62 0 100 25.5t38 84.5q0 57 -37.5 85.5t-96.5 28.5q-28 0 -52.5 -7.5t-42.5 -24t-28.5 -43.5t-10.5 -67h-90q0 55 18.5 96t50 67.5t73 39.5t88.5 13zM1028 1116h88l-688 -1116h-88zM1184 683q43 0 83 -11t71 -34 t49.5 -58t18.5 -83q0 -56 -27 -95t-71 -59q50 -21 82 -60.5t32 -101.5q0 -48 -19.5 -84t-52.5 -60t-76 -36t-90 -12q-48 0 -92 12t-77 36t-53 60t-20 84q0 62 33.5 102t84.5 60q-47 20 -74.5 59t-27.5 95q0 48 19.5 83t51.5 58t72.5 34t82.5 11zM1184 311q-32 0 -60 -7 t-49 -22t-33 -39t-12 -58q0 -35 12 -59.5t33 -39.5t49 -22t60 -7q31 0 58.5 7t48.5 22t33 39.5t12 59.5q0 34 -12 58t-33 39t-48.5 22t-58.5 7zM1184 615q-29 0 -54 -6.5t-43.5 -21.5t-29.5 -38t-11 -56q0 -32 11 -54.5t30 -36.5t44 -20.5t53 -6.5q27 0 52 6.5t44 21 t30.5 36.5t11.5 54q0 33 -11 56t-30 38t-44 21.5t-53 6.5z" />
<glyph unicode="&#x215d;" horiz-adv-x="1476" d="M494 1116v-76h-308l-14 -204q23 17 62 29.5t84 12.5q47 0 86.5 -15.5t68 -44t44 -69.5t15.5 -93q0 -51 -15.5 -92t-44.5 -70t-71 -44.5t-95 -15.5q-45 0 -88 12t-77 37.5t-54.5 66t-20.5 98.5h90q0 -39 12.5 -66.5t33 -44.5t47 -25t55.5 -8q65 0 101.5 37.5t36.5 112.5 q0 42 -11.5 70.5t-31.5 46.5t-46.5 25.5t-56.5 7.5q-50 0 -89 -17.5t-71 -44.5l-50 14l26 360h382zM1028 1116h88l-688 -1116h-88zM1184 683q43 0 83 -11t71 -34t49.5 -58t18.5 -83q0 -56 -27 -95t-71 -59q50 -21 82 -60.5t32 -101.5q0 -48 -19.5 -84t-52.5 -60t-76 -36 t-90 -12q-48 0 -92 12t-77 36t-53 60t-20 84q0 62 33.5 102t84.5 60q-47 20 -74.5 59t-27.5 95q0 48 19.5 83t51.5 58t72.5 34t82.5 11zM1184 311q-32 0 -60 -7t-49 -22t-33 -39t-12 -58q0 -35 12 -59.5t33 -39.5t49 -22t60 -7q31 0 58.5 7t48.5 22t33 39.5t12 59.5 q0 34 -12 58t-33 39t-48.5 22t-58.5 7zM1184 615q-29 0 -54 -6.5t-43.5 -21.5t-29.5 -38t-11 -56q0 -32 11 -54.5t30 -36.5t44 -20.5t53 -6.5q27 0 52 6.5t44 21t30.5 36.5t11.5 54q0 33 -11 56t-30 38t-44 21.5t-53 6.5z" />
<glyph unicode="&#x215e;" horiz-adv-x="1342" d="M434 1116v-66q-107 -115 -158.5 -257.5t-51.5 -302.5v-44h-86v58q0 72 14 148t39 147t60 133.5t77 107.5h-316v76h422zM894 1116h88l-688 -1116h-88zM1050 683q43 0 83 -11t71 -34t49.5 -58t18.5 -83q0 -56 -27 -95t-71 -59q50 -21 82 -60.5t32 -101.5q0 -48 -19.5 -84 t-52.5 -60t-76 -36t-90 -12q-48 0 -92 12t-77 36t-53 60t-20 84q0 62 33.5 102t84.5 60q-47 20 -74.5 59t-27.5 95q0 48 19.5 83t51.5 58t72.5 34t82.5 11zM1050 311q-32 0 -60 -7t-49 -22t-33 -39t-12 -58q0 -35 12 -59.5t33 -39.5t49 -22t60 -7q31 0 58.5 7t48.5 22 t33 39.5t12 59.5q0 34 -12 58t-33 39t-48.5 22t-58.5 7zM1050 615q-29 0 -54 -6.5t-43.5 -21.5t-29.5 -38t-11 -56q0 -32 11 -54.5t30 -36.5t44 -20.5t53 -6.5q27 0 52 6.5t44 21t30.5 36.5t11.5 54q0 33 -11 56t-30 38t-44 21.5t-53 6.5z" />
<glyph unicode="&#x2190;" horiz-adv-x="1240" d="M492 936l62 -62l-270 -270h840v-84h-840l270 -270l-62 -62l-376 374z" />
<glyph unicode="&#x2191;" horiz-adv-x="1240" d="M578 898l-270 -270l-62 62l374 376l374 -376l-62 -62l-270 270v-840h-84v840z" />
<glyph unicode="&#x2192;" horiz-adv-x="1240" d="M116 604h840l-270 270l62 62l376 -374l-376 -374l-62 62l270 270h-840v84z" />
<glyph unicode="&#x2193;" horiz-adv-x="1240" d="M246 434l62 62l270 -270v840h84v-840l270 270l62 -62l-374 -376z" />
<glyph unicode="&#x2196;" horiz-adv-x="1240" d="M250 918h530v-90h-384l594 -592l-60 -58l-594 594v-384h-86v530z" />
<glyph unicode="&#x2197;" horiz-adv-x="1240" d="M844 828h-386v90h532v-530h-90v384l-592 -594l-58 58z" />
<glyph unicode="&#x2198;" horiz-adv-x="1240" d="M458 266h386l-594 592l58 60l592 -594v384h90v-530h-532v88z" />
<glyph unicode="&#x2199;" horiz-adv-x="1240" d="M250 708h86v-384l594 594l60 -60l-594 -592h384v-88h-530v530z" />
<glyph unicode="&#x2202;" horiz-adv-x="980" d="M486 -20q-65 0 -131 21t-119.5 72t-87.5 138t-34 219t34 219t88 138t121.5 72t134.5 21q60 0 103.5 -15.5t82.5 -48.5l-142 300h100l124 -276q27 -61 47 -114t33 -103t19.5 -98.5t6.5 -100.5q0 -127 -34 -212t-88.5 -136.5t-122.5 -73.5t-135 -22zM490 66q137 0 207.5 92 t70.5 272t-70.5 272t-207.5 92t-207.5 -92t-70.5 -272t70.5 -272t207.5 -92z" />
<glyph unicode="&#x2206;" horiz-adv-x="1102" d="M114 90l376 1026h122l376 -1026v-90h-874v90zM882 90l-332 934l-332 -934h664z" />
<glyph unicode="&#x220f;" horiz-adv-x="1120" d="M196 1116h728v-1116h-102v1026h-524v-1026h-102v1116z" />
<glyph unicode="&#x2211;" horiz-adv-x="972" d="M114 84l408 490l-390 458v84h742v-90h-620l388 -454l-406 -482h656v-90h-778v84z" />
<glyph unicode="&#x2212;" d="M130 506h780v-88h-780v88z" />
<glyph unicode="&#x221a;" horiz-adv-x="948" d="M210 776h-162v84h230l218 -742l338 1146h90l-384 -1264h-90z" />
<glyph unicode="&#x221e;" horiz-adv-x="1276" d="M188 464q0 -41 10 -76.5t30 -61t49.5 -40t68.5 -14.5q59 0 104.5 33t89.5 87l58 72l-58 72q-44 54 -89.5 87t-104.5 33q-39 0 -68.5 -14.5t-49.5 -40t-30 -61t-10 -76.5zM736 392q44 -54 89.5 -87t104.5 -33q39 0 68.5 14.5t49.5 40t30 61t10 76.5t-10 76.5t-30 61 t-49.5 40t-68.5 14.5q-59 0 -104.5 -33t-89.5 -87l-58 -72zM112 464q0 60 17 108.5t47 82.5t72.5 52.5t93.5 18.5q63 0 125.5 -33t128.5 -117l42 -54l42 54q66 84 128.5 117t125.5 33q51 0 93.5 -18.5t72.5 -52.5t47 -82.5t17 -108.5t-17 -108.5t-47 -82.5t-72.5 -52.5 t-93.5 -18.5q-63 0 -125.5 33t-128.5 117l-42 54l-42 -54q-66 -84 -128.5 -117t-125.5 -33q-51 0 -93.5 18.5t-72.5 52.5t-47 82.5t-17 108.5z" />
<glyph unicode="&#x222b;" horiz-adv-x="752" d="M80 -196q0 -41 7.5 -68t21 -43.5t33 -23.5t42.5 -7q37 0 61 14.5t38 40t19.5 61t5.5 78.5v1012q0 137 56.5 202.5t163.5 65.5q61 0 99.5 -18.5t60.5 -49.5t30 -70.5t8 -81.5h-94q0 40 -7.5 67.5t-21 44t-33 23.5t-42.5 7q-37 0 -61 -14.5t-38 -40t-19.5 -61t-5.5 -78.5 v-1012q0 -137 -56.5 -202.5t-163.5 -65.5q-61 0 -99.5 18.5t-60.5 49.5t-30 70.5t-8 81.5h94z" />
<glyph unicode="&#x2248;" d="M156 508q0 127 49.5 187.5t140.5 60.5q35 0 64 -8t53.5 -21.5t45 -30.5t39.5 -34q35 -32 67.5 -56t74.5 -24q20 0 38.5 8t32 26t21.5 48.5t8 75.5h94q0 -127 -49.5 -187.5t-140.5 -60.5q-32 0 -58.5 7t-49 18t-42 25.5t-36.5 29.5q-20 17 -38.5 34t-37.5 30.5t-39 21.5 t-43 8q-20 0 -38.5 -8t-32 -26t-21.5 -48.5t-8 -75.5h-94zM156 189q0 127 49.5 187.5t140.5 60.5q35 0 64 -8t53.5 -21.5t45 -30.5t39.5 -34q35 -32 67.5 -56t74.5 -24q20 0 38.5 8t32 26t21.5 48.5t8 75.5h94q0 -127 -49.5 -187.5t-140.5 -60.5q-32 0 -58.5 7t-49 18 t-42 25.5t-36.5 29.5q-20 17 -38.5 34t-37.5 30.5t-39 21.5t-43 8q-20 0 -38.5 -8t-32 -26t-21.5 -48.5t-8 -75.5h-94z" />
<glyph unicode="&#x2260;" d="M150 682h518l186 204l56 -52l-138 -152h118v-88h-200l-240 -264h440v-88h-520l-184 -202l-56 52l136 150h-116v88h196l242 264h-438v88z" />
<glyph unicode="&#x2264;" d="M130 86h780v-86h-780v86zM130 614l780 412v-96l-674 -350l674 -352v-100l-780 412v74z" />
<glyph unicode="&#x2265;" d="M130 86h780v-86h-780v86zM910 540l-780 -412v96l674 350l-674 352v100l780 -412v-74z" />
<glyph unicode="&#x25ca;" horiz-adv-x="910" d="M738 558l-284 496l-284 -496l284 -496zM98 508v100l298 508h118l298 -508v-100l-298 -508h-118z" />
<glyph unicode="&#x25fc;" horiz-adv-x="860" d="M0 860h860v-860h-860v860z" />
<glyph unicode="&#xfb01;" horiz-adv-x="966" d="M208 776h-144v84h144v244q0 119 54 179.5t152 60.5q30 0 51.5 -4.5t32.5 -9.5v-86q-14 6 -35.5 10t-42.5 4q-25 0 -46 -8t-36.5 -26.5t-24.5 -50t-9 -77.5v-236h194v-84h-194v-776h-96v776zM700 860h96v-860h-96v860zM678 1324h140v-142h-140v142z" />
<glyph unicode="&#xfb02;" horiz-adv-x="966" d="M208 776h-144v84h144v244q0 119 54 179.5t152 60.5q30 0 51.5 -4.5t32.5 -9.5v-86q-14 6 -35.5 10t-42.5 4q-25 0 -46 -8t-36.5 -26.5t-24.5 -50t-9 -77.5v-236h194v-84h-194v-776h-96v776zM700 1324h96v-1324h-96v1324z" />
<glyph horiz-adv-x="1496" d="M720 140q88 0 168 27t141 81t97 136t36 192q0 90 -25.5 163.5t-74.5 126t-121 81.5t-165 29q-86 0 -165.5 -26t-141 -80t-98.5 -136.5t-37 -195.5q0 -92 26.5 -166t76 -125.5t121 -79t162.5 -27.5zM190 1116h1116v-1116h-1116v1116zM798 332q-14 -5 -30.5 -6.5 t-25.5 -1.5q-68 0 -108 70.5t-40 201.5q0 57 9.5 113t33.5 100t64.5 71.5t102.5 27.5q56 0 105.5 -23.5t86 -68t57.5 -109.5t21 -147q0 -62 -13 -117t-40 -100t-69 -78.5t-100 -52.5q40 25 66.5 61t42.5 78t22.5 88t6.5 93q0 72 -14 130t-39.5 99t-62 63t-80.5 22t-70 -18.5 t-28 -41.5l2 -2q14 5 30.5 6.5t25.5 1.5q68 0 108 -70.5t40 -201.5q0 -57 -9.5 -113t-33.5 -100t-64.5 -71.5t-102.5 -27.5q-56 0 -105.5 23.5t-86 68t-57.5 109t-21 147.5q0 61 13 116.5t40 100.5t69 78.5t100 52.5q-40 -26 -66.5 -61.5t-42.5 -77.5t-22.5 -88.5 t-6.5 -92.5q0 -72 14 -130t39.5 -99t62 -63t80.5 -22t70 18.5t28 41.5z" />
<glyph horiz-adv-x="1084" d="M542 1048q-89 0 -148.5 -36t-95.5 -101t-51 -155t-15 -198t15 -198t51 -155t95.5 -101t148.5 -36t148.5 36t95.5 101t51 155t15 198t-15 198t-51 155t-95.5 101t-148.5 36zM542 624q29 0 47.5 -18.5t18.5 -47.5t-18.5 -47.5t-47.5 -18.5t-47.5 18.5t-18.5 47.5t18.5 47.5 t47.5 18.5zM542 1136q204 0 308 -149.5t104 -428.5t-104 -428.5t-308 -149.5t-308 149.5t-104 428.5t104 428.5t308 149.5z" />
<glyph d="M520 1048q-87 0 -145 -36t-93 -101t-49.5 -155t-14.5 -198t14.5 -198t49.5 -155t93 -101t145 -36t145 36t93 101t49.5 155t14.5 198t-14.5 198t-49.5 155t-93 101t-145 36zM520 1136q100 0 175.5 -38t126.5 -111.5t76.5 -181.5t25.5 -247q0 -140 -25.5 -247.5t-76.5 -181 t-126.5 -111.5t-175.5 -38q-200 0 -302 149.5t-102 428.5t102 428.5t302 149.5z" />
<glyph d="M520 1048q-87 0 -145 -36t-93 -101t-49.5 -155t-14.5 -198t14.5 -198t49.5 -155t93 -101t145 -36t145 36t93 101t49.5 155t14.5 198t-14.5 198t-49.5 155t-93 101t-145 36zM520 624q29 0 47.5 -18.5t18.5 -47.5t-18.5 -47.5t-47.5 -18.5t-47.5 18.5t-18.5 47.5t18.5 47.5 t47.5 18.5zM520 1136q100 0 175.5 -38t126.5 -111.5t76.5 -181.5t25.5 -247q0 -140 -25.5 -247.5t-76.5 -181t-126.5 -111.5t-175.5 -38q-200 0 -302 149.5t-102 428.5t102 428.5t302 149.5z" />
<glyph d="M538 90v854q-15 -20 -43.5 -41.5t-69 -39.5t-93 -29.5t-114.5 -11.5v88q70 0 126.5 19t98.5 49t69.5 66.5t41.5 71.5h84v-1026h276v-90h-678v90h302z" />
<glyph d="M520 1136q95 0 161.5 -24.5t108 -66.5t60 -98t18.5 -119q0 -70 -19 -123.5t-50.5 -96t-72.5 -77t-86 -65.5l-178 -126q-72 -51 -110.5 -112t-41.5 -138h574v-90h-688v36q0 130 55 226t165 170l170 114q37 25 69.5 53t56.5 62t38 75t14 94q0 46 -14 85.5t-44 69 t-76.5 46.5t-111.5 17q-127 0 -189.5 -68t-64.5 -196h-106q0 89 28 155.5t76.5 110t114.5 65t143 21.5z" />
<glyph d="M538 1136q96 0 163 -24.5t109 -66t61 -96t19 -115.5q0 -97 -49 -162t-135 -100q40 -11 78.5 -32.5t68 -55.5t47.5 -80t18 -104q0 -65 -20.5 -123t-65 -101.5t-114.5 -69.5t-168 -26t-169.5 27t-118 76t-68.5 118t-22 153h104q2 -143 72.5 -214.5t201.5 -71.5q64 0 113 17 t82 47.5t50 73t17 92.5q0 46 -17.5 87t-53 72t-88.5 49t-123 18h-64v88h72q62 0 109 16.5t78.5 46t47 69t15.5 86.5q0 46 -14.5 85.5t-45 69t-78 46.5t-112.5 17q-127 0 -188.5 -68t-63.5 -196h-104q0 89 27 155.5t75 110t113 65t141 21.5z" />
<glyph d="M800 1116v-766h150v-86h-150v-264h-100v264h-556v72l562 780h94zM700 350v610l-442 -610h442z" />
<glyph d="M862 1116v-90h-504l-26 -396q50 42 117 63t133 21q96 0 163.5 -29.5t109.5 -79.5t61.5 -115.5t19.5 -137.5t-19.5 -139t-63 -119t-112.5 -83t-169 -31q-97 0 -168 27t-117.5 76t-69.5 118t-23 153h100q2 -143 75 -214.5t201 -71.5q65 0 114 20.5t82 57.5t49.5 88.5 t16.5 113.5t-16.5 113.5t-49.5 88t-82.5 56.5t-115.5 20q-89 0 -161 -34t-117 -88l-58 8l38 604h592z" />
<glyph d="M550 1136q73 0 135.5 -23.5t109 -68.5t72.5 -110.5t25 -149.5h-106q0 72 -20.5 122t-53.5 81.5t-75.5 46t-86.5 14.5q-77 0 -136 -27.5t-98.5 -87.5t-59.5 -153.5t-20 -225.5q26 28 61 51t74.5 38.5t81.5 24t83 8.5q72 0 135.5 -22t110.5 -65.5t74.5 -109t27.5 -153.5 q0 -89 -28 -154t-76 -107.5t-111.5 -63.5t-134.5 -21q-100 0 -174.5 39t-124 113t-74.5 181.5t-25 244.5q0 153 30 262.5t84.5 179.5t131 103t168.5 33zM520 586q-30 0 -66.5 -6.5t-74 -21t-74 -37.5t-67.5 -57q6 -112 31.5 -187.5t65.5 -122t91.5 -66.5t109.5 -20 q53 0 99 16t79.5 48.5t52.5 81.5t19 114t-19.5 113.5t-55 80.5t-84.5 48t-107 16z" />
<glyph d="M872 1116v-80q-189 -186 -276.5 -428t-87.5 -546v-62h-102v92q0 154 29.5 294t78.5 260t113 216t133 164h-594v90h706z" />
<glyph d="M520 1136q97 0 164.5 -26.5t109.5 -69t61 -97t19 -109.5q0 -95 -48 -165t-136 -103q40 -12 77.5 -34.5t66.5 -56.5t46.5 -79t17.5 -102q0 -61 -19.5 -117.5t-64 -100t-116.5 -70t-178 -26.5t-178 26.5t-116.5 70t-64 100t-19.5 117.5q0 57 17.5 102t46.5 79t66.5 56.5 t77.5 34.5q-89 33 -136.5 103t-47.5 165q0 55 19 109.5t61 97t109.5 69t164.5 26.5zM520 524q-71 0 -123.5 -18t-87 -49t-51 -72t-16.5 -87q0 -51 16.5 -93t51 -72t87 -46.5t123.5 -16.5t123.5 16.5t87 46.5t51 72t16.5 93q0 46 -16.5 87t-51 72t-87 49t-123.5 18zM520 1046 q-68 0 -116.5 -17t-79 -46.5t-44.5 -69t-14 -85.5q0 -47 14 -86.5t44.5 -69t79 -46t116.5 -16.5t116.5 16.5t79 46t44.5 69t14 86.5q0 46 -14 85.5t-44.5 69t-79 46.5t-116.5 17z" />
<glyph d="M494 1136q100 0 174.5 -39t124 -113t74.5 -181.5t25 -244.5q0 -153 -30 -262.5t-84.5 -179.5t-131 -103t-168.5 -33q-73 0 -135.5 23.5t-109 68.5t-72.5 110.5t-25 149.5h106q0 -72 20.5 -122.5t53.5 -82t75.5 -45.5t86.5 -14q76 0 134.5 27.5t98 87.5t60 153.5 t21.5 225.5q-27 -29 -62 -51.5t-74 -38t-79.5 -24t-78.5 -8.5q-74 0 -138.5 22t-112.5 65.5t-75.5 109t-27.5 153.5t28 153.5t76 108t111.5 63.5t134.5 21zM508 530q29 0 65.5 6.5t74 20.5t74.5 37t68 56q-7 112 -33 188.5t-66 123t-91 66.5t-108 20q-53 0 -99 -16 t-79.5 -48.5t-52.5 -81.5t-19 -114t19.5 -113.5t55 -80.5t84 -48t107.5 -16z" />
<glyph horiz-adv-x="1744" d="M870 -20q-69 0 -133 24t-113 77t-78.5 138t-29.5 207t29.5 208.5t78.5 141t113 79.5t133 25q49 0 90.5 -11t74.5 -29t58.5 -40.5t44.5 -45.5v106h78v-728q0 -44 18 -60t50 -16q54 0 99 37t78 101.5t51 151.5t18 188q0 151 -41.5 263t-120 186.5t-192 111.5t-256.5 37 q-158 0 -287.5 -44.5t-221 -131.5t-141.5 -215.5t-50 -296.5q0 -170 50.5 -301t140.5 -220.5t215 -136t274 -46.5q58 0 112 6.5t99 15.5t79 20t54 20v-82q-20 -10 -54.5 -20.5t-79.5 -19.5t-99.5 -14.5t-112.5 -5.5q-185 0 -329.5 60.5t-243.5 165.5t-151 248t-52 308 q0 163 51 304t151.5 245.5t249 164.5t342.5 60q166 0 297.5 -45.5t222 -132t138.5 -212.5t48 -286q0 -113 -23.5 -215t-67.5 -178.5t-106.5 -121.5t-140.5 -45q-37 0 -64 10t-45.5 26.5t-28.5 38.5t-12 47q-19 -23 -44.5 -45t-58.5 -39t-73 -27.5t-88 -10.5zM1120 688 q-41 47 -96.5 76.5t-133.5 29.5q-138 0 -207 -96.5t-69 -267.5t69 -267.5t207 -96.5q78 0 133.5 29.5t96.5 76.5v516z" />
<glyph horiz-adv-x="792" d="M354 1324h136l-138 -316h-50z" />
<glyph horiz-adv-x="1136" d="M176 1116h102v-490h-102v490zM558 -20q-188 0 -285 92t-97 296h102q0 -78 16.5 -133.5t51 -91.5t89 -52.5t131.5 -16.5q76 0 131.5 17t91 56t52.5 102t17 155v712h102v-694q0 -65 -5.5 -117t-16.5 -93.5t-28.5 -73t-41.5 -56.5q-48 -50 -126 -76t-184 -26zM267 1510h136 l-178 -234h-58zM950 1510h136l-178 -234h-58z" />
<glyph horiz-adv-x="876" d="M412 -316q14 -6 35.5 -10t42.5 -4q35 0 58.5 12t37 33.5t19 51.5t5.5 67v1026h96v-1036q0 -55 -11 -99t-36.5 -75.5t-66.5 -48.5t-100 -17q-29 0 -49 5t-31 11v84zM261 1296h136l-178 -234h-58zM698 1296h136l-178 -234h-58zM170 860h96v-860h-96v860z" />
<glyph horiz-adv-x="984" d="M736 106q-19 -23 -44.5 -45.5t-58.5 -40.5t-74.5 -29t-90.5 -11q-69 0 -133 24t-113 77t-78.5 138t-29.5 207t29.5 208.5t78.5 141t113 79.5t133 25q49 0 90.5 -11t74.5 -29t58.5 -40.5t44.5 -45.5v106h78v-860h-78v106zM718 688q-41 47 -96.5 76.5t-133.5 29.5 q-138 0 -207 -96.5t-69 -267.5t69 -267.5t207 -96.5q78 0 133.5 29.5t96.5 76.5v516z" />
<glyph horiz-adv-x="984" d="M518 1296h136l-178 -234h-58zM736 106q-19 -23 -44.5 -45.5t-58.5 -40.5t-74.5 -29t-90.5 -11q-69 0 -133 24t-113 77t-78.5 138t-29.5 207t29.5 208.5t78.5 141t113 79.5t133 25q49 0 90.5 -11t74.5 -29t58.5 -40.5t44.5 -45.5v106h78v-860h-78v106zM718 688 q-41 47 -96.5 76.5t-133.5 29.5q-138 0 -207 -96.5t-69 -267.5t69 -267.5t207 -96.5q78 0 133.5 29.5t96.5 76.5v516z" />
<glyph horiz-adv-x="984" d="M736 106q-19 -23 -44.5 -45.5t-58.5 -40.5t-74.5 -29t-90.5 -11q-69 0 -133 24t-113 77t-78.5 138t-29.5 207t29.5 208.5t78.5 141t113 79.5t133 25q49 0 90.5 -11t74.5 -29t58.5 -40.5t44.5 -45.5v106h78v-860h-78v106zM718 688q-41 47 -96.5 76.5t-133.5 29.5 q-138 0 -207 -96.5t-69 -267.5t69 -267.5t207 -96.5q78 0 133.5 29.5t96.5 76.5v516zM300 1296h136l100 -234h-58z" />
<glyph horiz-adv-x="984" d="M436 1298h80l208 -248h-78l-170 156l-170 -156h-78zM736 106q-19 -23 -44.5 -45.5t-58.5 -40.5t-74.5 -29t-90.5 -11q-69 0 -133 24t-113 77t-78.5 138t-29.5 207t29.5 208.5t78.5 141t113 79.5t133 25q49 0 90.5 -11t74.5 -29t58.5 -40.5t44.5 -45.5v106h78v-860h-78 v106zM718 688q-41 47 -96.5 76.5t-133.5 29.5q-138 0 -207 -96.5t-69 -267.5t69 -267.5t207 -96.5q78 0 133.5 29.5t96.5 76.5v516z" />
<glyph horiz-adv-x="984" d="M242 1246h132v-134h-132v134zM578 1246h132v-134h-132v134zM736 106q-19 -23 -44.5 -45.5t-58.5 -40.5t-74.5 -29t-90.5 -11q-69 0 -133 24t-113 77t-78.5 138t-29.5 207t29.5 208.5t78.5 141t113 79.5t133 25q49 0 90.5 -11t74.5 -29t58.5 -40.5t44.5 -45.5v106h78v-860 h-78v106zM718 688q-41 47 -96.5 76.5t-133.5 29.5q-138 0 -207 -96.5t-69 -267.5t69 -267.5t207 -96.5q78 0 133.5 29.5t96.5 76.5v516z" />
<glyph horiz-adv-x="984" d="M736 106q-19 -23 -44.5 -45.5t-58.5 -40.5t-74.5 -29t-90.5 -11q-69 0 -133 24t-113 77t-78.5 138t-29.5 207t29.5 208.5t78.5 141t113 79.5t133 25q49 0 90.5 -11t74.5 -29t58.5 -40.5t44.5 -45.5v106h78v-860h-78v106zM718 688q-41 47 -96.5 76.5t-133.5 29.5 q-138 0 -207 -96.5t-69 -267.5t69 -267.5t207 -96.5q78 0 133.5 29.5t96.5 76.5v516zM240 1200q18 33 51 54.5t75 21.5q45 0 77 -22t59 -46q23 -20 45 -34t49 -14q35 0 65.5 22t50.5 46v-76q-18 -33 -51 -54.5t-75 -21.5t-72 19.5t-56 42.5q-24 21 -48 37.5t-54 16.5 q-35 0 -65.5 -22t-50.5 -46v76z" />
<glyph horiz-adv-x="984" d="M476 1072q47 0 78.5 30t31.5 84t-31.5 84t-78.5 30t-78.5 -30t-31.5 -84t31.5 -84t78.5 -30zM476 1004q-35 0 -68.5 12.5t-59.5 36.5t-42 57.5t-16 75.5t16 75.5t42 57.5t59.5 36.5t68.5 12.5t68.5 -12.5t59.5 -36.5t42 -57.5t16 -75.5t-16 -75.5t-42 -57.5t-59.5 -36.5 t-68.5 -12.5zM736 106q-19 -23 -44.5 -45.5t-58.5 -40.5t-74.5 -29t-90.5 -11q-69 0 -133 24t-113 77t-78.5 138t-29.5 207t29.5 208.5t78.5 141t113 79.5t133 25q49 0 90.5 -11t74.5 -29t58.5 -40.5t44.5 -45.5v106h78v-860h-78v106zM718 688q-41 47 -96.5 76.5 t-133.5 29.5q-138 0 -207 -96.5t-69 -267.5t69 -267.5t207 -96.5q78 0 133.5 29.5t96.5 76.5v516z" />
<glyph horiz-adv-x="984" d="M736 106q-19 -23 -44.5 -45.5t-58.5 -40.5t-74.5 -29t-90.5 -11q-69 0 -133 24t-113 77t-78.5 138t-29.5 207t29.5 208.5t78.5 141t113 79.5t133 25q49 0 90.5 -11t74.5 -29t58.5 -40.5t44.5 -45.5v106h78v-860h-78v106zM718 688q-41 47 -96.5 76.5t-133.5 29.5 q-138 0 -207 -96.5t-69 -267.5t69 -267.5t207 -96.5q78 0 133.5 29.5t96.5 76.5v516zM254 1224h452v-84h-452v84z" />
<glyph horiz-adv-x="984" d="M736 106q-19 -23 -44.5 -45.5t-58.5 -40.5t-74.5 -29t-90.5 -11q-69 0 -133 24t-113 77t-78.5 138t-29.5 207t29.5 208.5t78.5 141t113 79.5t133 25q49 0 90.5 -11t74.5 -29t58.5 -40.5t44.5 -45.5v106h78v-860h-78v106zM718 688q-41 47 -96.5 76.5t-133.5 29.5 q-138 0 -207 -96.5t-69 -267.5t69 -267.5t207 -96.5q78 0 133.5 29.5t96.5 76.5v516zM476 1044q-63 0 -105.5 20.5t-68 56.5t-36 83.5t-10.5 101.5h70q0 -89 39.5 -136.5t110.5 -47.5t110.5 47.5t39.5 136.5h70q0 -54 -11 -101.5t-36.5 -83.5t-67.5 -56.5t-105 -20.5z" />
<glyph horiz-adv-x="984" d="M814 -244q-5 -60 -43.5 -95t-104.5 -35q-68 0 -111 37t-43 105q0 41 16.5 75t46.5 62.5t71 54t90 50.5v96q-19 -23 -44.5 -45.5t-58.5 -40.5t-74.5 -29t-90.5 -11q-69 0 -133 24t-113 77t-78.5 138t-29.5 207t29.5 208.5t78.5 141t113 79.5t133 25q49 0 90.5 -11 t74.5 -29t58.5 -40.5t44.5 -45.5v106h78v-860q-47 -27 -87 -53t-68.5 -53.5t-44.5 -57.5t-16 -64q0 -35 17 -57.5t53 -22.5q27 0 49 14.5t25 49.5h72zM718 688q-41 47 -96.5 76.5t-133.5 29.5q-138 0 -207 -96.5t-69 -267.5t69 -267.5t207 -96.5q78 0 133.5 29.5t96.5 76.5 v516z" />
<glyph horiz-adv-x="984" d="M718 94q-8 -11 -26.5 -30t-49 -37.5t-73.5 -32.5t-101 -14q-69 0 -133 24t-113 77t-78.5 138t-29.5 207t29.5 208.5t78.5 141t113 79.5t133 25q49 0 90.5 -11t74.5 -29t58.5 -40.5t44.5 -45.5v106h78v-912q0 -82 -13.5 -149t-51 -115t-104.5 -74t-173 -26q-70 0 -131 13 t-106 46t-71 88t-26 139h94q0 -106 59.5 -153t180.5 -47q90 0 139.5 23.5t73.5 63t28.5 90.5t4.5 107v140zM718 688q-41 47 -96.5 76.5t-133.5 29.5q-138 0 -207 -96.5t-69 -267.5t69 -267.5t207 -96.5q78 0 133.5 29.5t96.5 76.5v516z" />
<glyph horiz-adv-x="984" d="M718 94q-8 -11 -26.5 -30t-49 -37.5t-73.5 -32.5t-101 -14q-69 0 -133 24t-113 77t-78.5 138t-29.5 207t29.5 208.5t78.5 141t113 79.5t133 25q49 0 90.5 -11t74.5 -29t58.5 -40.5t44.5 -45.5v106h78v-912q0 -82 -13.5 -149t-51 -115t-104.5 -74t-173 -26q-70 0 -131 13 t-106 46t-71 88t-26 139h94q0 -106 59.5 -153t180.5 -47q90 0 139.5 23.5t73.5 63t28.5 90.5t4.5 107v140zM718 688q-41 47 -96.5 76.5t-133.5 29.5q-138 0 -207 -96.5t-69 -267.5t69 -267.5t207 -96.5q78 0 133.5 29.5t96.5 76.5v516zM478 1044q-63 0 -105.5 20.5t-68 56.5 t-36 83.5t-10.5 101.5h70q0 -89 39.5 -136.5t110.5 -47.5t110.5 47.5t39.5 136.5h70q0 -54 -11 -101.5t-36.5 -83.5t-67.5 -56.5t-105 -20.5z" />
<glyph horiz-adv-x="984" d="M438 1298h80l208 -248h-78l-170 156l-170 -156h-78zM718 94q-8 -11 -26.5 -30t-49 -37.5t-73.5 -32.5t-101 -14q-69 0 -133 24t-113 77t-78.5 138t-29.5 207t29.5 208.5t78.5 141t113 79.5t133 25q49 0 90.5 -11t74.5 -29t58.5 -40.5t44.5 -45.5v106h78v-912 q0 -82 -13.5 -149t-51 -115t-104.5 -74t-173 -26q-70 0 -131 13t-106 46t-71 88t-26 139h94q0 -106 59.5 -153t180.5 -47q90 0 139.5 23.5t73.5 63t28.5 90.5t4.5 107v140zM718 688q-41 47 -96.5 76.5t-133.5 29.5q-138 0 -207 -96.5t-69 -267.5t69 -267.5t207 -96.5 q78 0 133.5 29.5t96.5 76.5v516z" />
<glyph horiz-adv-x="984" d="M718 94q-8 -11 -26.5 -30t-49 -37.5t-73.5 -32.5t-101 -14q-69 0 -133 24t-113 77t-78.5 138t-29.5 207t29.5 208.5t78.5 141t113 79.5t133 25q49 0 90.5 -11t74.5 -29t58.5 -40.5t44.5 -45.5v106h78v-912q0 -82 -13.5 -149t-51 -115t-104.5 -74t-173 -26q-70 0 -131 13 t-106 46t-71 88t-26 139h94q0 -106 59.5 -153t180.5 -47q90 0 139.5 23.5t73.5 63t28.5 90.5t4.5 107v140zM718 688q-41 47 -96.5 76.5t-133.5 29.5q-138 0 -207 -96.5t-69 -267.5t69 -267.5t207 -96.5q78 0 133.5 29.5t96.5 76.5v516zM470 1180h76v-136h-136v136l80 172h56 z" />
<glyph horiz-adv-x="984" d="M718 94q-8 -11 -26.5 -30t-49 -37.5t-73.5 -32.5t-101 -14q-69 0 -133 24t-113 77t-78.5 138t-29.5 207t29.5 208.5t78.5 141t113 79.5t133 25q49 0 90.5 -11t74.5 -29t58.5 -40.5t44.5 -45.5v106h78v-912q0 -82 -13.5 -149t-51 -115t-104.5 -74t-173 -26q-70 0 -131 13 t-106 46t-71 88t-26 139h94q0 -106 59.5 -153t180.5 -47q90 0 139.5 23.5t73.5 63t28.5 90.5t4.5 107v140zM718 688q-41 47 -96.5 76.5t-133.5 29.5q-138 0 -207 -96.5t-69 -267.5t69 -267.5t207 -96.5q78 0 133.5 29.5t96.5 76.5v516zM432 1246h132v-134h-132v134z" />
<glyph horiz-adv-x="792" d="M268 1510h136l100 -234h-58z" />
<glyph horiz-adv-x="792" d="M386 1510h136l-178 -234h-58z" />
<glyph horiz-adv-x="792" d="M162 1460h132v-134h-132v134zM498 1460h132v-134h-132v134z" />
<glyph horiz-adv-x="792" d="M356 1512h80l208 -248h-78l-170 156l-170 -156h-78z" />
<glyph horiz-adv-x="792" d="M160 1414q18 33 51 54.5t75 21.5q45 0 77 -22t59 -46q23 -20 45 -34t49 -14q35 0 65.5 22t50.5 46v-76q-18 -33 -51 -54.5t-75 -21.5t-72 19.5t-56 42.5q-24 21 -48 37.5t-54 16.5q-35 0 -65.5 -22t-50.5 -46v76z" />
<glyph horiz-adv-x="792" d="M170 1438h452v-84h-452v84z" />
<glyph horiz-adv-x="792" d="M396 1258q-63 0 -105.5 20.5t-68 56.5t-36 83.5t-10.5 101.5h70q0 -89 39.5 -136.5t110.5 -47.5t110.5 47.5t39.5 136.5h70q0 -54 -11 -101.5t-36.5 -83.5t-67.5 -56.5t-105 -20.5z" />
<glyph horiz-adv-x="792" d="M322 1466h148v-148h-148v148z" />
<glyph horiz-adv-x="792" d="M396 1286q47 0 78.5 30t31.5 84t-31.5 84t-78.5 30t-78.5 -30t-31.5 -84t31.5 -84t78.5 -30zM396 1218q-35 0 -68.5 12.5t-59.5 36.5t-42 57.5t-16 75.5t16 75.5t42 57.5t59.5 36.5t68.5 12.5t68.5 -12.5t59.5 -36.5t42 -57.5t16 -75.5t-16 -75.5t-42 -57.5t-59.5 -36.5 t-68.5 -12.5z" />
<glyph horiz-adv-x="792" d="M232 1510h136l-178 -234h-58zM524 1510h136l-178 -234h-58z" />
<glyph horiz-adv-x="792" d="M148 1512h78l170 -156l170 156h78l-208 -248h-80z" />
<glyph d="M70 734h122q15 93 47 167.5t81.5 126.5t116.5 80t151 28q76 0 140 -23.5t112 -68t76.5 -108.5t33.5 -146h-96q-4 55 -22 102t-51 81.5t-81 54.5t-112 20q-71 0 -122.5 -25t-87 -67.5t-57 -100t-31.5 -121.5h322v-80h-332q-2 -24 -2 -48v-48v-48t2 -48h332v-80h-322 q10 -65 31.5 -122.5t57 -100t87 -67t122.5 -24.5q64 0 112 20t81 54.5t51 81.5t22 102h96q-5 -82 -33.5 -146t-76.5 -108.5t-112 -68t-140 -23.5q-84 0 -151 28t-116.5 80t-81.5 126.5t-47 167.5h-122v80h112q-2 23 -3 46.5t-1 49.5q0 24 1 48t3 48h-112v80z" />
<glyph d="M880 278q-5 -71 -28.5 -125t-64 -91.5t-95 -58t-120.5 -23.5v-196h-76v200q-60 7 -118.5 32t-104.5 77t-74.5 134t-28.5 203t28.5 203t74.5 134t104.5 77t118.5 32v202h76v-198q66 -3 120.5 -23.5t95 -58t64 -92t28.5 -124.5h-94q-2 41 -15 78.5t-38.5 66t-65.5 46.5 t-95 21v-730q55 3 95 21t65.5 47t38.5 66.5t15 79.5h94zM266 430q0 -165 59 -255t171 -107v724q-112 -18 -171 -108.5t-59 -253.5z" />
<glyph d="M210 320q4 -63 28 -107.5t60 -74t82 -45.5t96 -21v458l-90 26q-122 35 -186 106t-64 180q0 73 27.5 127t74 90t108.5 55t130 22v196h76v-198q148 -12 232.5 -98t95.5 -234h-100q-5 62 -26 105.5t-52 71.5t-70 43t-80 20v-436l128 -36q52 -15 96.5 -38t76 -57.5t49.5 -81 t18 -107.5q0 -81 -30.5 -138t-81.5 -93.5t-117.5 -54.5t-138.5 -20v-196h-76v198q-77 7 -142 31t-113 66t-77 102t-34 139h100zM552 512v-442q67 1 117 17.5t83.5 45t50.5 67.5t17 86q0 81 -46 128t-124 70zM236 840q0 -77 44.5 -124t135.5 -74l60 -18v422 q-119 -5 -179.5 -60t-60.5 -146z" />
<glyph d="M512 248q-14 -81 -38.5 -133t-56 -82t-70 -41.5t-81.5 -11.5q-52 0 -87 13t-56 35t-30 51t-9 61q0 14 0.5 28t3.5 32h90q-2 -11 -3 -23.5t-1 -24.5q0 -27 7.5 -45t20.5 -29t29.5 -15.5t34.5 -4.5q37 0 62 15t42.5 41.5t28.5 63t19 80.5l70 372h-146l16 84h142l28 154 q15 81 39.5 133t56 82t69.5 41.5t81 11.5q52 0 87 -13t56 -35t30 -51t9 -61q0 -14 -0.5 -28t-3.5 -32h-90q2 11 3 23.5t1 24.5q0 27 -7.5 45t-20.5 29t-29.5 15.5t-34.5 4.5q-35 0 -60 -14t-43 -40t-29.5 -63t-19.5 -83l-26 -144h198l-16 -84h-198z" />
<glyph d="M178 588h128q-16 28 -32 56.5t-29 59t-21 64.5t-8 72q0 61 23.5 115t67.5 94.5t108 63.5t145 23q63 0 124 -17t109.5 -57.5t79.5 -108.5t35 -171h-96q-4 73 -25 124t-55.5 82.5t-79 45.5t-94.5 14q-56 0 -100.5 -15t-76 -42.5t-48.5 -66t-17 -84.5q0 -35 9 -67.5 t22.5 -63t30.5 -60.5t34 -61h280v-84h-242q11 -27 16.5 -55.5t5.5 -58.5q0 -47 -13.5 -91.5t-37 -84t-55 -72.5t-68.5 -56h634v-86h-772v78q52 30 92 66.5t67 77t41 83t14 85.5q0 30 -6.5 58.5t-17.5 55.5h-172v84z" />
<glyph d="M142 524h288l-364 592h114l342 -574l346 574h108l-366 -592h290v-80h-330v-164h330v-78h-330v-202h-98v202h-330v78h330v164h-330v80z" />
<glyph horiz-adv-x="440" d="M-24 -316q14 -6 35.5 -10t42.5 -4q35 0 58.5 12t37 33.5t19 51.5t5.5 67v1026h96v-1036q0 -55 -11 -99t-36.5 -75.5t-66.5 -48.5t-100 -17q-29 0 -49 5t-31 11v84zM265 1296h136l-178 -234h-58z" />
<glyph horiz-adv-x="938" d="M160 1116h602v-768q0 -107 -22 -173.5t-64 -110.5q-81 -84 -254 -84q-81 0 -145 20t-109 63.5t-68.5 111.5t-23.5 165v46h102v-48q0 -144 60.5 -205t183.5 -61q60 0 104.5 14.5t74.5 46t44.5 82t14.5 123.5v688h-500v90zM532 1510h136l-178 -234h-58z" />
<glyph horiz-adv-x="80" d="M25 1766h30v-2238h-30v2238z" />
</font>
</defs>
</svg>
